<svg width="32" height="31" viewBox="0 0 32 31" fill="none" xmlns="http://www.w3.org/2000/svg">
<path d="M28.7999 23.3V18.3C28.3999 18.5 28 18.6 27.5 18.6V23.3C25.9 23.6 24.7 25.0001 24.7 26.7001C24.7 28.6001 26.1998 30.1 28.0998 30.1C29.9998 30.1 31.5 28.6001 31.5 26.7001C31.6 25.0001 30.3999 23.6 28.7999 23.3ZM29.7 27.3H28.7999V28.2001C28.7999 28.6001 28.5 28.8 28.2 28.8C27.8 28.8 27.5998 28.5001 27.5998 28.2001V27.3H26.7C26.3 27.3 26.0998 27.0001 26.0998 26.7001C26.0998 26.3001 26.4 26.1 26.7 26.1H27.5998V25.2001C27.5998 24.8001 27.9 24.6 28.2 24.6C28.6 24.6 28.7999 24.9001 28.7999 25.2001V26H29.7C30.1 26 30.2999 26.3 30.2999 26.6C30.2999 27 30 27.3 29.7 27.3Z" fill="#BE2638"/>
<path d="M29.4 17.2C29.4 17.1 29.2 17 29.2 17C29.2 17 29.6 17 29.6 16.3C29.6 16 29.3 16 29.3 16C29.3 16 29.5 15.9 29.5 15.8C29.6 15.3 29.2 14.8 28.8 15V11.2C28.6 11.2 28.4 11.2 28.3 11.1C28.8 10.9 29.1 10.7 29.4 10.3C29.5 10.2 29.6 9.90004 29.6 9.60004C29.6 9.60004 29.5 9.70004 29.3 9.70004C29.1 9.70004 29 9.70004 29 9.70004C29 9.70004 29.4 9.50004 29.5 9.30004C29.6 9.10004 29.6 8.80004 29.5 8.60004C29.5 8.60004 29.4 8.70004 29.3 8.70004C29.2 8.80004 29 8.80004 29 8.80004C29 8.80004 29.3 8.60004 29.4 8.20004C29.5 7.80004 29.2 7.40004 28.7 7.70004V1.20004C28.7 0.800044 28.4 0.600043 28.1 0.600043C27.7 0.600043 27.5 0.900044 27.5 1.20004V2.30004H26.6V1.90004C26.6 1.70004 26.4 1.50004 26.2 1.50004H24.5V2.40004C25.2 2.40004 25.8 3.00004 25.8 3.70004C25.8 4.40004 25.2 5.00004 24.5 5.00004V5.90004H26.2C26.4 5.90004 26.6 5.70004 26.6 5.50004V5.10004H27.5V7.70004C27.6 7.70004 27.7 7.70004 27.8 7.80004C28.1 8.00004 28 8.40004 28 8.40004C28 8.40004 27.7 8.00004 27.4 8.00004C26.7 8.00004 26.9 9.00004 26.9 9.00004L21 10.2C21 10.5 20.9 10.7 20.9 10.8C20.7 9.70004 20.4 9.00004 20.4 9.00004C20.4 9.00004 19.4 9.30004 18.6 9.40004C16.9 9.50004 16 9.30004 16 9.30004C16 9.30004 16.7 9.30004 17.1 9.20004C17.6 9.10004 17.9 8.90004 17.9 8.90004L18 7.50004C18 7.50004 16.6 7.70004 15.3 7.20004C14.4 6.90004 14.2 6.40004 14.2 6.40004L14 7.00004C14 7.00004 13.6 6.80004 13.4 6.40004C13.2 6.00004 13.2 5.40004 13.2 5.40004C13.2 5.40004 13.3 5.80004 13.4 6.10004C13.6 6.30004 13.8 6.60004 13.8 6.60004L14.2 5.80004C14.2 5.80004 14.6 6.90004 15.8 6.90004C16.4 6.90004 17.1 6.70004 17.7 6.70004C18.4 6.70004 18.8 7.00004 18.8 7.00004C18.8 7.00004 19.3 6.20004 19.3 5.80004C19.3 5.40004 19.2 4.90004 17.8 4.90004C17.5 4.90004 17 4.90004 16.7 4.90004C16.4 4.90004 16.4 5.20004 16.4 5.20004C15.8 5.20004 17.5 3.60004 18.4 3.60004C19.3 3.60004 19.1 4.60004 19.3 4.60004C19.9 4.60004 20 2.50004 20 2.20004C20 2.20004 20.4 1.60004 20.1 1.40004C19.8 1.10004 17.9 1.30004 17.9 1.30004C17.9 1.30004 17.9 1.00004 17.3 0.700044C16.5 0.200044 13.5999 1.00004 13.5999 1.00004C13.5999 1.00004 11.7 0.200043 11.2 0.900043C10.8 1.40004 11.8 2.90004 12.2 3.30004C12.2 3.30004 11.9 3.10004 11.6 2.90004C11.4 2.70004 11.2 2.50004 11.2 2.50004C11.2 2.50004 10.2 3.50004 9.69995 4.40004C9.09995 5.40004 8.79995 6.30004 8.79995 6.30004C8.79995 6.30004 9.39995 6.20004 9.79995 6.10004C10.4 6.10004 10.9 6.20004 10.9 6.20004C10.9 6.20004 10.5 6.20004 10.3 6.30004C10.1 6.30004 9.89995 6.40004 9.89995 6.40004C9.89995 6.40004 9.39995 7.60004 9.29995 8.50004C8.99995 10.2 9.09995 11.5 9.09995 11.5C9.09995 11.5 9.49995 11.4 9.89995 11.2C10.2 11.1 10.9 10.5 10.9 10.5C10.9 10.5 10.6 10.9 10.5 11C10.4 11.1 10.2 11.4 10.2 11.4C10.2 11.4 10.2 12.2 10.5 13.3C10.7 14.1 11 14.9 11 14.9C11 14.9 11.6 14.5 12.1 14.1C12.6 13.7 13.0999 13.2 13.0999 13.2C13.0999 13.2 13.1 13.3 13 13.5C12.9 13.7 12.8 13.7 12.8 13.7C12.8 13.7 13.3 14.3 13.4 14.5C13.9 15.2 14 15.6 14 15.6C14 15.6 13.7 15.1 13.4 14.8C13.2 14.6 12.9 14.4 12.9 14.4C12.9 14.4 12 15.2 11.2 15.6C10.7 15.9 10.2 16.1 9.69995 16.4C9.49995 15.9 9.19995 15.4 8.69995 15.2C8.19995 14.9 7.59995 14.8 7.09995 15C6.49995 15.1 6.09995 15.5 5.79995 16L4.29995 18.7C4.09995 19.1 3.69995 19.4 3.29995 19.5C2.89995 19.6 2.39995 19.6 1.99995 19.3C1.59995 19.1 1.29995 18.7 1.19995 18.3C1.09995 17.9 1.09995 17.4 1.39995 17L7.09995 7.10004C7.89995 5.80004 7.39995 4.10004 6.09995 3.30004C5.79995 3.00004 5.99995 2.50004 5.99995 2.50004C5.09995 2.60004 5.59995 3.30004 5.59995 3.30004C5.59995 3.30004 5.29995 3.20004 5.19995 2.90004C4.79995 2.80004 4.39995 2.90004 4.09995 3.00004C3.39995 3.20004 2.79995 3.60004 2.39995 4.30004L0.199952 8.20004C0.499952 8.30004 0.899951 8.40004 1.29995 8.40004C2.29995 8.40004 3.19995 7.80004 3.59995 6.90004C3.59995 6.90004 3.39995 6.70004 3.29995 6.40004C2.89995 5.70004 3.39995 4.90004 3.39995 4.90004C3.59995 4.50004 3.99995 4.20004 4.39995 4.10004C4.79995 4.00004 5.29995 4.00004 5.69995 4.30004C6.49995 4.80004 6.79995 5.80004 6.29995 6.60004L0.599952 16.5C0.199952 17.1 0.0999509 17.9 0.299951 18.6C0.499951 19.2 0.899951 19.8 1.39995 20.2C1.49995 20 1.69995 20 1.79995 20.1C1.19995 20.5 1.49995 20.9 1.49995 20.9C1.79995 20.5 2.29995 20.6 2.39995 20.7C2.59995 20.7 2.79995 20.8 2.99995 20.8C3.19995 20.8 3.49995 20.8 3.69995 20.7C4.39995 20.5 4.99995 20.1 5.39995 19.4L6.89995 16.7C6.99995 16.5 7.29995 16.3 7.49995 16.2C7.79995 16.1 8.09995 16.2 8.29995 16.3C8.49995 16.4 8.69995 16.7 8.79995 16.9C8.79995 17 8.79995 17.1 8.79995 17.3C8.69995 17.4 8.49995 17.6 8.39995 17.7C6.79995 19.9 7.59995 20.8 7.39995 21.9C7.09995 23 6.29995 23.5 5.69995 23.6C4.29995 23.9 3.49995 23 3.49995 23C3.49995 23 3.39995 23.4 3.39995 23.9C3.49995 24.4 3.69995 24.7 3.69995 24.7C3.69995 24.7 3.49995 24.6 3.39995 24.4C3.29995 24.2 3.19995 24.1 3.19995 24.1C3.19995 24.1 2.49995 25 2.49995 27C2.49995 28.6 3.39995 30.1 3.39995 30.1H7.89995C7.89995 30.1 8.69995 27.5 7.29995 27.5C5.59995 27.5 4.49995 29 4.49995 29C4.49995 29 4.49995 28.8 4.69995 28.6C4.79995 28.5 4.89995 28.4 4.89995 28.4C4.89995 28.4 4.79995 27.7 4.69995 27.1C4.69995 26.4 4.79995 25.6 4.79995 25.6C4.79995 25.6 5.79995 26.1 6.79995 26.1C7.79995 26.1 8.39995 25.9 8.39995 25.9C8.59995 25.7 8.89995 24.9 8.89995 24.9C8.89995 24.9 8.89995 25.3 8.79995 25.7C8.69995 26 8.49995 26.3 8.49995 26.3C8.49995 26.3 10.6 26.1 12 23.7C12.6 22.7 12.7 21.4 12.7 21.4C12.7 21.4 12.7 22 12.7 22.3C12.7 22.5 12.6 23 12.6 23C12.6 23 13.1999 23 13.5999 23C14.0999 23 14.5999 23.2 14.5999 23.2C14.5999 23.6 14.5999 24.4 14.0999 25C13.6999 25.5 13 25.4 13 25.4C13 25.4 13 26 13.7 26.3C14.2 26.5 14.8 26.4 14.8 26.4C14.8 26.4 14.6 26.6 14.4 26.6C14.3 26.6 14.0999 26.7 14.0999 26.7L16.3 30.1H20.4C20.4 30.1 21.4 27.5 19.9 27.5C18.5 27.5 17.2 29.1 17.2 29.1C17.2 29.1 17.4 28.7 17.6 28.4C17.8 28.2 17.9 28.1 17.9 28.1L16.6 25.7C16.6 25.7 17.8 25.3 18.5 24.2C18.9 23.7 19 23 19 23C19 23 19 23 18.9 22.9C18.7 22.8 18.4 22.7 18.4 22.7C18.4 22.7 18.8 22.7 19.2 22.8C19.5 22.9 19.8 23 19.8 23C19.8 23 19.8 21.5 18.6 20.1C17.9 19.3 17.1 18.9 17.1 18.9C16.6 18.9 15.0999 19.7 15.0999 19.7C15.0999 19.7 15.6 19.3 16.7 18.7C18 18.1 18.9 17.3 19.5 16.4C19.1 16.3 18.9 16 18.9 16L22.8 16.7C22.8 16.7 22.9 16.5 22.9 16.3C23 16.1 23.2 15.9 23.2 15.9C23.2 15.9 23.1 16.5 23 16.8C23 17 22.9 17.5 22.9 17.5C22.9 17.5 24 17.3 24.4 17.3C25.8 17.3 26.2 18.4 27.4 18.4C28.5 18.3 29.4 17.6 29.4 17.2ZM17.2 2.00004L16.8 2.70004C16.8 2.70004 16.6 2.50004 16.7 2.30004L16 1.90004C16.1 1.80004 16.7 1.60004 17.2 2.00004ZM12.8 2.80004C12.7 2.30004 13 2.00004 13 2.00004C12.8 1.60004 12.3 1.60004 12.3 1.60004C13.1 1.30004 13.5 2.00004 13.5 2.00004C13 2.30004 12.8 2.80004 12.8 2.80004ZM27 14.9C26.8 15.1 26.7 15.4 26.7 15.4L22.1 13L19.9 11.9C20 11.8 20.1 11.8 20.2 11.8L22.5 13L25.3 12.1C25.3 12.1 25.3 12 25.2 11.8C25.2 11.6 25.3 11.3 25.3 11.3C25.3 11.3 25.3 11.5 25.4 11.8C25.5 12.1 25.7 12.3 25.7 12.3C25.7 12.3 26.6 11.6 27.3 11.4C27.4 10.3 27.5 10 27.5 10V14.3C27.5 15.1 27.7 15.4 27.8 15.6C27.6 15.6 27.5 15.4 27.4 15.3C27.2 15 27.3 14.7 27 14.9Z" fill="#BE2638"/>
</svg>
