<svg width="41" height="27" viewBox="0 0 41 27" fill="none" xmlns="http://www.w3.org/2000/svg">
<g clip-path="url(#clip0)">
<path d="M41 -0.166626H0V27.167H41V-0.166626Z" fill="#F0F0F0"/>
<path d="M23.0625 -0.166992H17.9375V10.9371H0V16.0621H17.9375V27.1662H23.0625V16.0621H41V10.9371H23.0625V-0.166992Z" fill="#D80027"/>
<path d="M31.5337 18.2533L41.0001 23.5125V18.2533H31.5337Z" fill="#0052B4"/>
<path d="M24.9565 18.2533L41 27.1663V24.6459L29.4934 18.2533H24.9565Z" fill="#0052B4"/>
<path d="M36.7266 27.1663L24.9565 20.6268V27.1663H36.7266Z" fill="#0052B4"/>
<path d="M24.9565 18.2533L41 27.1663V24.6459L29.4934 18.2533H24.9565Z" fill="#F0F0F0"/>
<path d="M25 18L41.0435 26.913V24.3926L29.5368 18H25Z" fill="#D80027"/>
<path d="M7.23434 18.2532L0 22.2723V18.2532H7.23434Z" fill="#0052B4"/>
<path d="M16.0435 19.3866V27.1663H2.04126L16.0435 19.3866Z" fill="#0052B4"/>
<path d="M11.5067 18L0 24.3926V26.913L16.0435 18H11.5067Z" fill="#D80027"/>
<path d="M9.46643 8.74603L0 3.48682V8.74603H9.46643Z" fill="#0052B4"/>
<path d="M16.0435 8.74602L0 -0.166992V2.35339L11.5067 8.74602H16.0435Z" fill="#0052B4"/>
<path d="M4.27344 -0.166992L16.0435 6.37251V-0.166992H4.27344Z" fill="#0052B4"/>
<path d="M16.0435 8.74602L0 -0.166992V2.35339L11.5067 8.74602H16.0435Z" fill="#F0F0F0"/>
<path d="M16.0435 8.91302L0 0V2.52038L11.5067 8.91302H16.0435Z" fill="#D80027"/>
<path d="M33.7656 8.74617L41 4.72705V8.74617H33.7656Z" fill="#0052B4"/>
<path d="M24.9565 7.6128V-0.16687H38.9588L24.9565 7.6128Z" fill="#0052B4"/>
<path d="M29.5245 9L41 2.54498V0L25 9H29.5245Z" fill="#D80027"/>
</g>
<defs>
<clipPath id="clip0">
<rect width="41" height="27" fill="white"/>
</clipPath>
</defs>
</svg>
