<svg width="59" height="43" viewBox="0 0 59 43" fill="none" xmlns="http://www.w3.org/2000/svg">
<path fill-rule="evenodd" clip-rule="evenodd" d="M28.6 0.65H26.65V40.95H28.6V0.65ZM26 0V41.6H29.25V0H26Z" fill="#221F1F"/>
<path fill-rule="evenodd" clip-rule="evenodd" d="M37.7 41.6H17.55V42.25H37.7V41.6ZM16.9 40.95V42.9H38.35V40.95H16.9Z" fill="#221F1F"/>
<path d="M5.72 19.5H39V32.5H5.72L0 26L5.72 19.5Z" fill="white"/>
<path fill-rule="evenodd" clip-rule="evenodd" d="M6.30769 20.8L1.73169 26L6.30768 31.2H37.7V20.8H6.30769ZM5.72 32.5L0 26L5.72 19.5H39V32.5H5.72Z" fill="#221F1F"/>
<path d="M52.78 17.55L19.5 17.55L19.5 4.55005L52.78 4.55005L58.5 11.05L52.78 17.55Z" fill="white"/>
<path fill-rule="evenodd" clip-rule="evenodd" d="M52.1923 16.25L56.7683 11.05L52.1923 5.85005L20.8 5.85005L20.8 16.25L52.1923 16.25ZM52.78 4.55005L58.5 11.05L52.78 17.55L19.5 17.55L19.5 4.55005L52.78 4.55005Z" fill="#BC1E2C"/>
<path fill-rule="evenodd" clip-rule="evenodd" d="M1.94999 6.50002L17.55 6.50002L17.55 7.15002L1.94999 7.15002L1.94999 6.50002Z" fill="#221F1F"/>
<path fill-rule="evenodd" clip-rule="evenodd" d="M7.79999 11.05L17.55 11.05L17.55 11.7L7.79999 11.7L7.79999 11.05Z" fill="#221F1F"/>
<path fill-rule="evenodd" clip-rule="evenodd" d="M3.9 11.05L6.5 11.05L6.5 11.7L3.9 11.7L3.9 11.05Z" fill="#BC1E2C"/>
<path fill-rule="evenodd" clip-rule="evenodd" d="M9.74999 15.6L17.55 15.6L17.55 16.25L9.74999 16.25L9.74999 15.6Z" fill="#221F1F"/>
<path fill-rule="evenodd" clip-rule="evenodd" d="M56.55 30.55L40.95 30.55L40.95 29.9L56.55 29.9L56.55 30.55Z" fill="#BC1E2C"/>
<path fill-rule="evenodd" clip-rule="evenodd" d="M50.7 26L40.95 26L40.95 25.35L50.7 25.35L50.7 26Z" fill="#BC1E2C"/>
<path fill-rule="evenodd" clip-rule="evenodd" d="M54.5999 26L51.9999 26L51.9999 25.35L54.5999 25.35L54.5999 26Z" fill="#221F1F"/>
<path fill-rule="evenodd" clip-rule="evenodd" d="M48.75 21.45L40.95 21.45L40.95 20.8L48.75 20.8L48.75 21.45Z" fill="#BC1E2C"/>
</svg>
