<svg width="46" height="48" viewBox="0 0 46 48" fill="none" xmlns="http://www.w3.org/2000/svg">
<path fill-rule="evenodd" clip-rule="evenodd" d="M8.32 1.28H1.28L1.28 8.32H8.32V1.28ZM1.28 0C0.573076 0 0 0.573076 0 1.28V8.32C0 9.02693 0.573076 9.6 1.28 9.6H8.32C9.02693 9.6 9.6 9.02693 9.6 8.32V1.28C9.6 0.573076 9.02693 0 8.32 0H1.28Z" fill="#221F1F"/>
<path fill-rule="evenodd" clip-rule="evenodd" d="M8.32 14.08H1.28L1.28 21.12H8.32V14.08ZM1.28 12.8C0.573076 12.8 0 13.3731 0 14.08V21.12C0 21.8269 0.573076 22.4 1.28 22.4H8.32C9.02693 22.4 9.6 21.8269 9.6 21.12V14.08C9.6 13.3731 9.02693 12.8 8.32 12.8H1.28Z" fill="#BC1E2C"/>
<path fill-rule="evenodd" clip-rule="evenodd" d="M8.32 26.24H1.28L1.28 33.28H8.32V26.24ZM1.28 24.96C0.573076 24.96 0 25.5331 0 26.24V33.28C0 33.9869 0.573076 34.56 1.28 34.56H8.32C9.02693 34.56 9.6 33.9869 9.6 33.28V26.24C9.6 25.5331 9.02693 24.96 8.32 24.96H1.28Z" fill="#221F1F"/>
<path fill-rule="evenodd" clip-rule="evenodd" d="M8.32 39.04H1.28L1.28 46.08H8.32V39.04ZM1.28 37.76C0.573076 37.76 0 38.3331 0 39.04V46.08C0 46.7869 0.573076 47.36 1.28 47.36H8.32C9.02693 47.36 9.6 46.7869 9.6 46.08V39.04C9.6 38.3331 9.02693 37.76 8.32 37.76H1.28Z" fill="#221F1F"/>
<path fill-rule="evenodd" clip-rule="evenodd" d="M45.44 2.56003H14.72V1.28003H45.44V2.56003Z" fill="#221F1F"/>
<path fill-rule="evenodd" clip-rule="evenodd" d="M45.44 28.16H14.72V26.88H45.44V28.16Z" fill="#221F1F"/>
<path fill-rule="evenodd" clip-rule="evenodd" d="M45.44 40.9601H14.72V39.6801H45.44V40.9601Z" fill="#221F1F"/>
<path fill-rule="evenodd" clip-rule="evenodd" d="M45.44 16H14.72V14.72H45.44V16Z" fill="#221F1F"/>
<path fill-rule="evenodd" clip-rule="evenodd" d="M31.36 5.11998H14.72V4.47998H31.36V5.11998Z" fill="#221F1F"/>
<path fill-rule="evenodd" clip-rule="evenodd" d="M31.36 30.72H14.72V30.08H31.36V30.72Z" fill="#221F1F"/>
<path fill-rule="evenodd" clip-rule="evenodd" d="M31.36 43.52H14.72V42.88H31.36V43.52Z" fill="#221F1F"/>
<path fill-rule="evenodd" clip-rule="evenodd" d="M31.36 18.56H14.72V17.92H31.36V18.56Z" fill="#221F1F"/>
<path fill-rule="evenodd" clip-rule="evenodd" d="M45.44 5.11998H32.64V4.47998H45.44V5.11998Z" fill="#221F1F"/>
<path fill-rule="evenodd" clip-rule="evenodd" d="M45.44 30.72H32.64V30.08H45.44V30.72Z" fill="#221F1F"/>
<path fill-rule="evenodd" clip-rule="evenodd" d="M45.44 43.52H32.64V42.88H45.44V43.52Z" fill="#221F1F"/>
<path fill-rule="evenodd" clip-rule="evenodd" d="M45.44 18.56H32.64V17.92H45.44V18.56Z" fill="#BC1E2C"/>
<path fill-rule="evenodd" clip-rule="evenodd" d="M36.48 7.67998H14.72V7.03998H36.48V7.67998Z" fill="#221F1F"/>
<path fill-rule="evenodd" clip-rule="evenodd" d="M36.48 33.28H14.72V32.64H36.48V33.28Z" fill="#221F1F"/>
<path fill-rule="evenodd" clip-rule="evenodd" d="M36.48 46.0799H14.72V45.4399H36.48V46.0799Z" fill="#221F1F"/>
<path fill-rule="evenodd" clip-rule="evenodd" d="M36.48 21.12H14.72V20.48H36.48V21.12Z" fill="#221F1F"/>
</svg>
