<svg width="55" height="51" viewBox="0 0 55 51" fill="none" xmlns="http://www.w3.org/2000/svg">
<path d="M29.2536 25.7918C29.1177 25.4595 29.2768 25.08 29.6091 24.944L29.6104 24.9435L29.6121 24.9428L29.6168 24.9409L29.6311 24.9353C29.6428 24.9307 29.6589 24.9245 29.6794 24.9168C29.7203 24.9014 29.7786 24.8803 29.8539 24.8547C30.0045 24.8035 30.223 24.7345 30.5062 24.6586C31.0727 24.5069 31.8982 24.3276 32.9569 24.2085C35.0753 23.9702 38.1233 23.9731 41.891 24.9151C45.4959 25.8163 48.387 25.8134 50.3644 25.5909C51.3537 25.4796 52.1153 25.3132 52.624 25.177C52.8784 25.1088 53.0695 25.0483 53.1941 25.0059C53.2564 24.9847 53.3021 24.968 53.3308 24.9573L53.3609 24.9457L53.3653 24.944C53.6974 24.8085 54.0771 24.9674 54.213 25.2995C54.3489 25.6318 54.1898 26.0113 53.8575 26.1473L53.8562 26.1478L53.8545 26.1485L53.8498 26.1504L53.8355 26.156C53.8238 26.1606 53.8077 26.1668 53.7872 26.1745C53.7463 26.1899 53.688 26.211 53.6127 26.2366C53.4621 26.2878 53.2436 26.3568 52.9604 26.4327C52.3939 26.5844 51.5684 26.7637 50.5097 26.8828C48.3913 27.1211 45.3433 27.1182 41.5757 26.1762C37.9707 25.275 35.0796 25.2779 33.1022 25.5004C32.1129 25.6117 31.3513 25.7781 30.8426 25.9143C30.5882 25.9825 30.3971 26.043 30.2725 26.0854C30.2102 26.1066 30.1645 26.1233 30.1358 26.134L30.1057 26.1456L30.1008 26.1475C29.7687 26.283 29.3895 26.1239 29.2536 25.7918Z" fill="#221F1F"/>
<path d="M29.2536 42.0151C29.1177 41.6828 29.2768 41.3033 29.6091 41.1674L29.6104 41.1668L29.6121 41.1662L29.6168 41.1643L29.6311 41.1586C29.6428 41.154 29.6589 41.1478 29.6794 41.1401C29.7203 41.1248 29.7786 41.1036 29.8539 41.078C30.0045 41.0268 30.223 40.9578 30.5062 40.8819C31.0727 40.7302 31.8982 40.551 32.9569 40.4319C35.0753 40.1935 38.1233 40.1965 41.891 41.1384C45.4959 42.0396 48.387 42.0367 50.3644 41.8142C51.3537 41.7029 52.1153 41.5366 52.624 41.4003C52.8784 41.3322 53.0695 41.2716 53.1941 41.2292C53.2564 41.208 53.3021 41.1914 53.3308 41.1806L53.3609 41.1691L53.3653 41.1674C53.6974 41.0318 54.0771 41.1908 54.213 41.5229C54.3489 41.8551 54.1898 42.2347 53.8575 42.3706L53.8562 42.3711L53.8545 42.3718L53.8498 42.3737L53.8355 42.3793C53.8238 42.3839 53.8077 42.3902 53.7872 42.3978C53.7463 42.4132 53.688 42.4344 53.6127 42.46C53.4621 42.5112 53.2436 42.5802 52.9604 42.656C52.3939 42.8078 51.5684 42.987 50.5097 43.1061C48.3913 43.3444 45.3433 43.3415 41.5757 42.3996C37.9707 41.4983 35.0796 41.5013 33.1022 41.7237C32.1129 41.835 31.3513 42.0014 30.8426 42.1377C30.5882 42.2058 30.3971 42.2664 30.2725 42.3088C30.2102 42.33 30.1645 42.3466 30.1358 42.3573L30.1057 42.3689L30.1008 42.3708C29.7687 42.5064 29.3895 42.3472 29.2536 42.0151Z" fill="#221F1F"/>
<path fill-rule="evenodd" clip-rule="evenodd" d="M52.9748 41.9292L52.9748 25.5457L54.2748 25.5457L54.2748 41.9292L52.9748 41.9292Z" fill="#221F1F"/>
<path fill-rule="evenodd" clip-rule="evenodd" d="M28.5998 48.0998L28.5998 23.3998L29.8998 23.3998L29.8998 48.0998L28.5998 48.0998Z" fill="#221F1F"/>
<path fill-rule="evenodd" clip-rule="evenodd" d="M29.2498 23.3998C29.6088 23.3998 29.8998 23.1088 29.8998 22.7498C29.8998 22.3908 29.6088 22.0998 29.2498 22.0998C28.8908 22.0998 28.5998 22.3908 28.5998 22.7498C28.5998 23.1088 28.8908 23.3998 29.2498 23.3998ZM29.2498 24.0498C29.9678 24.0498 30.5498 23.4678 30.5498 22.7498C30.5498 22.0319 29.9678 21.4498 29.2498 21.4498C28.5318 21.4498 27.9498 22.0319 27.9498 22.7498C27.9498 23.4678 28.5318 24.0498 29.2498 24.0498Z" fill="#BC1E2C"/>
<path fill-rule="evenodd" clip-rule="evenodd" d="M31.1998 48.0998H27.2998C26.9408 48.0998 26.6498 48.3908 26.6498 48.7498H31.8498C31.8498 48.3908 31.5588 48.0998 31.1998 48.0998ZM27.2998 47.4498C26.5818 47.4498 25.9998 48.0319 25.9998 48.7498V49.3998H32.4998V48.7498C32.4998 48.0319 31.9178 47.4498 31.1998 47.4498H27.2998Z" fill="#221F1F"/>
<path fill-rule="evenodd" clip-rule="evenodd" d="M32.4998 49.3998H25.9998C25.6408 49.3998 25.3498 49.6908 25.3498 50.0498H33.1498C33.1498 49.6908 32.8588 49.3998 32.4998 49.3998ZM25.9998 48.7498C25.2818 48.7498 24.6998 49.3318 24.6998 50.0498V50.6998H33.7998V50.0498C33.7998 49.3318 33.2178 48.7498 32.4998 48.7498H25.9998Z" fill="#221F1F"/>
<path d="M4.55381 4.34193C4.41789 4.00968 4.57705 3.63014 4.90931 3.49422L4.9106 3.49369L4.91231 3.493L4.91698 3.49112L4.93127 3.48546C4.943 3.48086 4.95912 3.47463 4.97959 3.46696C5.02052 3.45161 5.07883 3.43045 5.15411 3.40484C5.30468 3.35364 5.52319 3.28463 5.80642 3.20876C6.37287 3.05704 7.1984 2.87782 8.25707 2.75872C10.3755 2.52039 13.4235 2.52331 17.1912 3.46523C20.7961 4.36646 23.6872 4.36354 25.6646 4.14108C26.6539 4.02979 27.4155 3.86341 27.9242 3.72715C28.1786 3.65902 28.3697 3.59843 28.4943 3.55604C28.5566 3.53485 28.6023 3.51821 28.631 3.50746L28.6611 3.49592L28.6655 3.49422C28.9976 3.35865 29.3773 3.51762 29.5132 3.84971C29.6491 4.18197 29.49 4.56151 29.1577 4.69743L29.1564 4.69796L29.1547 4.69865L29.15 4.70053L29.1357 4.70619C29.124 4.71079 29.1079 4.71701 29.0874 4.72469C29.0465 4.74004 28.9882 4.7612 28.9129 4.7868C28.7623 4.83801 28.5438 4.90702 28.2606 4.98288C27.6941 5.13461 26.8686 5.31383 25.8099 5.43293C23.6915 5.67126 20.6435 5.66834 16.8759 4.72642C13.2709 3.82519 10.3798 3.82811 8.4024 4.05057C7.41312 4.16186 6.65149 4.32823 6.14278 4.4645C5.88842 4.53263 5.69734 4.59322 5.57272 4.63561C5.5104 4.6568 5.46472 4.67344 5.43605 4.68419L5.40587 4.69573L5.40104 4.69763C5.0689 4.8332 4.68967 4.67403 4.55381 4.34193Z" fill="#BC1E2C"/>
<path d="M4.55381 20.5653C4.41789 20.233 4.57705 19.8535 4.90931 19.7175L4.9106 19.717L4.91231 19.7163L4.91698 19.7144L4.93127 19.7088C4.943 19.7042 4.95912 19.698 4.97959 19.6903C5.02052 19.6749 5.07883 19.6538 5.15411 19.6282C5.30468 19.577 5.52319 19.508 5.80642 19.4321C6.37287 19.2804 7.1984 19.1011 8.25707 18.982C10.3755 18.7437 13.4235 18.7466 17.1912 19.6886C20.7961 20.5898 23.6872 20.5869 25.6646 20.3644C26.6539 20.2531 27.4155 20.0867 27.9242 19.9505C28.1786 19.8823 28.3697 19.8218 28.4943 19.7794C28.5566 19.7582 28.6023 19.7415 28.631 19.7308L28.6611 19.7192L28.6655 19.7175C28.9976 19.582 29.3773 19.7409 29.5132 20.073C29.6491 20.4053 29.49 20.7848 29.1577 20.9208L29.1564 20.9213L29.1547 20.922L29.15 20.9239L29.1357 20.9295C29.124 20.9341 29.1079 20.9403 29.0874 20.948C29.0465 20.9634 28.9882 20.9845 28.9129 21.0101C28.7623 21.0613 28.5438 21.1303 28.2606 21.2062C27.6941 21.3579 26.8686 21.5372 25.8099 21.6563C23.6915 21.8946 20.6435 21.8917 16.8759 20.9497C13.2709 20.0485 10.3798 20.0514 8.4024 20.2739C7.41312 20.3852 6.65149 20.5516 6.14278 20.6878C5.88842 20.756 5.69734 20.8165 5.57272 20.8589C5.5104 20.8801 5.46472 20.8968 5.43605 20.9075L5.40587 20.9191L5.40104 20.921C5.0689 21.0565 4.68967 20.8974 4.55381 20.5653Z" fill="#BC1E2C"/>
<path fill-rule="evenodd" clip-rule="evenodd" d="M28.275 20.4794L28.275 4.09583L29.575 4.09583L29.575 20.4794L28.275 20.4794Z" fill="#BC1E2C"/>
<path fill-rule="evenodd" clip-rule="evenodd" d="M3.90001 26.65L3.90001 1.95001L5.20001 1.95001L5.20001 26.65L3.90001 26.65Z" fill="#BC1E2C"/>
<path fill-rule="evenodd" clip-rule="evenodd" d="M4.55 1.95C4.90899 1.95 5.2 1.65899 5.2 1.3C5.2 0.941015 4.90899 0.65 4.55 0.65C4.19101 0.65 3.9 0.941015 3.9 1.3C3.9 1.65899 4.19101 1.95 4.55 1.95ZM4.55 2.6C5.26797 2.6 5.85 2.01797 5.85 1.3C5.85 0.58203 5.26797 0 4.55 0C3.83203 0 3.25 0.58203 3.25 1.3C3.25 2.01797 3.83203 2.6 4.55 2.6Z" fill="#221F1F"/>
<path fill-rule="evenodd" clip-rule="evenodd" d="M6.49999 26.65H2.59999C2.241 26.65 1.94999 26.941 1.94999 27.3H7.14999C7.14999 26.941 6.85897 26.65 6.49999 26.65ZM2.59999 26C1.88202 26 1.29999 26.582 1.29999 27.3V27.95H7.79999V27.3C7.79999 26.582 7.21796 26 6.49999 26H2.59999Z" fill="#221F1F"/>
<path fill-rule="evenodd" clip-rule="evenodd" d="M7.8 27.95H1.3C0.941015 27.95 0.65 28.241 0.65 28.6H8.45C8.45 28.241 8.15899 27.95 7.8 27.95ZM1.3 27.3C0.58203 27.3 0 27.882 0 28.6V29.25H9.1V28.6C9.1 27.882 8.51797 27.3 7.8 27.3H1.3Z" fill="#221F1F"/>
<path fill-rule="evenodd" clip-rule="evenodd" d="M33.4878 3.42468C33.5375 3.25222 33.7177 3.15276 33.8902 3.20252C42.0564 5.559 48.4122 12.1837 50.3855 20.5058L51.3656 17.4508C51.4204 17.2799 51.6034 17.1858 51.7743 17.2406C51.9452 17.2954 52.0393 17.4784 51.9845 17.6494L50.4729 22.3615L46.2537 18.4381C46.1223 18.3159 46.1148 18.1102 46.237 17.9788C46.3593 17.8473 46.5649 17.8399 46.6964 17.9621L49.7972 20.8456C47.9305 12.6639 41.7141 6.13675 33.7099 3.82704C33.5375 3.77728 33.438 3.59713 33.4878 3.42468ZM4.63059 32.1818L7.96649 34.1709C8.12066 34.2629 8.17111 34.4624 8.07919 34.6165C7.98726 34.7707 7.78776 34.8211 7.6336 34.7292L5.44527 33.4244C7.92934 40.7391 13.9833 46.4056 21.5311 48.3482C21.7049 48.393 21.8095 48.5702 21.7648 48.744C21.72 48.9178 21.5429 49.0225 21.369 48.9777C13.759 47.019 7.62733 41.3804 4.98342 34.0715L4.54587 36.777C4.51722 36.9542 4.35035 37.0746 4.17316 37.0459C3.99597 37.0173 3.87555 36.8504 3.90421 36.6732L4.63059 32.1818Z" fill="#221F1F"/>
</svg>
