<svg width="24" height="24" viewBox="0 0 24 24" fill="none" xmlns="http://www.w3.org/2000/svg">
<mask id="path-1-inside-1" fill="white">
<path fill-rule="evenodd" clip-rule="evenodd" d="M0 6C0 2.68629 2.68629 0 6 0H18C21.3137 0 24 2.68629 24 6V18C24 21.3137 21.3137 24 18 24H6C2.68629 24 0 21.3137 0 18V6ZM19 12C19 15.866 15.866 19 12 19C8.13401 19 5 15.866 5 12C5 8.13401 8.13401 5 12 5C15.866 5 19 8.13401 19 12ZM20 8C21.1046 8 22 7.10457 22 6C22 4.89543 21.1046 4 20 4C18.8954 4 18 4.89543 18 6C18 7.10457 18.8954 8 20 8Z"/>
</mask>
<path fill-rule="evenodd" clip-rule="evenodd" d="M0 6C0 2.68629 2.68629 0 6 0H18C21.3137 0 24 2.68629 24 6V18C24 21.3137 21.3137 24 18 24H6C2.68629 24 0 21.3137 0 18V6ZM19 12C19 15.866 15.866 19 12 19C8.13401 19 5 15.866 5 12C5 8.13401 8.13401 5 12 5C15.866 5 19 8.13401 19 12ZM20 8C21.1046 8 22 7.10457 22 6C22 4.89543 21.1046 4 20 4C18.8954 4 18 4.89543 18 6C18 7.10457 18.8954 8 20 8Z" fill="white"/>
<path d="M6 -1C2.13401 -1 -1 2.13401 -1 6H1C1 3.23858 3.23858 1 6 1V-1ZM18 -1H6V1H18V-1ZM25 6C25 2.13401 21.866 -1 18 -1V1C20.7614 1 23 3.23858 23 6H25ZM25 18V6H23V18H25ZM18 25C21.866 25 25 21.866 25 18H23C23 20.7614 20.7614 23 18 23V25ZM6 25H18V23H6V25ZM-1 18C-1 21.866 2.13401 25 6 25V23C3.23858 23 1 20.7614 1 18H-1ZM-1 6V18H1V6H-1ZM12 20C16.4183 20 20 16.4183 20 12H18C18 15.3137 15.3137 18 12 18V20ZM4 12C4 16.4183 7.58172 20 12 20V18C8.68629 18 6 15.3137 6 12H4ZM12 4C7.58172 4 4 7.58172 4 12H6C6 8.68629 8.68629 6 12 6V4ZM20 12C20 7.58172 16.4183 4 12 4V6C15.3137 6 18 8.68629 18 12H20ZM21 6C21 6.55229 20.5523 7 20 7V9C21.6569 9 23 7.65685 23 6H21ZM20 5C20.5523 5 21 5.44771 21 6H23C23 4.34315 21.6569 3 20 3V5ZM19 6C19 5.44771 19.4477 5 20 5V3C18.3431 3 17 4.34315 17 6H19ZM20 7C19.4477 7 19 6.55229 19 6H17C17 7.65685 18.3431 9 20 9V7Z" fill="white" mask="url(#path-1-inside-1)"/>
</svg>
