<svg width="39" height="45" viewBox="0 0 39 45" fill="none" xmlns="http://www.w3.org/2000/svg">
<path d="M5.62279 37.71L5.07039 23.9H33.9296L33.3772 37.71C33.345 38.5144 32.6835 39.15 31.8784 39.15H7.12159C6.31648 39.15 5.65496 38.5144 5.62279 37.71Z" stroke="#BC1E2C"/>
<path fill-rule="evenodd" clip-rule="evenodd" d="M1.95 8.45001H5.2V9.75001H1.95C1.59101 9.75001 1.3 10.041 1.3 10.4V22.1C1.3 22.459 1.59101 22.75 1.95 22.75H37.05C37.409 22.75 37.7 22.459 37.7 22.1V10.4C37.7 10.041 37.409 9.75001 37.05 9.75001H33.8V8.45001H37.05C38.127 8.45001 39 9.32306 39 10.4V22.1C39 23.177 38.127 24.05 37.05 24.05H1.95C1.78776 24.05 1.63015 24.0302 1.47945 23.9929L2.49575 42.2861C2.51488 42.6305 2.79977 42.9 3.14474 42.9H35.8554C36.2004 42.9 36.4853 42.6305 36.5044 42.2861L37.5207 23.9929C38.1617 23.834 38.6775 23.3581 38.8922 22.7411L37.8024 42.3582C37.745 43.3915 36.8903 44.2 35.8554 44.2H3.14474C2.10981 44.2 1.25515 43.3915 1.19775 42.3582L0.107923 22.7414C0.0379998 22.5405 0 22.3247 0 22.1V10.4C0 9.32306 0.873045 8.45001 1.95 8.45001Z" fill="#221F1F"/>
<path fill-rule="evenodd" clip-rule="evenodd" d="M8.45001 6.5H7.15001C6.07306 6.5 5.20001 7.37305 5.20001 8.45V16.25C5.20001 17.327 6.07306 18.2 7.15001 18.2H31.85C32.927 18.2 33.8 17.327 33.8 16.25V8.45C33.8 7.37304 32.927 6.5 31.85 6.5H30.55V7.15H31.85C32.568 7.15 33.15 7.73203 33.15 8.45V16.25C33.15 16.968 32.568 17.55 31.85 17.55H7.15001C6.43204 17.55 5.85001 16.968 5.85001 16.25V8.45C5.85001 7.73203 6.43204 7.15 7.15001 7.15H8.45001V6.5Z" fill="#221F1F"/>
<path d="M29.25 20.15H30.55V21.45H29.25V20.15Z" fill="#221F1F"/>
<path d="M31.2 20.15H32.5V21.45H31.2V20.15Z" fill="#221F1F"/>
<path d="M33.15 20.15H34.45V21.45H33.15V20.15Z" fill="#BC1E2C"/>
<path fill-rule="evenodd" clip-rule="evenodd" d="M29.9 0.65H9.10001V14.95H29.9V0.65ZM8.45001 0V15.6H30.55V0H8.45001Z" fill="#221F1F"/>
<path fill-rule="evenodd" clip-rule="evenodd" d="M13 2.60001H11.05V4.55001H13V2.60001ZM10.4 1.95001V5.20001H13.65V1.95001H10.4Z" fill="#221F1F"/>
<path fill-rule="evenodd" clip-rule="evenodd" d="M26 2.60001H14.95V1.95001H26V2.60001Z" fill="#221F1F"/>
<path fill-rule="evenodd" clip-rule="evenodd" d="M22.75 7.15H10.4V6.5H22.75V7.15Z" fill="#221F1F"/>
<path fill-rule="evenodd" clip-rule="evenodd" d="M14.95 11.7H10.4V11.05H14.95V11.7Z" fill="#221F1F"/>
<path fill-rule="evenodd" clip-rule="evenodd" d="M20.15 13H10.4V12.35H20.15V13Z" fill="#221F1F"/>
<path fill-rule="evenodd" clip-rule="evenodd" d="M25.35 13H21.45V12.35H25.35V13Z" fill="#221F1F"/>
<path fill-rule="evenodd" clip-rule="evenodd" d="M27.3 11.7H16.25V11.05H27.3V11.7Z" fill="#221F1F"/>
<path fill-rule="evenodd" clip-rule="evenodd" d="M23.4 3.9H14.95V3.25H23.4V3.9Z" fill="#BC1E2C"/>
<path fill-rule="evenodd" clip-rule="evenodd" d="M20.15 8.44999H10.4V7.79999H20.15V8.44999Z" fill="#221F1F"/>
<path fill-rule="evenodd" clip-rule="evenodd" d="M27.95 3.9L24.7 3.9L24.7 3.25L27.95 3.25L27.95 3.9Z" fill="#221F1F"/>
<path fill-rule="evenodd" clip-rule="evenodd" d="M25.35 8.44999L21.45 8.44999L21.45 7.79999L25.35 7.79999L25.35 8.44999Z" fill="#221F1F"/>
<path fill-rule="evenodd" clip-rule="evenodd" d="M28.6 9.74998L25.35 9.74998L25.35 9.09998L28.6 9.09998L28.6 9.74998Z" fill="#221F1F"/>
<path fill-rule="evenodd" clip-rule="evenodd" d="M28.6 14.3L25.35 14.3L25.35 13.65L28.6 13.65L28.6 14.3Z" fill="#221F1F"/>
<path fill-rule="evenodd" clip-rule="evenodd" d="M27.3 7.15L24.05 7.15L24.05 6.5L27.3 6.5L27.3 7.15Z" fill="#221F1F"/>
<path fill-rule="evenodd" clip-rule="evenodd" d="M28.6 8.44999L26.65 8.44999L26.65 7.79999L28.6 7.79999L28.6 8.44999Z" fill="#BC1E2C"/>
<path fill-rule="evenodd" clip-rule="evenodd" d="M28.6 5.19999H14.95V4.54999H28.6V5.19999Z" fill="#221F1F"/>
<path fill-rule="evenodd" clip-rule="evenodd" d="M24.05 9.74998H10.4V9.09998H24.05V9.74998Z" fill="#221F1F"/>
<path fill-rule="evenodd" clip-rule="evenodd" d="M24.05 14.3H10.4V13.65H24.05V14.3Z" fill="#221F1F"/>
<path fill-rule="evenodd" clip-rule="evenodd" d="M21.0788 27.7334H24.2359L24.2361 29.4667H27.3933V25.35H30.55V23.4H8.45001V29.9H11.6072L11.6074 26.4334H14.7641V28.8167H17.9212L17.9214 30.55H21.0786L21.0788 27.7334ZM20.4286 29.9L20.4288 27.0834H24.8859L24.8861 28.8167H26.7433V24.7H29.9V24.05H9.10001V29.25H10.9572L10.9574 25.7834H15.4141V28.1667H18.5712L18.5714 29.9H20.4286Z" fill="#221F1F"/>
<path fill-rule="evenodd" clip-rule="evenodd" d="M10.4 31.85H9.10001V33.15H10.4V31.85ZM8.45001 31.2V33.8H11.05V31.2H8.45001Z" fill="#221F1F"/>
<path fill-rule="evenodd" clip-rule="evenodd" d="M20.15 32.5H18.85V33.8H20.15V32.5ZM18.2 31.85V34.45H20.8V31.85H18.2Z" fill="#221F1F"/>
<path fill-rule="evenodd" clip-rule="evenodd" d="M23.4 29.9H22.1V31.2H23.4V29.9ZM21.45 29.25V31.85H24.05V29.25H21.45Z" fill="#BC1E2C"/>
<path fill-rule="evenodd" clip-rule="evenodd" d="M14.3 29.9H13V31.2H14.3V29.9ZM12.35 29.25V31.85H14.95V29.25H12.35Z" fill="#221F1F"/>
<path fill-rule="evenodd" clip-rule="evenodd" d="M26.65 31.2H25.35V32.5H26.65V31.2ZM24.7 30.55V33.15H27.3V30.55H24.7Z" fill="#221F1F"/>
<path fill-rule="evenodd" clip-rule="evenodd" d="M16.25 33.8H14.95V35.1H16.25V33.8ZM14.3 33.15V35.75H16.9V33.15H14.3Z" fill="#221F1F"/>
<path fill-rule="evenodd" clip-rule="evenodd" d="M29.9 26.65H28.6V27.95H29.9V26.65ZM27.95 26V28.6H30.55V26H27.95Z" fill="#221F1F"/>
</svg>
