<svg width="43" height="51" viewBox="0 0 43 51" fill="none" xmlns="http://www.w3.org/2000/svg">
<mask id="path-1-inside-1" fill="white">
<path fill-rule="evenodd" clip-rule="evenodd" d="M4.55 4.31979C4.95454 3.86145 5.2 3.25939 5.2 2.6C5.2 1.16406 4.03594 0 2.6 0C1.16406 0 0 1.16406 0 2.6V47.45H4.55V4.31979Z"/>
</mask>
<path d="M4.55 4.31979L3.05052 2.99632L2.55 3.56341V4.31979H4.55ZM0 47.45H-2V49.45H0V47.45ZM4.55 47.45V49.45H6.55V47.45H4.55ZM3.2 2.6C3.2 2.75353 3.14494 2.88934 3.05052 2.99632L6.04948 5.64325C6.76413 4.83356 7.2 3.76525 7.2 2.6H3.2ZM2.6 2C2.93137 2 3.2 2.26863 3.2 2.6H7.2C7.2 0.0594901 5.14051 -2 2.6 -2V2ZM2 2.6C2 2.26863 2.26863 2 2.6 2V-2C0.0594901 -2 -2 0.0594901 -2 2.6H2ZM2 47.45V2.6H-2V47.45H2ZM4.55 45.45H0V49.45H4.55V45.45ZM2.55 4.31979V47.45H6.55V4.31979H2.55Z" fill="#221F1F" mask="url(#path-1-inside-1)"/>
<path d="M5.525 46.8C5.525 48.236 4.36094 49.4 2.925 49.4C1.48906 49.4 0.325 48.236 0.325 46.8C0.325 45.3641 1.48906 44.2 2.925 44.2C4.36094 44.2 5.525 45.3641 5.525 46.8Z" fill="white"/>
<path fill-rule="evenodd" clip-rule="evenodd" d="M37.7 45.825V4.875H38.35V45.825C38.35 48.1584 36.4584 50.05 34.125 50.05H2.925V49.4H34.125C36.0994 49.4 37.7 47.7994 37.7 45.825Z" fill="#221F1F"/>
<path fill-rule="evenodd" clip-rule="evenodd" d="M2.925 44.85C1.66855 44.85 0.65 45.8686 0.65 47.125C0.65 48.3815 1.66855 49.4 2.925 49.4V50.05C1.30957 50.05 0 48.7404 0 47.125C0 45.5096 1.30957 44.2 2.925 44.2V44.85Z" fill="#221F1F"/>
<path d="M39.325 11.05H40.625C41.343 11.05 41.925 11.632 41.925 12.35V18.0465C41.925 18.5389 41.6468 18.9891 41.2064 19.2093L39.325 20.15V11.05Z" fill="white"/>
<path fill-rule="evenodd" clip-rule="evenodd" d="M40.625 11.7H39.975V19.0983L40.9157 18.6279C41.1359 18.5178 41.275 18.2927 41.275 18.0465V12.35C41.275 11.991 40.984 11.7 40.625 11.7ZM41.2064 19.2093C41.6468 18.9891 41.925 18.5389 41.925 18.0465V12.35C41.925 11.632 41.343 11.05 40.625 11.05H39.325V20.15L41.2064 19.2093Z" fill="#221F1F"/>
<path d="M39.975 5.20001H41.275C41.993 5.20001 42.575 5.78204 42.575 6.50001V12.1966C42.575 12.689 42.2968 13.1391 41.8564 13.3593L39.975 14.3V5.20001Z" fill="white"/>
<path fill-rule="evenodd" clip-rule="evenodd" d="M41.275 5.85001H40.625V13.2483L41.5657 12.7779C41.7859 12.6678 41.925 12.4428 41.925 12.1966V6.50001C41.925 6.14103 41.634 5.85001 41.275 5.85001ZM41.8564 13.3593C42.2968 13.1391 42.575 12.689 42.575 12.1966V6.50001C42.575 5.78204 41.993 5.20001 41.275 5.20001H39.975V14.3L41.8564 13.3593Z" fill="#BC1E2C"/>
<path d="M2.925 0H36.725C38.8789 0 40.625 1.74609 40.625 3.9V40.95C40.625 43.1039 38.8789 44.85 36.725 44.85H2.925V0Z" fill="white"/>
<path fill-rule="evenodd" clip-rule="evenodd" d="M36.725 1.3H4.225V43.55H36.725C38.1609 43.55 39.325 42.3859 39.325 40.95V3.9C39.325 2.46406 38.1609 1.3 36.725 1.3ZM2.925 0V44.85H36.725C38.8789 44.85 40.625 43.1039 40.625 40.95V3.9C40.625 1.74609 38.8789 0 36.725 0H2.925Z" fill="#221F1F"/>
<path fill-rule="evenodd" clip-rule="evenodd" d="M35.425 46.8H4.225V46.15H35.425V46.8Z" fill="#221F1F"/>
<path fill-rule="evenodd" clip-rule="evenodd" d="M34.125 48.1H2.925V47.45H34.125V48.1Z" fill="#221F1F"/>
<path fill-rule="evenodd" clip-rule="evenodd" d="M18.2615 19.0432C18.2615 20.2269 17.3019 21.1865 16.1182 21.1865C14.9345 21.1865 13.975 20.2269 13.975 19.0432C13.975 17.8596 14.9345 16.9 16.1182 16.9C17.3019 16.9 18.2615 17.8596 18.2615 19.0432ZM16.6824 21.7795C17.9546 21.5186 18.9115 20.3927 18.9115 19.0432C18.9115 17.5006 17.6609 16.25 16.1182 16.25C14.5756 16.25 13.325 17.5006 13.325 19.0432C13.325 20.4453 14.358 21.6061 15.7045 21.8061C13.598 22.0238 11.9312 23.3676 11.0799 25.2139C11.0048 25.3769 11.076 25.57 11.239 25.6451C11.402 25.7203 11.5951 25.6491 11.6702 25.4861C12.5078 23.6695 14.2011 22.425 16.3115 22.425C17.3868 22.425 18.082 22.5231 18.8708 23.0243C19.0223 23.1206 19.2231 23.0758 19.3194 22.9243C19.4157 22.7728 19.3709 22.5719 19.2194 22.4757C18.3846 21.9453 17.6285 21.8045 16.6824 21.7795Z" fill="#221F1F"/>
<path fill-rule="evenodd" clip-rule="evenodd" d="M25.0918 19.0432C25.0918 20.2269 26.0513 21.1865 27.235 21.1865C28.4187 21.1865 29.3782 20.2269 29.3782 19.0432C29.3782 17.8596 28.4187 16.9 27.235 16.9C26.0513 16.9 25.0918 17.8596 25.0918 19.0432ZM26.6697 21.7793C25.398 21.5179 24.4418 20.3922 24.4418 19.0432C24.4418 17.5006 25.6923 16.25 27.235 16.25C28.7777 16.25 30.0282 17.5006 30.0282 19.0432C30.0282 20.4453 28.9952 21.6061 27.6488 21.8061C29.7552 22.0238 31.422 23.3676 32.2733 25.2139C32.3484 25.3769 32.2772 25.57 32.1142 25.6451C31.9512 25.7203 31.7582 25.6491 31.683 25.4861C30.8454 23.6695 29.1521 22.425 27.0417 22.425C25.951 22.425 25.0059 22.5276 24.2242 23.0243C24.0727 23.1206 23.8719 23.0758 23.7756 22.9243C23.6793 22.7728 23.7241 22.5719 23.8756 22.4757C24.7178 21.9406 25.6856 21.8033 26.6697 21.7793Z" fill="#221F1F"/>
<path fill-rule="evenodd" clip-rule="evenodd" d="M22.6471 20.0074C22.6471 20.6466 22.1289 21.1648 21.4897 21.1648C20.8505 21.1648 20.3323 20.6466 20.3323 20.0074C20.3323 19.3682 20.8505 18.85 21.4897 18.85C22.1289 18.85 22.6471 19.3682 22.6471 20.0074ZM22.3037 21.6216C22.893 21.3238 23.2971 20.7128 23.2971 20.0074C23.2971 19.0092 22.4879 18.2 21.4897 18.2C20.4915 18.2 19.6823 19.0092 19.6823 20.0074C19.6823 20.7128 20.0864 21.3238 20.6758 21.6216C18.8905 21.9966 17.55 23.5804 17.55 25.4772C17.55 26.1013 17.6954 26.6924 17.9543 27.2176L18.5373 26.9301C18.3214 26.4923 18.2 25.9994 18.2 25.4772C18.2 23.6603 19.6729 22.1874 21.4898 22.1874C23.3067 22.1874 24.7796 23.6603 24.7796 25.4772C24.7796 26.0236 24.6466 26.538 24.4116 26.9907L24.9884 27.2902C25.2704 26.7472 25.4296 26.1303 25.4296 25.4772C25.4296 23.5803 24.0891 21.9966 22.3037 21.6216Z" fill="#BC1E2C"/>
<path fill-rule="evenodd" clip-rule="evenodd" d="M11.072 25.2329C11.1367 25.0655 11.3249 24.9823 11.4923 25.047C14.2692 26.1207 17.8005 26.9735 21.4501 26.9735C25.1689 26.9735 28.9336 26.1533 31.7306 25.0479C31.8976 24.9819 32.0864 25.0637 32.1523 25.2307C32.2183 25.3976 32.1365 25.5864 31.9695 25.6524C29.1005 26.7863 25.2549 27.6235 21.4501 27.6235C17.7046 27.6235 14.0934 26.7496 11.2579 25.6532C11.0905 25.5885 11.0072 25.4003 11.072 25.2329Z" fill="#221F1F"/>
</svg>
