<svg width="46" height="51" viewBox="0 0 46 51" fill="none" xmlns="http://www.w3.org/2000/svg">
<path fill-rule="evenodd" clip-rule="evenodd" d="M22.75 3.90001C10.9035 3.90001 1.3 13.5035 1.3 25.35C1.3 25.709 1.00899 26 0.65 26C0.291015 26 0 25.709 0 25.35C0 12.7855 10.1855 2.60001 22.75 2.60001C35.3145 2.60001 45.5 12.7855 45.5 25.35C45.5 25.709 45.209 26 44.85 26C44.491 26 44.2 25.709 44.2 25.35C44.2 13.5035 34.5965 3.90001 22.75 3.90001Z" fill="#221F1F"/>
<path fill-rule="evenodd" clip-rule="evenodd" d="M15.2254 9.68138C13.254 13.5082 12.025 18.8176 12.025 24.7C12.025 24.8795 11.8795 25.025 11.7 25.025C11.5205 25.025 11.375 24.8795 11.375 24.7C11.375 18.7358 12.6197 13.3202 14.6476 9.38371C16.6668 5.46399 19.5143 2.92499 22.75 2.92499C25.9857 2.92499 28.8332 5.46399 30.8524 9.38371C32.8803 13.3202 34.125 18.7358 34.125 24.7C34.125 24.8795 33.9795 25.025 33.8 25.025C33.6205 25.025 33.475 24.8795 33.475 24.7C33.475 18.8176 32.246 13.5082 30.2746 9.68138C28.2946 5.83774 25.617 3.57499 22.75 3.57499C19.883 3.57499 17.2054 5.83774 15.2254 9.68138Z" fill="#221F1F"/>
<path fill-rule="evenodd" clip-rule="evenodd" d="M6.175 20.15C3.48261 20.15 1.3 22.3326 1.3 25.025H0C0 21.6146 2.76464 18.85 6.175 18.85C9.58536 18.85 12.35 21.6146 12.35 25.025H11.05C11.05 22.3326 8.86739 20.15 6.175 20.15Z" fill="#221F1F"/>
<path fill-rule="evenodd" clip-rule="evenodd" d="M17.225 20.15C14.5671 20.15 12.35 22.4426 12.35 25.35H11.05C11.05 21.7957 13.7801 18.85 17.225 18.85C20.6699 18.85 23.4 21.7957 23.4 25.35H22.1C22.1 22.4426 19.8829 20.15 17.225 20.15Z" fill="#221F1F"/>
<path fill-rule="evenodd" clip-rule="evenodd" d="M28.275 20.15C25.6171 20.15 23.4 22.4426 23.4 25.35H22.1C22.1 21.7957 24.8301 18.85 28.275 18.85C31.7198 18.85 34.45 21.7957 34.45 25.35H33.15C33.15 22.4426 30.9329 20.15 28.275 20.15Z" fill="#221F1F"/>
<path fill-rule="evenodd" clip-rule="evenodd" d="M39.325 20.15C36.6326 20.15 34.45 22.3326 34.45 25.025H33.15C33.15 21.6146 35.9147 18.85 39.325 18.85C42.7354 18.85 45.5 21.6146 45.5 25.025H44.2C44.2 22.3326 42.0174 20.15 39.325 20.15Z" fill="#221F1F"/>
<path fill-rule="evenodd" clip-rule="evenodd" d="M22.425 36.4L22.425 2.60001L23.075 2.60001L23.075 36.4L22.425 36.4Z" fill="#221F1F"/>
<path fill-rule="evenodd" clip-rule="evenodd" d="M23.4 2.6V1.3C23.4 0.941015 23.109 0.65 22.75 0.65C22.391 0.65 22.1 0.941015 22.1 1.3V2.6H23.4ZM22.75 0C22.032 0 21.45 0.58203 21.45 1.3V3.25H24.05V1.3C24.05 0.58203 23.468 0 22.75 0Z" fill="#221F1F"/>
<path fill-rule="evenodd" clip-rule="evenodd" d="M23.4 37.7C23.4 37.341 23.109 37.05 22.75 37.05C22.391 37.05 22.1 37.341 22.1 37.7V43.7211C22.1 45.9845 20.6108 47.45 19.175 47.45C17.7393 47.45 16.25 45.9845 16.25 43.7211C16.25 43.3621 15.959 43.0711 15.6 43.0711C15.241 43.0711 14.95 43.3621 14.95 43.7211C14.95 46.3946 16.7453 48.75 19.175 48.75C21.6048 48.75 23.4 46.3946 23.4 43.7211V37.7ZM24.7 37.7C24.7 36.623 23.827 35.75 22.75 35.75C21.6731 35.75 20.8 36.623 20.8 37.7V43.7211C20.8 45.4509 19.7214 46.15 19.175 46.15C18.6287 46.15 17.55 45.4509 17.55 43.7211C17.55 42.6441 16.677 41.7711 15.6 41.7711C14.5231 41.7711 13.65 42.6441 13.65 43.7211C13.65 46.828 15.7725 50.05 19.175 50.05C22.5775 50.05 24.7 46.828 24.7 43.7211V37.7Z" fill="#BC1E2C"/>
</svg>
