<svg width="48" height="45" viewBox="0 0 48 45" fill="none" xmlns="http://www.w3.org/2000/svg">
<path fill-rule="evenodd" clip-rule="evenodd" d="M46.15 38.4014H33.8V43.6014H46.15V38.4014ZM32.5 37.1014V44.9014H47.45V37.1014H32.5Z" fill="#221F1F"/>
<path fill-rule="evenodd" clip-rule="evenodd" d="M21.45 29.3014H9.09999V34.5014H21.45V29.3014ZM7.79999 28.0014V35.8014H22.75V28.0014H7.79999Z" fill="#221F1F"/>
<path fill-rule="evenodd" clip-rule="evenodd" d="M37.7 29.3014H25.35V34.5014H37.7V29.3014ZM24.05 28.0014V35.8014H39V28.0014H24.05Z" fill="#BC1E2C"/>
<path fill-rule="evenodd" clip-rule="evenodd" d="M13.65 38.4014H1.3V43.6014H13.65V38.4014ZM0 37.1014V44.9014H14.95V37.1014H0Z" fill="#221F1F"/>
<path fill-rule="evenodd" clip-rule="evenodd" d="M29.9 20.2014H17.55V25.4014H29.9V20.2014ZM16.25 18.9014V26.7014H31.2V18.9014H16.25Z" fill="#221F1F"/>
<path fill-rule="evenodd" clip-rule="evenodd" d="M29.9 38.4014H17.55V43.6014H29.9V38.4014ZM16.25 37.1014V44.9014H31.2V37.1014H16.25Z" fill="#221F1F"/>
<path fill-rule="evenodd" clip-rule="evenodd" d="M47.45 39.7014H39V39.0514H47.45V39.7014Z" fill="#221F1F"/>
<path fill-rule="evenodd" clip-rule="evenodd" d="M22.75 33.8514H14.3V33.2014H22.75V33.8514Z" fill="#221F1F"/>
<path fill-rule="evenodd" clip-rule="evenodd" d="M8.45 39.7014H0V39.0514H8.45V39.7014Z" fill="#221F1F"/>
<path fill-rule="evenodd" clip-rule="evenodd" d="M31.2 21.5014H22.75V20.8514H31.2V21.5014Z" fill="#221F1F"/>
<path fill-rule="evenodd" clip-rule="evenodd" d="M36.4 10.4514L30.55 10.4514L30.55 9.80141L36.4 9.80142L36.4 10.4514Z" fill="#221F1F"/>
<path fill-rule="evenodd" clip-rule="evenodd" d="M38.1551 7.85142L35.5551 7.85142L35.5551 7.20142L38.1551 7.20142L38.1551 7.85142Z" fill="#221F1F"/>
<path fill-rule="evenodd" clip-rule="evenodd" d="M31.2 42.9514H22.75V42.3014H31.2V42.9514Z" fill="#221F1F"/>
<path fill-rule="evenodd" clip-rule="evenodd" d="M35.75 17.6014H33.8C33.441 17.6014 33.15 17.8924 33.15 18.2514V26.0514C33.15 26.4104 33.441 26.7014 33.8 26.7014H35.75C36.109 26.7014 36.4 26.4104 36.4 26.0514V18.2514C36.4 17.8924 36.109 17.6014 35.75 17.6014ZM33.8 16.9514C33.082 16.9514 32.5 17.5334 32.5 18.2514V26.0514C32.5 26.7694 33.082 27.3514 33.8 27.3514H35.75C36.468 27.3514 37.05 26.7694 37.05 26.0514V18.2514C37.05 17.5334 36.468 16.9514 35.75 16.9514H33.8Z" fill="#221F1F"/>
<path fill-rule="evenodd" clip-rule="evenodd" d="M35.3869 1.08043L40.0127 13.9695C40.1647 14.3929 39.8508 14.839 39.4009 14.839H35.7496V15.489H39.4009C40.3007 15.489 40.9284 14.5969 40.6245 13.7499L35.9987 0.860863C35.5867 -0.286955 33.9635 -0.286954 33.5515 0.860864L28.9257 13.7499C28.6218 14.5969 29.2495 15.489 30.1493 15.489H33.7996V14.839H30.1493C29.6994 14.839 29.3855 14.3929 29.5375 13.9695L34.1633 1.08043C34.3693 0.506521 35.1809 0.506524 35.3869 1.08043Z" fill="#221F1F"/>
<path fill-rule="evenodd" clip-rule="evenodd" d="M35.1 13.0514H34.45V16.9514H35.1V13.0514ZM33.8 12.4014V17.6014H35.75V12.4014H33.8Z" fill="#221F1F"/>
</svg>
