<svg width="24" height="24" viewBox="0 0 24 24" fill="none" xmlns="http://www.w3.org/2000/svg">
<g clip-path="url(#clip0)">
<path d="M23.5 23.499H23.494V23.5H19.529V16.199C19.529 15.2913 19.5259 14.1295 19.1562 13.1962C18.9657 12.7152 18.6693 12.2695 18.2077 11.9475C17.745 11.6247 17.1591 11.456 16.442 11.456C15.7303 11.456 15.1329 11.5952 14.6423 11.8668C14.1488 12.1401 13.7932 12.531 13.5425 12.9857C13.0542 13.8715 12.959 15.0113 12.959 16.065V23.499H8.98901V8.47598H12.762V10.161V10.661H13.262H13.332H13.6338L13.7744 10.394C14.3549 9.29167 15.8129 8.07397 18.039 8.07397C20.4326 8.07397 21.7378 8.85171 22.4841 10.0371C23.2639 11.2756 23.5 13.0549 23.5 15.197V23.499Z" stroke="#BC1E2C"/>
<path d="M0.895996 8.47705H4.872V23.5H0.895996V8.47705Z" stroke="#BC1E2C"/>
<path d="M0.5 2.882C0.5 1.56714 1.56714 0.5 2.882 0.5C4.19568 0.5 5.26317 1.56704 5.264 2.88231C5.26383 4.20311 4.19071 5.291 2.882 5.291C1.57318 5.291 0.5 4.20294 0.5 2.882Z" stroke="#BC1E2C"/>
</g>
<defs>
<clipPath id="clip0">
<rect width="24" height="24" fill="white"/>
</clipPath>
</defs>
</svg>
