<svg width="32" height="51" viewBox="0 0 32 51" fill="none" xmlns="http://www.w3.org/2000/svg">
<path fill-rule="evenodd" clip-rule="evenodd" d="M28.2531 3.38476L28.2495 3.38158C27.5193 2.72694 26.6442 2.2016 25.6715 1.84197C24.6988 1.48231 23.6521 1.29723 22.5928 1.30003L22.5894 1.30004C20.5083 1.30004 18.4133 2.68437 16.8918 4.05327L16.8899 4.05504L15.9198 4.9243L14.9397 4.0461C13.4164 2.68111 11.3297 1.30642 9.26436 1.30642H9.26361C7.65751 1.3055 6.09707 1.73256 4.78126 2.5207C3.46636 3.30831 2.46526 4.41389 1.88177 5.6798C1.29948 6.94311 1.15196 8.32304 1.44979 9.65185C1.74695 10.9777 2.47992 12.2167 3.58222 13.2033L15.9297 23.6467L28.2992 13.1663C29.0241 12.5105 29.5903 11.7415 29.9733 10.9068C30.3585 10.0674 30.5529 9.17408 30.55 8.27649C30.5471 7.37888 30.347 6.48641 29.9563 5.64874C29.5653 4.81053 28.9892 4.03975 28.2531 3.38476ZM29.1551 14.145L15.9304 25.35L2.72932 14.1846C1.42918 13.0258 0.542341 11.5472 0.181262 9.93617C-0.179817 8.32517 0.00112564 6.65436 0.701146 5.13562C1.40117 3.61689 2.58873 2.31862 4.11326 1.40546C5.63778 0.492298 7.43059 0.00536943 9.26436 0.00641758C11.8396 0.00641758 14.2404 1.67395 15.8072 3.07792L15.9198 3.17875L16.0223 3.08686C17.5884 1.67778 19.9977 3.58999e-05 22.5894 3.58999e-05C23.8013 -0.00317039 25.002 0.208423 26.1223 0.622639C27.2427 1.03686 28.2605 1.64551 29.1173 2.41359C29.9801 3.18133 30.6655 4.09394 31.1344 5.09922C31.6033 6.10451 31.8465 7.18275 31.85 8.2723C31.8535 9.36185 31.6173 10.4413 31.1548 11.449C30.6924 12.4567 30.0129 13.3729 29.1551 14.145Z" fill="#221F1F"/>
<path fill-rule="evenodd" clip-rule="evenodd" d="M6.5 37.7L8.385 50.7H23.465L25.35 37.7H6.5ZM8.0021 39L9.5101 49.4H22.3399L23.8479 39H8.0021Z" fill="#221F1F"/>
<path fill-rule="evenodd" clip-rule="evenodd" d="M6.50001 36.4V37.7H25.35V36.4H6.50001ZM5.85001 35.1C5.49103 35.1 5.20001 35.391 5.20001 35.75V38.35C5.20001 38.709 5.49103 39 5.85001 39H26C26.359 39 26.65 38.709 26.65 38.35V35.75C26.65 35.391 26.359 35.1 26 35.1H5.85001Z" fill="#221F1F"/>
<path fill-rule="evenodd" clip-rule="evenodd" d="M15.6 35.75L15.6 24.05L16.25 24.05L16.25 35.75L15.6 35.75Z" fill="#221F1F"/>
<path fill-rule="evenodd" clip-rule="evenodd" d="M20.3304 31.0025C21.2279 32.5569 23.2156 33.0895 24.77 32.1921C25.604 31.7106 27.0131 30.4275 28.0833 29.0187C28.6149 28.3189 29.0332 27.6261 29.2564 27.0241C29.488 26.3998 29.4599 26.0152 29.3371 25.8025C29.2143 25.5897 28.8952 25.3731 28.2389 25.2615C27.6058 25.1539 26.7967 25.1697 25.9249 25.2802C24.1697 25.5026 22.354 26.0814 21.52 26.5629C19.9656 27.4604 19.433 29.448 20.3304 31.0025ZM19.7675 31.3275C20.8445 33.1928 23.2297 33.8319 25.095 32.755C26.9604 31.678 30.977 27.3428 29.9 25.4775C28.8231 23.6121 23.0604 24.923 21.195 26C19.3297 27.0769 18.6906 29.4621 19.7675 31.3275Z" fill="#221F1F"/>
<path fill-rule="evenodd" clip-rule="evenodd" d="M11.5196 28.4024C12.417 26.8479 11.8844 24.8603 10.33 23.9628C9.49604 23.4813 7.68026 22.9025 5.92514 22.6801C5.05329 22.5696 4.24419 22.5538 3.61116 22.6614C2.95482 22.7731 2.63576 22.9896 2.51292 23.2024C2.39007 23.4152 2.36206 23.7997 2.59356 24.424C2.81685 25.026 3.23512 25.7188 3.76673 26.4186C4.83691 27.8274 6.24604 29.1105 7.08 29.592C8.63445 30.4894 10.6221 29.9568 11.5196 28.4024ZM12.0825 28.7274C13.1595 26.862 12.5203 24.4768 10.655 23.3999C8.78966 22.3229 3.02696 21.012 1.95 22.8774C0.873045 24.7427 4.88966 29.0779 6.755 30.1549C8.62034 31.2318 11.0055 30.5927 12.0825 28.7274Z" fill="#221F1F"/>
<path fill-rule="evenodd" clip-rule="evenodd" d="M15.6791 33.3209L20.1824 30.7209L20.5074 31.2838L16.0041 33.8838L15.6791 33.3209Z" fill="#221F1F"/>
<path fill-rule="evenodd" clip-rule="evenodd" d="M15.8599 31.284L11.3566 28.684L11.6816 28.1211L16.1849 30.7211L15.8599 31.284Z" fill="#221F1F"/>
<path fill-rule="evenodd" clip-rule="evenodd" d="M14.3 10.725H10.725V13.975H14.3V17.55H17.55V13.975H21.125V10.725H17.55V7.15002H14.3V10.725ZM14.95 7.80002V11.375H11.375V13.325H14.95V16.9H16.9V13.325H20.475V11.375H16.9V7.80002H14.95Z" fill="#BC1E2C"/>
</svg>
