<svg width="51" height="51" viewBox="0 0 51 51" fill="none" xmlns="http://www.w3.org/2000/svg">
<path fill-rule="evenodd" clip-rule="evenodd" d="M26.65 1.95V5.85H26H24.7H24.05V1.95C24.05 1.23203 24.632 0.65 25.35 0.65C26.068 0.65 26.65 1.23203 26.65 1.95ZM24.05 6.5H23.4V5.85V1.95C23.4 0.873045 24.273 0 25.35 0C26.427 0 27.3 0.873045 27.3 1.95V5.85V6.5H26.65V8.49926C26.4344 8.48286 26.2177 8.4705 26 8.46227V6.5H24.7V8.46227C24.4823 8.4705 24.2656 8.48286 24.05 8.49926V6.5ZM14.3544 12.5158L12.9406 11.1019L12.9404 11.1017L12.9404 11.1017L13.4001 10.642L12.9404 10.1824L10.1827 7.42471C9.4212 6.66318 8.18652 6.66318 7.425 7.42471C6.66348 8.18623 6.66348 9.4209 7.425 10.1824L10.1827 12.9401L10.6423 13.3998L11.1019 12.9402L11.1021 12.9404L12.5159 14.3542C12.6573 14.1894 12.8017 14.0274 12.9492 13.8682L11.5617 12.4808L12.481 11.5615L13.8684 12.949C14.0276 12.8015 14.1896 12.6571 14.3544 12.5158ZM18.0096 17.0902C18.1721 16.9457 18.3389 16.8059 18.5098 16.6711L23.1855 21.3468C22.9896 21.453 22.8024 21.5731 22.6252 21.7058L18.0096 17.0902ZM17.0904 18.0094C16.9459 18.1719 16.8061 18.3387 16.6713 18.5095L21.347 23.1852C21.4531 22.9894 21.5732 22.8022 21.7059 22.625L17.0904 18.0094ZM20.9884 24.05H14.3757C14.3505 24.2648 14.3315 24.4816 14.3188 24.7H20.8461C20.8779 24.4777 20.9257 24.2607 20.9884 24.05ZM20.8461 26H14.3188C14.3315 26.2184 14.3505 26.4352 14.3757 26.65H20.9884C20.9257 26.4393 20.8779 26.2223 20.8461 26ZM21.3469 27.5147L16.6712 32.1904C16.8061 32.3613 16.9458 32.528 17.0904 32.6905L21.7059 28.075C21.5732 27.8978 21.4531 27.7106 21.3469 27.5147ZM22.6252 28.9942L18.0096 33.6098C18.1721 33.7543 18.3389 33.894 18.5097 34.0289L23.1855 29.3531C22.9896 29.247 22.8024 29.1269 22.6252 28.9942ZM24.05 29.7116V36.3243C24.2648 36.3495 24.4816 36.3685 24.7 36.3812V29.8539C24.4778 29.8221 24.2607 29.7743 24.05 29.7116ZM26 29.8539V36.3812C26.2184 36.3685 26.4352 36.3495 26.65 36.3243V29.7116C26.4393 29.7743 26.2223 29.8221 26 29.8539ZM27.5145 29.3532L32.1903 34.0289C32.3611 33.8941 32.5279 33.7543 32.6904 33.6098L28.0748 28.9942C27.8976 29.127 27.7104 29.247 27.5145 29.3532ZM28.9941 28.075L33.6096 32.6906C33.7541 32.5281 33.8939 32.3613 34.0287 32.1905L29.353 27.5148C29.2469 27.7106 29.1268 27.8978 28.9941 28.075ZM29.7116 26.65H36.3243C36.3495 26.4352 36.3685 26.2184 36.3812 26H29.8539C29.8221 26.2223 29.7743 26.4393 29.7116 26.65ZM29.8539 24.7H36.3812C36.3685 24.4816 36.3495 24.2648 36.3243 24.05H29.7116C29.7743 24.2607 29.8221 24.4777 29.8539 24.7ZM29.3531 23.1853L34.0288 18.5096C33.8939 18.3387 33.7542 18.172 33.6096 18.0095L28.9941 22.625C29.1268 22.8022 29.2469 22.9894 29.3531 23.1853ZM28.0748 21.7058L32.6904 17.0902C32.5279 16.9457 32.3611 16.806 32.1903 16.6711L27.5145 21.3469C27.7104 21.453 27.8976 21.5731 28.0748 21.7058ZM26.65 20.9884V14.3757C26.4352 14.3505 26.2184 14.3315 26 14.3188V20.8461C26.2223 20.8779 26.4393 20.9257 26.65 20.9884ZM24.7 20.8461V14.3188C24.4816 14.3315 24.2648 14.3505 24.05 14.3757V20.9884C24.2607 20.9257 24.4777 20.8779 24.7 20.8461ZM36.3456 12.5158C36.5104 12.6571 36.6724 12.8015 36.8316 12.949L38.2192 11.5614L39.1385 12.4806L37.7509 13.8682C37.8983 14.0274 38.0428 14.1895 38.1841 14.3543L39.5981 12.9403L40.0577 12.4806L39.5981 12.021L38.6789 11.1018L38.2192 10.6422L37.7596 11.1018L36.3456 12.5158ZM42.2007 24.05C42.2171 24.2656 42.2295 24.4823 42.2377 24.7H44.2V26H42.2377C42.2295 26.2177 42.2171 26.4344 42.2007 26.65H44.2V27.3H44.85H48.75C49.827 27.3 50.7 26.427 50.7 25.35C50.7 24.273 49.827 23.4 48.75 23.4H44.85H44.2V24.05H42.2007ZM38.1841 36.3458C38.0427 36.5106 37.8983 36.6726 37.7508 36.8318L39.1383 38.2192L38.219 39.1385L36.8316 37.751C36.6724 37.8985 36.5104 38.0429 36.3456 38.1842L37.7594 39.5981L37.7596 39.5983L37.7596 39.5983L37.2999 40.058L37.7596 40.5176L40.5173 43.2753C41.2788 44.0368 42.5135 44.0368 43.275 43.2753C44.0365 42.5138 44.0365 41.2791 43.275 40.5176L40.5173 37.7599L40.0577 37.3002L39.5981 37.7598L39.5979 37.7596L38.1841 36.3458ZM26.65 42.2007C26.4344 42.2171 26.2177 42.2295 26 42.2377V44.2H24.7V42.2377C24.4823 42.2295 24.2656 42.2171 24.05 42.2007V44.2H23.4V44.85V48.75C23.4 49.827 24.273 50.7 25.35 50.7C26.427 50.7 27.3 49.827 27.3 48.75V44.85V44.2H26.65V42.2007ZM14.3544 38.1842C14.1896 38.0429 14.0276 37.8985 13.8684 37.751L12.4808 39.1386L11.5615 38.2194L12.9491 36.8318C12.8017 36.6726 12.6572 36.5105 12.5159 36.3457L11.1019 37.7597L11.1019 37.7598L11.1017 37.7596L10.642 37.2999L10.1824 37.7596L7.42471 40.5173C6.66318 41.2788 6.66318 42.5135 7.42471 43.275C8.18623 44.0365 9.4209 44.0365 10.1824 43.275L12.9401 40.5173L13.3998 40.0577L12.9403 39.5983L12.9404 39.5982L14.3544 38.1842ZM8.49926 26.65C8.48286 26.4344 8.4705 26.2177 8.46227 26H6.5V24.7H8.46227C8.4705 24.4823 8.48286 24.2656 8.49926 24.05H6.5V23.4H5.85H1.95C0.873045 23.4 0 24.273 0 25.35C0 26.427 0.873045 27.3 1.95 27.3H5.85H6.5V26.65H8.49926ZM44.85 26.65H48.75C49.468 26.65 50.05 26.068 50.05 25.35C50.05 24.632 49.468 24.05 48.75 24.05H44.85V24.7V26V26.65ZM24.05 44.85V48.75C24.05 49.468 24.632 50.05 25.35 50.05C26.068 50.05 26.65 49.468 26.65 48.75V44.85H26H24.7H24.05ZM5.85 24.05H1.95C1.23203 24.05 0.65 24.632 0.65 25.35C0.65 26.068 1.23203 26.65 1.95 26.65H5.85V26V24.7V24.05ZM9.7231 7.88433L12.4808 10.642L10.6423 12.4805L7.88462 9.7228C7.37694 9.21512 7.37694 8.39201 7.88462 7.88433C8.3923 7.37664 9.21542 7.37664 9.7231 7.88433ZM7.88433 40.9769L10.642 38.2192L12.4805 40.0577L9.7228 42.8154C9.21512 43.3231 8.39201 43.3231 7.88433 42.8154C7.37664 42.3077 7.37664 41.4846 7.88433 40.9769ZM42.8154 42.8157C42.3077 43.3234 41.4846 43.3234 40.9769 42.8157L38.2192 40.058L40.0577 38.2195L42.8154 40.9772C43.3231 41.4849 43.3231 42.308 42.8154 42.8157Z" fill="#221F1F"/>
<path d="M40.8711 7.77855C41.4374 7.21229 42.3555 7.21229 42.9217 7.77855C43.488 8.34481 43.488 9.2629 42.9217 9.82916L40.0579 12.6929L38.0073 10.6423L40.8711 7.77855Z" stroke="#BC1E2C"/>
<path fill-rule="evenodd" clip-rule="evenodd" d="M25.35 40.95C33.9657 40.95 40.95 33.9657 40.95 25.35C40.95 16.7344 33.9657 9.75001 25.35 9.75001C16.7344 9.75001 9.75001 16.7344 9.75001 25.35C9.75001 33.9657 16.7344 40.95 25.35 40.95ZM25.35 42.25C34.6836 42.25 42.25 34.6836 42.25 25.35C42.25 16.0164 34.6836 8.45001 25.35 8.45001C16.0164 8.45001 8.45001 16.0164 8.45001 25.35C8.45001 34.6836 16.0164 42.25 25.35 42.25Z" fill="#221F1F"/>
<path fill-rule="evenodd" clip-rule="evenodd" d="M25.35 35.1C30.7348 35.1 35.1 30.7348 35.1 25.35C35.1 19.9652 30.7348 15.6 25.35 15.6C19.9652 15.6 15.6 19.9652 15.6 25.35C15.6 30.7348 19.9652 35.1 25.35 35.1ZM25.35 36.4C31.4527 36.4 36.4 31.4527 36.4 25.35C36.4 19.2472 31.4527 14.3 25.35 14.3C19.2472 14.3 14.3 19.2472 14.3 25.35C14.3 31.4527 19.2472 36.4 25.35 36.4Z" fill="#221F1F"/>
<path fill-rule="evenodd" clip-rule="evenodd" d="M25.35 29.25C27.5039 29.25 29.25 27.5039 29.25 25.35C29.25 23.1961 27.5039 21.45 25.35 21.45C23.1961 21.45 21.45 23.1961 21.45 25.35C21.45 27.5039 23.1961 29.25 25.35 29.25ZM25.35 29.9C27.8629 29.9 29.9 27.8629 29.9 25.35C29.9 22.8371 27.8629 20.8 25.35 20.8C22.8371 20.8 20.8 22.8371 20.8 25.35C20.8 27.8629 22.8371 29.9 25.35 29.9Z" fill="#BC1E2C"/>
<path fill-rule="evenodd" clip-rule="evenodd" d="M25.35 26.65C26.068 26.65 26.65 26.068 26.65 25.35C26.65 24.632 26.068 24.05 25.35 24.05C24.6321 24.05 24.05 24.632 24.05 25.35C24.05 26.068 24.6321 26.65 25.35 26.65ZM25.35 27.3C26.427 27.3 27.3 26.4269 27.3 25.35C27.3 24.273 26.427 23.4 25.35 23.4C24.2731 23.4 23.4 24.273 23.4 25.35C23.4 26.4269 24.2731 27.3 25.35 27.3Z" fill="#221F1F"/>
</svg>
