<svg width="64" height="50" viewBox="0 0 64 50" fill="none" xmlns="http://www.w3.org/2000/svg">
<path fill-rule="evenodd" clip-rule="evenodd" d="M48.7185 6.95175V14.95H61.1315V6.95175H63.05L54.925 0L46.8 6.95175H48.7185ZM48.5595 6.30175H49.3685V14.3H60.4815V6.30175H61.2905L54.925 0.855448L48.5595 6.30175Z" fill="#221F1F"/>
<path fill-rule="evenodd" clip-rule="evenodd" d="M57.85 7.15H52V14.3H57.85V7.15ZM51.35 6.5V14.95H58.5V6.5H51.35Z" fill="#221F1F"/>
<path fill-rule="evenodd" clip-rule="evenodd" d="M57.85 9.74998H52V9.09998H57.85V9.74998Z" fill="#221F1F"/>
<path fill-rule="evenodd" clip-rule="evenodd" d="M57.85 12.35H52V11.7H57.85V12.35Z" fill="#221F1F"/>
<path fill-rule="evenodd" clip-rule="evenodd" d="M57.85 24.05H52V31.2H57.85V24.05ZM51.35 23.4V31.85H58.5V23.4H51.35Z" fill="#221F1F"/>
<path fill-rule="evenodd" clip-rule="evenodd" d="M48.7185 23.8518V31.85H61.1315V23.8518H63.05L54.925 16.9L46.8 23.8518H48.7185ZM48.5595 23.2018H49.3685V31.2H60.4815V23.2018H61.2905L54.925 17.7555L48.5595 23.2018Z" fill="#BC1E2C"/>
<path fill-rule="evenodd" clip-rule="evenodd" d="M48.7185 41.4017V49.4H61.1315V41.4017H63.05L54.925 34.45L46.8 41.4017H48.7185ZM48.5595 40.7517H49.3685V48.75H60.4815V40.7517H61.2905L54.925 35.3054L48.5595 40.7517Z" fill="#221F1F"/>
<path fill-rule="evenodd" clip-rule="evenodd" d="M57.85 41.6H52V48.75H57.85V41.6ZM51.35 40.95V49.4H58.5V40.95H51.35Z" fill="#221F1F"/>
<path fill-rule="evenodd" clip-rule="evenodd" d="M57.85 26.65H52V26H57.85V26.65Z" fill="#221F1F"/>
<path fill-rule="evenodd" clip-rule="evenodd" d="M57.85 44.2H52V43.55H57.85V44.2Z" fill="#221F1F"/>
<path fill-rule="evenodd" clip-rule="evenodd" d="M57.85 29.25H52V28.6H57.85V29.25Z" fill="#221F1F"/>
<path fill-rule="evenodd" clip-rule="evenodd" d="M57.85 46.8H52V46.15H57.85V46.8Z" fill="#221F1F"/>
<path fill-rule="evenodd" clip-rule="evenodd" d="M39.65 10.4L46.8 10.4L46.8 11.05L39.65 11.05L39.65 10.4Z" fill="#221F1F"/>
<path fill-rule="evenodd" clip-rule="evenodd" d="M36.4 27.3L46.8 27.3L46.8 27.95L36.4 27.95L36.4 27.3Z" fill="#221F1F"/>
<path fill-rule="evenodd" clip-rule="evenodd" d="M39.65 44.2L46.8 44.2L46.8 44.85L39.65 44.85L39.65 44.2Z" fill="#221F1F"/>
<path fill-rule="evenodd" clip-rule="evenodd" d="M39.65 44.85L39.65 10.4L40.3 10.4L40.3 44.85L39.65 44.85Z" fill="black"/>
<path fill-rule="evenodd" clip-rule="evenodd" d="M23.725 36.4C31.0842 36.4 37.05 30.4341 37.05 23.075C37.05 15.7158 31.0842 9.74995 23.725 9.74995C16.3658 9.74995 10.4 15.7158 10.4 23.075C10.4 30.4341 16.3658 36.4 23.725 36.4ZM23.725 37.6999C31.8022 37.6999 38.35 31.1521 38.35 23.075C38.35 14.9978 31.8022 8.44995 23.725 8.44995C15.6478 8.44995 9.10001 14.9978 9.10001 23.075C9.10001 31.1521 15.6478 37.6999 23.725 37.6999Z" fill="#221F1F"/>
<path fill-rule="evenodd" clip-rule="evenodd" d="M23.725 33.15C29.2893 33.15 33.8 28.6392 33.8 23.075C33.8 17.5107 29.2893 13 23.725 13C18.1607 13 13.65 17.5107 13.65 23.075C13.65 28.6392 18.1607 33.15 23.725 33.15ZM23.725 34.45C30.0072 34.45 35.1 29.3572 35.1 23.075C35.1 16.7927 30.0072 11.7 23.725 11.7C17.4428 11.7 12.35 16.7927 12.35 23.075C12.35 29.3572 17.4428 34.45 23.725 34.45Z" fill="#221F1F"/>
<path fill-rule="evenodd" clip-rule="evenodd" d="M31.6943 20.2584C30.8091 17.7542 28.7765 15.7914 26.2288 15.0021L26.4212 14.3812C29.1656 15.2314 31.3538 17.3446 32.3071 20.0418L31.6943 20.2584Z" fill="#BC1E2C"/>
<path fill-rule="evenodd" clip-rule="evenodd" d="M11.0309 37.1751L8.73279 34.8771L1.8385 41.7713L4.13659 44.0694L11.0309 37.1751ZM8.73279 33.0386L1.9218e-05 41.7713L4.13659 45.9079L12.8694 37.1751L8.73279 33.0386Z" fill="#221F1F"/>
<path fill-rule="evenodd" clip-rule="evenodd" d="M11.4904 35.7962L10.1116 34.4174L12.4097 32.1193L13.7885 33.4981L11.4904 35.7962ZM9.19235 34.4174L12.4097 31.2L14.7078 33.4981L11.4904 36.7155L9.19235 34.4174Z" fill="#221F1F"/>
<path fill-rule="evenodd" clip-rule="evenodd" d="M4.59617 42.6904L2.7577 40.852L3.21732 40.3923L5.05579 42.2308L4.59617 42.6904Z" fill="#221F1F"/>
</svg>
