<svg width="52" height="52" viewBox="0 0 52 52" fill="none" xmlns="http://www.w3.org/2000/svg">
<path fill-rule="evenodd" clip-rule="evenodd" d="M48.7476 26.3323L48.0977 26.323C48.0992 26.2155 48.1 26.1078 48.1 26C48.1 25.8922 48.0992 25.7845 48.0977 25.677L48.7476 25.6677C48.7492 25.7783 48.75 25.8891 48.75 26C48.75 26.1109 48.7492 26.2217 48.7476 26.3323ZM48.6907 24.3453L48.0424 24.3919C48.027 24.1779 48.0086 23.9648 47.9872 23.7526L48.6339 23.6873C48.6559 23.9057 48.6749 24.1251 48.6907 24.3453ZM48.4627 22.3744L47.8209 22.4772C47.7869 22.2649 47.7499 22.0537 47.7099 21.8436L48.3484 21.7221C48.3896 21.9385 48.4277 22.1559 48.4627 22.3744ZM48.0632 20.4302L47.4329 20.5888C47.3805 20.3805 47.3251 20.1733 47.2668 19.9674L47.8922 19.7903C47.9522 20.0024 48.0092 20.2157 48.0632 20.4302ZM47.4946 18.5282L46.8806 18.7416C46.8102 18.5389 46.7369 18.3376 46.6607 18.1377L47.2682 17.9064C47.3466 18.1122 47.422 18.3195 47.4946 18.5282ZM46.7612 16.6838L46.1683 16.9502C46.0804 16.7547 45.9898 16.5607 45.8964 16.3682L46.4813 16.0845C46.5774 16.2827 46.6707 16.4825 46.7612 16.6838ZM45.8691 14.9109L45.3018 15.2282C45.1971 15.041 45.0898 14.8555 44.9799 14.6718L45.5377 14.3381C45.6508 14.5273 45.7613 14.7182 45.8691 14.9109ZM44.8256 13.2226L44.2881 13.5881C44.1675 13.4108 44.0444 13.2353 43.9188 13.0616L44.4454 12.6807C44.5747 12.8594 44.7014 13.04 44.8256 13.2226ZM43.639 11.6313L43.1353 12.0421C42.9998 11.876 42.8619 11.7118 42.7217 11.5497L43.2133 11.1245C43.3576 11.2914 43.4996 11.4603 43.639 11.6313ZM42.319 10.149L41.8528 10.6019C41.7034 10.4482 41.5518 10.2966 41.3981 10.1472L41.851 9.68103C42.0092 9.83476 42.1652 9.99076 42.319 10.149ZM40.8755 8.78665L40.4503 9.27827C40.2882 9.13807 40.124 9.00019 39.9579 8.86467L40.3687 8.36096C40.5397 8.50044 40.7086 8.64235 40.8755 8.78665ZM39.3193 7.55457L38.9384 8.08123C38.7647 7.95564 38.5892 7.83252 38.4119 7.71191L38.7774 7.17442C38.96 7.29857 39.1406 7.4253 39.3193 7.55457ZM37.6619 6.46232L37.3282 7.02014C37.1445 6.91022 36.959 6.80289 36.7718 6.69822L37.0891 6.13092C37.2818 6.23868 37.4727 6.34916 37.6619 6.46232ZM35.9155 5.51873L35.6318 6.10357C35.4393 6.01021 35.2453 5.91957 35.0498 5.83169L35.3162 5.23881C35.5175 5.32929 35.7173 5.42261 35.9155 5.51873ZM34.0936 4.73181L33.8623 5.33926C33.6624 5.26314 33.4611 5.18984 33.2584 5.11941L33.4718 4.50544C33.6805 4.57796 33.8878 4.65343 34.0936 4.73181ZM32.2097 4.10781L32.0326 4.73323C31.8267 4.67493 31.6195 4.61954 31.4112 4.56711L31.5698 3.93677C31.7843 3.99075 31.9976 4.04778 32.2097 4.10781ZM30.2779 3.65158L30.1564 4.29012C29.9463 4.25014 29.7351 4.21314 29.5228 4.17915L29.6256 3.53733C29.8441 3.57232 30.0615 3.61042 30.2779 3.65158ZM28.3127 3.3661L28.2474 4.01282C28.0352 3.99139 27.8221 3.97296 27.6081 3.95758L27.6547 3.30926C27.8749 3.32509 28.0943 3.34405 28.3127 3.3661ZM26.3323 3.25238L26.323 3.90231C26.2155 3.90077 26.1078 3.9 26 3.9C25.8922 3.9 25.7845 3.90077 25.677 3.90231L25.6677 3.25238C25.7783 3.25079 25.8891 3.25 26 3.25C26.1109 3.25 26.2217 3.25079 26.3323 3.25238ZM24.3453 3.30926L24.3919 3.95758C24.1779 3.97296 23.9648 3.99139 23.7526 4.01282L23.6873 3.3661C23.9057 3.34405 24.1251 3.32509 24.3453 3.30926ZM22.3744 3.53733L22.4772 4.17915C22.2649 4.21314 22.0537 4.25014 21.8436 4.29012L21.7221 3.65158C21.9385 3.61042 22.1559 3.57232 22.3744 3.53733ZM20.4302 3.93677L20.5888 4.56711C20.3805 4.61954 20.1733 4.67493 19.9674 4.73323L19.7903 4.10781C20.0024 4.04778 20.2157 3.99075 20.4302 3.93677ZM18.5282 4.50544L18.7416 5.11941C18.5389 5.18984 18.3376 5.26314 18.1377 5.33926L17.9064 4.73181C18.1122 4.65343 18.3195 4.57796 18.5282 4.50544ZM16.6838 5.23881L16.9502 5.83169C16.7547 5.91957 16.5607 6.01021 16.3682 6.10357L16.0845 5.51873C16.2827 5.42261 16.4825 5.32929 16.6838 5.23881ZM14.9109 6.13092L15.2282 6.69822C15.041 6.80289 14.8555 6.91022 14.6718 7.02013L14.3381 6.46231C14.5273 6.34916 14.7182 6.23868 14.9109 6.13092ZM13.2226 7.17442L13.5881 7.71191C13.4108 7.83252 13.2353 7.95564 13.0616 8.08123L12.6807 7.55457C12.8594 7.4253 13.04 7.29857 13.2226 7.17442ZM11.6313 8.36096L12.0421 8.86467C11.876 9.00018 11.7118 9.13807 11.5497 9.27827L11.1245 8.78665C11.2914 8.64235 11.4603 8.50043 11.6313 8.36096ZM10.149 9.68103L10.6019 10.1472C10.4482 10.2966 10.2966 10.4482 10.1472 10.6019L9.68103 10.149C9.83476 9.99076 9.99076 9.83475 10.149 9.68103ZM8.78665 11.1245L9.27827 11.5497C9.13807 11.7118 9.00019 11.876 8.86467 12.0421L8.36096 11.6313C8.50044 11.4603 8.64235 11.2913 8.78665 11.1245ZM7.55457 12.6807L8.08123 13.0616C7.95564 13.2353 7.83252 13.4108 7.71191 13.5881L7.17442 13.2226C7.29857 13.04 7.4253 12.8594 7.55457 12.6807ZM6.46232 14.3381L7.02014 14.6718C6.91022 14.8555 6.80289 15.041 6.69822 15.2282L6.13092 14.9109C6.23868 14.7182 6.34916 14.5273 6.46232 14.3381ZM5.51873 16.0845L6.10357 16.3682C6.01021 16.5607 5.91957 16.7547 5.83169 16.9502L5.23881 16.6838C5.32929 16.4825 5.42262 16.2827 5.51873 16.0845ZM4.73181 17.9064L5.33926 18.1377C5.26314 18.3376 5.18984 18.5389 5.11941 18.7416L4.50544 18.5282C4.57796 18.3195 4.65343 18.1122 4.73181 17.9064ZM4.10781 19.7903L4.73323 19.9674C4.67493 20.1733 4.61954 20.3805 4.56711 20.5888L3.93677 20.4302C3.99075 20.2157 4.04778 20.0024 4.10781 19.7903ZM3.65158 21.7221L4.29012 21.8436C4.25014 22.0537 4.21314 22.2649 4.17915 22.4771L3.53733 22.3744C3.57232 22.1559 3.61042 21.9385 3.65158 21.7221ZM3.3661 23.6873L4.01282 23.7526C3.99139 23.9648 3.97296 24.1779 3.95758 24.3919L3.30926 24.3453C3.32509 24.1251 3.34405 23.9057 3.3661 23.6873ZM3.25238 25.6677C3.25079 25.7783 3.25 25.8891 3.25 26C3.25 26.1109 3.25079 26.2217 3.25238 26.3323L3.90231 26.323C3.90077 26.2155 3.9 26.1078 3.9 26C3.9 25.8922 3.90077 25.7845 3.90231 25.677L3.25238 25.6677ZM3.30926 27.6547L3.95758 27.6081C3.97296 27.8221 3.99139 28.0352 4.01282 28.2474L3.3661 28.3127C3.34405 28.0943 3.32509 27.8749 3.30926 27.6547ZM3.53733 29.6256L4.17915 29.5228C4.21314 29.7351 4.25014 29.9463 4.29012 30.1564L3.65158 30.2779C3.61042 30.0615 3.57232 29.8441 3.53733 29.6256ZM3.93677 31.5698L4.56711 31.4112C4.61954 31.6195 4.67493 31.8267 4.73323 32.0326L4.10781 32.2097C4.04778 31.9976 3.99075 31.7843 3.93677 31.5698ZM4.50544 33.4718L5.11941 33.2584C5.18984 33.4611 5.26314 33.6624 5.33926 33.8623L4.73181 34.0936C4.65343 33.8878 4.57796 33.6805 4.50544 33.4718ZM5.23881 35.3162L5.83169 35.0498C5.91957 35.2453 6.01021 35.4393 6.10357 35.6318L5.51873 35.9155C5.42261 35.7173 5.32929 35.5175 5.23881 35.3162ZM6.13092 37.0891L6.69822 36.7718C6.80289 36.959 6.91022 37.1445 7.02013 37.3282L6.46231 37.6619C6.34916 37.4727 6.23868 37.2818 6.13092 37.0891ZM7.17442 38.7774L7.71191 38.4119C7.83252 38.5892 7.95564 38.7647 8.08123 38.9384L7.55457 39.3193C7.4253 39.1406 7.29857 38.9599 7.17442 38.7774ZM8.36096 40.3687L8.86467 39.9579C9.00018 40.124 9.13807 40.2882 9.27827 40.4503L8.78665 40.8755C8.64235 40.7086 8.50043 40.5397 8.36096 40.3687ZM9.68103 41.851L10.1472 41.3981C10.2966 41.5518 10.4482 41.7034 10.6019 41.8527L10.149 42.319C9.99076 42.1652 9.83475 42.0092 9.68103 41.851ZM11.1245 43.2133L11.5497 42.7217C11.7118 42.8619 11.876 42.9998 12.0421 43.1353L11.6313 43.639C11.4603 43.4996 11.2913 43.3576 11.1245 43.2133ZM12.6807 44.4454L13.0616 43.9188C13.2353 44.0444 13.4108 44.1675 13.5881 44.2881L13.2226 44.8256C13.04 44.7014 12.8594 44.5747 12.6807 44.4454ZM14.3381 45.5377L14.6718 44.9799C14.8555 45.0898 15.041 45.1971 15.2282 45.3018L14.9109 45.8691C14.7182 45.7613 14.5273 45.6508 14.3381 45.5377ZM16.0845 46.4813L16.3682 45.8964C16.5607 45.9898 16.7547 46.0804 16.9502 46.1683L16.6838 46.7612C16.4825 46.6707 16.2827 46.5774 16.0845 46.4813ZM17.9064 47.2682L18.1377 46.6607C18.3376 46.7369 18.5389 46.8102 18.7416 46.8806L18.5282 47.4946C18.3195 47.422 18.1122 47.3466 17.9064 47.2682ZM19.7903 47.8922L19.9674 47.2668C20.1733 47.3251 20.3805 47.3805 20.5888 47.4329L20.4302 48.0632C20.2157 48.0092 20.0024 47.9522 19.7903 47.8922ZM21.7221 48.3484L21.8436 47.7099C22.0537 47.7499 22.2649 47.7869 22.4771 47.8209L22.3744 48.4627C22.1559 48.4277 21.9385 48.3896 21.7221 48.3484ZM23.6873 48.6339L23.7526 47.9872C23.9648 48.0086 24.1779 48.027 24.3919 48.0424L24.3453 48.6907C24.1251 48.6749 23.9057 48.6559 23.6873 48.6339ZM25.6677 48.7476L25.677 48.0977C25.7845 48.0992 25.8922 48.1 26 48.1C26.1078 48.1 26.2155 48.0992 26.323 48.0977L26.3323 48.7476C26.2217 48.7492 26.1109 48.75 26 48.75C25.8891 48.75 25.7783 48.7492 25.6677 48.7476ZM27.6547 48.6907L27.6081 48.0424C27.8221 48.027 28.0352 48.0086 28.2474 47.9872L28.3127 48.6339C28.0943 48.6559 27.8749 48.6749 27.6547 48.6907ZM29.6256 48.4627L29.5228 47.8209C29.7351 47.7869 29.9463 47.7499 30.1564 47.7099L30.2779 48.3484C30.0615 48.3896 29.8441 48.4277 29.6256 48.4627ZM31.5698 48.0632L31.4112 47.4329C31.6195 47.3805 31.8267 47.3251 32.0326 47.2668L32.2097 47.8922C31.9976 47.9522 31.7843 48.0092 31.5698 48.0632ZM33.4718 47.4946L33.2584 46.8806C33.4611 46.8102 33.6624 46.7369 33.8623 46.6607L34.0936 47.2682C33.8878 47.3466 33.6805 47.422 33.4718 47.4946ZM35.3162 46.7612L35.0498 46.1683C35.2453 46.0804 35.4393 45.9898 35.6318 45.8964L35.9155 46.4813C35.7173 46.5774 35.5175 46.6707 35.3162 46.7612ZM37.0891 45.8691L36.7718 45.3018C36.959 45.1971 37.1445 45.0898 37.3282 44.9799L37.6619 45.5377C37.4727 45.6508 37.2818 45.7613 37.0891 45.8691ZM38.7774 44.8256L38.4119 44.2881C38.5892 44.1675 38.7647 44.0444 38.9384 43.9188L39.3193 44.4454C39.1406 44.5747 38.9599 44.7014 38.7774 44.8256ZM40.3687 43.639L39.9579 43.1353C40.124 42.9998 40.2882 42.8619 40.4503 42.7217L40.8755 43.2133C40.7086 43.3576 40.5397 43.4996 40.3687 43.639ZM41.851 42.319L41.3981 41.8528C41.5518 41.7034 41.7034 41.5518 41.8527 41.3981L42.319 41.851C42.1652 42.0092 42.0092 42.1652 41.851 42.319ZM43.2133 40.8755L42.7217 40.4503C42.8619 40.2882 42.9998 40.124 43.1353 39.9579L43.639 40.3687C43.4996 40.5397 43.3576 40.7087 43.2133 40.8755ZM44.4454 39.3193L43.9188 38.9384C44.0444 38.7647 44.1675 38.5892 44.2881 38.4119L44.8256 38.7774C44.7014 38.96 44.5747 39.1406 44.4454 39.3193ZM45.5377 37.6619L44.9799 37.3282C45.0898 37.1445 45.1971 36.959 45.3018 36.7718L45.8691 37.0891C45.7613 37.2818 45.6508 37.4727 45.5377 37.6619ZM46.4813 35.9155L45.8964 35.6318C45.9898 35.4393 46.0804 35.2453 46.1683 35.0498L46.7612 35.3162C46.6707 35.5175 46.5774 35.7173 46.4813 35.9155ZM47.2682 34.0936L46.6607 33.8623C46.7369 33.6624 46.8102 33.4611 46.8806 33.2584L47.4946 33.4718C47.422 33.6805 47.3466 33.8878 47.2682 34.0936ZM47.8922 32.2097L47.2668 32.0326C47.3251 31.8267 47.3805 31.6195 47.4329 31.4112L48.0632 31.5698C48.0092 31.7843 47.9522 31.9976 47.8922 32.2097ZM48.3484 30.2779L47.7099 30.1564C47.7499 29.9463 47.7869 29.7351 47.8209 29.5228L48.4627 29.6256C48.4277 29.8441 48.3896 30.0615 48.3484 30.2779ZM48.6339 28.3127L47.9872 28.2474C48.0086 28.0352 48.027 27.8221 48.0424 27.6081L48.6907 27.6547C48.6749 27.8749 48.6559 28.0943 48.6339 28.3127Z" fill="#221F1F"/>
<path d="M29.25 3.25C29.25 5.04493 27.7949 6.5 26 6.5C24.2051 6.5 22.75 5.04493 22.75 3.25C22.75 1.45507 24.2051 0 26 0C27.7949 0 29.25 1.45507 29.25 3.25Z" fill="white"/>
<path fill-rule="evenodd" clip-rule="evenodd" d="M26 5.2C27.077 5.2 27.95 4.32695 27.95 3.25C27.95 2.17304 27.077 1.3 26 1.3C24.923 1.3 24.05 2.17304 24.05 3.25C24.05 4.32695 24.923 5.2 26 5.2ZM26 6.5C27.7949 6.5 29.25 5.04493 29.25 3.25C29.25 1.45507 27.7949 0 26 0C24.2051 0 22.75 1.45507 22.75 3.25C22.75 5.04493 24.2051 6.5 26 6.5Z" fill="#221F1F"/>
<path d="M48.75 29.25C46.9551 29.25 45.5 27.7949 45.5 26C45.5 24.2051 46.9551 22.75 48.75 22.75C50.5449 22.75 52 24.2051 52 26C52 27.7949 50.5449 29.25 48.75 29.25Z" fill="white"/>
<path fill-rule="evenodd" clip-rule="evenodd" d="M46.15 26C46.15 27.4359 47.3141 28.6 48.75 28.6C50.1859 28.6 51.35 27.4359 51.35 26C51.35 24.5641 50.1859 23.4 48.75 23.4C47.3141 23.4 46.15 24.5641 46.15 26ZM45.5 26C45.5 27.7949 46.9551 29.25 48.75 29.25C50.5449 29.25 52 27.7949 52 26C52 24.2051 50.5449 22.75 48.75 22.75C46.9551 22.75 45.5 24.2051 45.5 26Z" fill="#BC1E2C"/>
<path d="M29.25 48.75C29.25 50.5449 27.7949 52 26 52C24.2051 52 22.75 50.5449 22.75 48.75C22.75 46.9551 24.2051 45.5 26 45.5C27.7949 45.5 29.25 46.9551 29.25 48.75Z" fill="white"/>
<path fill-rule="evenodd" clip-rule="evenodd" d="M26 50.7C27.077 50.7 27.95 49.827 27.95 48.75C27.95 47.673 27.077 46.8 26 46.8C24.923 46.8 24.05 47.673 24.05 48.75C24.05 49.827 24.923 50.7 26 50.7ZM26 52C27.7949 52 29.25 50.5449 29.25 48.75C29.25 46.9551 27.7949 45.5 26 45.5C24.2051 45.5 22.75 46.9551 22.75 48.75C22.75 50.5449 24.2051 52 26 52Z" fill="#221F1F"/>
<path d="M3.25 29.25C1.45507 29.25 -2.20521e-07 27.7949 -1.42062e-07 26C-6.36033e-08 24.2051 1.45507 22.75 3.25 22.75C5.04493 22.75 6.5 24.2051 6.5 26C6.5 27.7949 5.04493 29.25 3.25 29.25Z" fill="white"/>
<path fill-rule="evenodd" clip-rule="evenodd" d="M1.3 26C1.3 27.077 2.17304 27.95 3.25 27.95C4.32696 27.95 5.2 27.077 5.2 26C5.2 24.923 4.32696 24.05 3.25 24.05C2.17305 24.05 1.3 24.923 1.3 26ZM-1.42062e-07 26C-2.20521e-07 27.7949 1.45507 29.25 3.25 29.25C5.04493 29.25 6.5 27.7949 6.5 26C6.5 24.2051 5.04493 22.75 3.25 22.75C1.45507 22.75 -6.36033e-08 24.2051 -1.42062e-07 26Z" fill="#221F1F"/>
<path d="M5.31711 9.91345L9.91331 5.31726L14.5095 9.91345L9.91331 14.5096L5.31711 9.91345Z" fill="white"/>
<path fill-rule="evenodd" clip-rule="evenodd" d="M9.91331 7.15574L7.15559 9.91345L9.91331 12.6712L12.671 9.91345L9.91331 7.15574ZM5.31711 9.91345L9.91331 14.5096L14.5095 9.91345L9.91331 5.31726L5.31711 9.91345Z" fill="#221F1F"/>
<path d="M9.91377 46.6829L5.31758 42.0867L9.91377 37.4905L14.51 42.0867L9.91377 46.6829Z" fill="white"/>
<path fill-rule="evenodd" clip-rule="evenodd" d="M7.15605 42.0867L9.91377 44.8444L12.6715 42.0867L9.91377 39.329L7.15605 42.0867ZM9.91377 46.6829L14.51 42.0867L9.91377 37.4905L5.31758 42.0867L9.91377 46.6829Z" fill="#221F1F"/>
<path d="M37.4905 42.0865L42.0867 37.4904L46.6829 42.0865L42.0867 46.6827L37.4905 42.0865Z" fill="white"/>
<path fill-rule="evenodd" clip-rule="evenodd" d="M42.0867 39.3288L39.329 42.0865L42.0867 44.8443L44.8444 42.0865L42.0867 39.3288ZM37.4905 42.0865L42.0867 46.6827L46.6829 42.0865L42.0867 37.4904L37.4905 42.0865Z" fill="#221F1F"/>
<path d="M42.0869 14.5095L37.4907 9.91328L42.0869 5.31709L46.6831 9.91328L42.0869 14.5095Z" fill="white"/>
<path fill-rule="evenodd" clip-rule="evenodd" d="M39.3291 9.91328L42.0869 12.671L44.8446 9.91328L42.0869 7.15557L39.3291 9.91328ZM42.0869 14.5095L46.6831 9.91328L42.0869 5.31709L37.4907 9.91328L42.0869 14.5095Z" fill="#221F1F"/>
<path fill-rule="evenodd" clip-rule="evenodd" d="M26 24.05V33.15L18.2 30.1036V21.0964L26 24.05ZM26 23.4V33.8L17.55 30.55V20.15L26 23.4Z" fill="#221F1F"/>
<path fill-rule="evenodd" clip-rule="evenodd" d="M26 23.4L33.5979 20.4777L26 17.9128L18.525 20.525L26 23.4ZM26 23.4L34.45 20.15L26 17.225L17.55 20.15L26 23.4Z" fill="#221F1F"/>
<path fill-rule="evenodd" clip-rule="evenodd" d="M27.3 24.2928V31.9072L33.15 29.6572V22.0428L27.3 24.2928ZM26 23.4V33.8L34.45 30.55V20.15L26 23.4Z" fill="#BC1E2C"/>
<path fill-rule="evenodd" clip-rule="evenodd" d="M25.675 14.95L25.675 9.75L26.325 9.75L26.325 14.95L25.675 14.95Z" fill="#221F1F"/>
<path fill-rule="evenodd" clip-rule="evenodd" d="M33.4885 18.1864L37.1655 14.5094L37.6251 14.969L33.9481 18.646L33.4885 18.1864Z" fill="#221F1F"/>
<path fill-rule="evenodd" clip-rule="evenodd" d="M36.725 25.675L41.925 25.675L41.925 26.325L36.725 26.325L36.725 25.675Z" fill="#221F1F"/>
<path fill-rule="evenodd" clip-rule="evenodd" d="M33.7184 33.5837L37.3954 37.2607L36.9357 37.7203L33.2588 34.0434L33.7184 33.5837Z" fill="#221F1F"/>
<path fill-rule="evenodd" clip-rule="evenodd" d="M25.675 42.25L25.675 37.05L26.325 37.05L26.325 42.25L25.675 42.25Z" fill="#221F1F"/>
<path fill-rule="evenodd" clip-rule="evenodd" d="M14.1847 37.4906L17.8616 33.8136L18.3212 34.2732L14.6443 37.9502L14.1847 37.4906Z" fill="#221F1F"/>
<path fill-rule="evenodd" clip-rule="evenodd" d="M9.425 25.675L14.625 25.675L14.625 26.325L9.425 26.325L9.425 25.675Z" fill="#221F1F"/>
<path fill-rule="evenodd" clip-rule="evenodd" d="M14.4142 14.2796L18.0912 17.9565L17.6316 18.4161L13.9546 14.7392L14.4142 14.2796Z" fill="#221F1F"/>
</svg>
