<svg width="46" height="46" viewBox="0 0 46 46" fill="none" xmlns="http://www.w3.org/2000/svg">
<path fill-rule="evenodd" clip-rule="evenodd" d="M25.0732 35.7502H20.5232C20.1643 35.7502 19.8732 36.0412 19.8732 36.4002V37.0502H25.7232V36.4002C25.7232 36.0412 25.4322 35.7502 25.0732 35.7502ZM20.5232 35.1002C19.8053 35.1002 19.2232 35.6822 19.2232 36.4002V37.7002H26.3732V36.4002C26.3732 35.6822 25.7912 35.1002 25.0732 35.1002H20.5232Z" fill="#BC1E2C"/>
<path fill-rule="evenodd" clip-rule="evenodd" d="M20.5232 21.4502L25.0732 21.4502C25.4322 21.4502 25.7232 21.1592 25.7232 20.8002L25.7232 20.1502L19.8732 20.1502L19.8732 20.8002C19.8732 21.1592 20.1642 21.4502 20.5232 21.4502ZM25.0732 22.1002C25.7912 22.1002 26.3732 21.5182 26.3732 20.8002L26.3732 19.5002L19.2232 19.5002L19.2232 20.8002C19.2232 21.5182 19.8053 22.1002 20.5232 22.1002L25.0732 22.1002Z" fill="#BC1E2C"/>
<path fill-rule="evenodd" clip-rule="evenodd" d="M26.3732 37.7002H19.2232V39.0002H26.3732V37.7002ZM18.5732 37.0502V39.6502H27.0232V37.0502H18.5732Z" fill="#BC1E2C"/>
<path fill-rule="evenodd" clip-rule="evenodd" d="M19.2233 19.5002L26.3733 19.5002L26.3733 18.2002L19.2233 18.2002L19.2233 19.5002ZM27.0233 20.1502L27.0233 17.5502L18.5733 17.5502L18.5733 20.1502L27.0233 20.1502Z" fill="#BC1E2C"/>
<path fill-rule="evenodd" clip-rule="evenodd" d="M25.0732 22.1002H20.5232V35.1002H25.0732V22.1002ZM19.8732 21.4502V35.7502H25.7232V21.4502H19.8732Z" fill="#BC1E2C"/>
<path fill-rule="evenodd" clip-rule="evenodd" d="M22.7981 1.50111L4.85167 11.8625H40.7446L22.7981 1.50111ZM22.7981 0L0 13.1625H45.5962L22.7981 0Z" fill="#221F1F"/>
<path fill-rule="evenodd" clip-rule="evenodd" d="M41.3232 13H4.27324L4.27324 16.9H41.3232V13ZM4.27324 11.7C3.55527 11.7 2.97324 12.282 2.97324 13V16.9C2.97324 17.618 3.55527 18.2 4.27324 18.2H41.3232C42.0412 18.2 42.6232 17.618 42.6232 16.9V13C42.6232 12.282 42.0412 11.7 41.3232 11.7H4.27324Z" fill="#221F1F"/>
<path fill-rule="evenodd" clip-rule="evenodd" d="M41.3232 40.3H4.27324L4.27324 44.2H41.3232V40.3ZM4.27324 39C3.55527 39 2.97324 39.582 2.97324 40.3V45.5H42.6232V40.3C42.6232 39.582 42.0412 39 41.3232 39H4.27324Z" fill="#221F1F"/>
<path fill-rule="evenodd" clip-rule="evenodd" d="M11.4232 35.7502H6.87315C6.51417 35.7502 6.22315 36.0412 6.22315 36.4002V37.0502H12.0732V36.4002C12.0732 36.0412 11.7821 35.7502 11.4232 35.7502ZM6.87315 35.1002C6.15518 35.1002 5.57315 35.6822 5.57315 36.4002V37.7002H12.7232V36.4002C12.7232 35.6822 12.1411 35.1002 11.4232 35.1002H6.87315Z" fill="#221F1F"/>
<path fill-rule="evenodd" clip-rule="evenodd" d="M6.87314 21.4502L11.4231 21.4502C11.7821 21.4502 12.0731 21.1592 12.0731 20.8002L12.0731 20.1502L6.22314 20.1502L6.22314 20.8002C6.22314 21.1592 6.51416 21.4502 6.87314 21.4502ZM11.4231 22.1002C12.1411 22.1002 12.7231 21.5182 12.7231 20.8002L12.7231 19.5002L5.57314 19.5002L5.57314 20.8002C5.57314 21.5182 6.15517 22.1002 6.87314 22.1002L11.4231 22.1002Z" fill="#221F1F"/>
<path fill-rule="evenodd" clip-rule="evenodd" d="M12.7232 37.7002H5.57316V39.0002H12.7232V37.7002ZM4.92316 37.0502V39.6502H13.3732V37.0502H4.92316Z" fill="#221F1F"/>
<path fill-rule="evenodd" clip-rule="evenodd" d="M5.57317 19.5002L12.7232 19.5002L12.7232 18.2002L5.57317 18.2002L5.57317 19.5002ZM13.3732 20.1502L13.3732 17.5502L4.92317 17.5502L4.92317 20.1502L13.3732 20.1502Z" fill="#221F1F"/>
<path fill-rule="evenodd" clip-rule="evenodd" d="M11.4231 22.1002H6.87314V35.1002H11.4231V22.1002ZM6.22314 21.4502V35.7502H12.0731V21.4502H6.22314Z" fill="#221F1F"/>
<path fill-rule="evenodd" clip-rule="evenodd" d="M38.7233 35.7502H34.1733C33.8143 35.7502 33.5233 36.0412 33.5233 36.4002V37.0502H39.3733V36.4002C39.3733 36.0412 39.0823 35.7502 38.7233 35.7502ZM34.1733 35.1002C33.4554 35.1002 32.8733 35.6822 32.8733 36.4002V37.7002H40.0233V36.4002C40.0233 35.6822 39.4413 35.1002 38.7233 35.1002H34.1733Z" fill="#221F1F"/>
<path fill-rule="evenodd" clip-rule="evenodd" d="M34.1733 21.4502L38.7233 21.4502C39.0823 21.4502 39.3733 21.1592 39.3733 20.8002L39.3733 20.1502L33.5233 20.1502L33.5233 20.8002C33.5233 21.1592 33.8143 21.4502 34.1733 21.4502ZM38.7233 22.1002C39.4413 22.1002 40.0233 21.5182 40.0233 20.8002L40.0233 19.5002L32.8733 19.5002L32.8733 20.8002C32.8733 21.5182 33.4553 22.1002 34.1733 22.1002L38.7233 22.1002Z" fill="#221F1F"/>
<path fill-rule="evenodd" clip-rule="evenodd" d="M40.0233 37.7002H32.8733V39.0002H40.0233V37.7002ZM32.2233 37.0502V39.6502H40.6733V37.0502H32.2233Z" fill="#221F1F"/>
<path fill-rule="evenodd" clip-rule="evenodd" d="M32.8733 19.5002L40.0233 19.5002L40.0233 18.2002L32.8733 18.2002L32.8733 19.5002ZM40.6733 20.1502L40.6733 17.5502L32.2233 17.5502L32.2233 20.1502L40.6733 20.1502Z" fill="#221F1F"/>
<path fill-rule="evenodd" clip-rule="evenodd" d="M38.7233 22.1002H34.1733V35.1002H38.7233V22.1002ZM33.5233 21.4502V35.7502H39.3733V21.4502H33.5233Z" fill="#221F1F"/>
</svg>
