<svg width="47" height="42" viewBox="0 0 47 42" fill="none" xmlns="http://www.w3.org/2000/svg">
<path fill-rule="evenodd" clip-rule="evenodd" d="M14.4935 32.6774H2.79347L2.79347 34.6274H14.4935V32.6774ZM2.79347 31.3774C2.0755 31.3774 1.49347 31.9595 1.49347 32.6774V34.6274C1.49347 35.3454 2.0755 35.9274 2.79347 35.9274H14.4935C15.2114 35.9274 15.7935 35.3454 15.7935 34.6274V32.6774C15.7935 31.9595 15.2114 31.3774 14.4935 31.3774H2.79347Z" fill="#221F1F"/>
<path fill-rule="evenodd" clip-rule="evenodd" d="M3.44351 33.9773L3.44351 32.0273L4.09351 32.0273L4.09351 33.9773L3.44351 33.9773Z" fill="#221F1F"/>
<path fill-rule="evenodd" clip-rule="evenodd" d="M5.39352 33.9773L5.39352 32.0273L6.04352 32.0273L6.04352 33.9773L5.39352 33.9773Z" fill="#221F1F"/>
<path fill-rule="evenodd" clip-rule="evenodd" d="M7.34353 33.9773L7.34353 32.0273L7.99353 32.0273L7.99353 33.9773L7.34353 33.9773Z" fill="#221F1F"/>
<path fill-rule="evenodd" clip-rule="evenodd" d="M9.29354 33.9773L9.29354 32.0273L9.94354 32.0273L9.94354 33.9773L9.29354 33.9773Z" fill="#221F1F"/>
<path fill-rule="evenodd" clip-rule="evenodd" d="M11.2435 33.9773L11.2435 32.0273L11.8935 32.0273L11.8935 33.9773L11.2435 33.9773Z" fill="#221F1F"/>
<path fill-rule="evenodd" clip-rule="evenodd" d="M13.1935 33.9773L13.1935 32.0273L13.8435 32.0273L13.8435 33.9773L13.1935 33.9773Z" fill="#221F1F"/>
<path fill-rule="evenodd" clip-rule="evenodd" d="M14.4935 38.5274H2.79347L2.79347 40.4774H14.4935V38.5274ZM2.79347 37.2274C2.0755 37.2274 1.49347 37.8094 1.49347 38.5274V40.4774C1.49347 41.1954 2.0755 41.7774 2.79347 41.7774H14.4935C15.2114 41.7774 15.7935 41.1954 15.7935 40.4774V38.5274C15.7935 37.8094 15.2114 37.2274 14.4935 37.2274H2.79347Z" fill="#221F1F"/>
<path fill-rule="evenodd" clip-rule="evenodd" d="M3.44351 39.8276L3.44351 37.8776L4.09351 37.8776L4.09351 39.8276L3.44351 39.8276Z" fill="#221F1F"/>
<path fill-rule="evenodd" clip-rule="evenodd" d="M5.39352 39.8276L5.39352 37.8776L6.04352 37.8776L6.04352 39.8276L5.39352 39.8276Z" fill="#221F1F"/>
<path fill-rule="evenodd" clip-rule="evenodd" d="M7.34353 39.8276L7.34353 37.8776L7.99353 37.8776L7.99353 39.8276L7.34353 39.8276Z" fill="#221F1F"/>
<path fill-rule="evenodd" clip-rule="evenodd" d="M9.29354 39.8276L9.29354 37.8776L9.94354 37.8776L9.94354 39.8276L9.29354 39.8276Z" fill="#221F1F"/>
<path fill-rule="evenodd" clip-rule="evenodd" d="M11.2435 39.8276L11.2435 37.8776L11.8935 37.8776L11.8935 39.8276L11.2435 39.8276Z" fill="#221F1F"/>
<path fill-rule="evenodd" clip-rule="evenodd" d="M13.1935 39.8276L13.1935 37.8776L13.8435 37.8776L13.8435 39.8276L13.1935 39.8276Z" fill="#221F1F"/>
<path fill-rule="evenodd" clip-rule="evenodd" d="M30.0934 38.5274H18.3934L18.3934 40.4774H30.0934V38.5274ZM18.3934 37.2274C17.6755 37.2274 17.0934 37.8094 17.0934 38.5274V40.4774C17.0934 41.1954 17.6755 41.7774 18.3934 41.7774H30.0934C30.8114 41.7774 31.3934 41.1954 31.3934 40.4774V38.5274C31.3934 37.8094 30.8114 37.2274 30.0934 37.2274H18.3934Z" fill="#221F1F"/>
<path fill-rule="evenodd" clip-rule="evenodd" d="M19.0434 39.8276L19.0434 37.8776L19.6934 37.8776L19.6934 39.8276L19.0434 39.8276Z" fill="#221F1F"/>
<path fill-rule="evenodd" clip-rule="evenodd" d="M20.9934 39.8276L20.9934 37.8776L21.6434 37.8776L21.6434 39.8276L20.9934 39.8276Z" fill="#221F1F"/>
<path fill-rule="evenodd" clip-rule="evenodd" d="M22.9434 39.8276L22.9434 37.8776L23.5934 37.8776L23.5934 39.8276L22.9434 39.8276Z" fill="#221F1F"/>
<path fill-rule="evenodd" clip-rule="evenodd" d="M24.8934 39.8276L24.8934 37.8776L25.5434 37.8776L25.5434 39.8276L24.8934 39.8276Z" fill="#221F1F"/>
<path fill-rule="evenodd" clip-rule="evenodd" d="M26.8434 39.8276L26.8434 37.8776L27.4934 37.8776L27.4934 39.8276L26.8434 39.8276Z" fill="#221F1F"/>
<path fill-rule="evenodd" clip-rule="evenodd" d="M28.7934 39.8276L28.7934 37.8776L29.4434 37.8776L29.4434 39.8276L28.7934 39.8276Z" fill="#221F1F"/>
<path fill-rule="evenodd" clip-rule="evenodd" d="M45.6935 38.5274H33.9935L33.9935 40.4774H45.6935V38.5274ZM33.9935 37.2274C33.2755 37.2274 32.6935 37.8094 32.6935 38.5274V40.4774C32.6935 41.1954 33.2755 41.7774 33.9935 41.7774H45.6935C46.4115 41.7774 46.9935 41.1954 46.9935 40.4774V38.5274C46.9935 37.8094 46.4115 37.2274 45.6935 37.2274H33.9935Z" fill="#221F1F"/>
<path fill-rule="evenodd" clip-rule="evenodd" d="M34.6436 39.8276L34.6436 37.8776L35.2936 37.8776L35.2936 39.8276L34.6436 39.8276Z" fill="#221F1F"/>
<path fill-rule="evenodd" clip-rule="evenodd" d="M36.5936 39.8276L36.5936 37.8776L37.2436 37.8776L37.2436 39.8276L36.5936 39.8276Z" fill="#221F1F"/>
<path fill-rule="evenodd" clip-rule="evenodd" d="M38.5436 39.8276L38.5436 37.8776L39.1936 37.8776L39.1936 39.8276L38.5436 39.8276Z" fill="#221F1F"/>
<path fill-rule="evenodd" clip-rule="evenodd" d="M40.4936 39.8276L40.4936 37.8776L41.1436 37.8776L41.1436 39.8276L40.4936 39.8276Z" fill="#221F1F"/>
<path fill-rule="evenodd" clip-rule="evenodd" d="M42.4436 39.8276L42.4436 37.8776L43.0936 37.8776L43.0936 39.8276L42.4436 39.8276Z" fill="#221F1F"/>
<path fill-rule="evenodd" clip-rule="evenodd" d="M44.3936 39.8276L44.3936 37.8776L45.0436 37.8776L45.0436 39.8276L44.3936 39.8276Z" fill="#221F1F"/>
<path fill-rule="evenodd" clip-rule="evenodd" d="M30.0934 32.6774H18.3934L18.3934 34.6274H30.0934V32.6774ZM18.3934 31.3774C17.6755 31.3774 17.0934 31.9595 17.0934 32.6774V34.6274C17.0934 35.3454 17.6755 35.9274 18.3934 35.9274H30.0934C30.8114 35.9274 31.3934 35.3454 31.3934 34.6274V32.6774C31.3934 31.9595 30.8114 31.3774 30.0934 31.3774H18.3934Z" fill="#221F1F"/>
<path fill-rule="evenodd" clip-rule="evenodd" d="M19.0434 33.9773L19.0434 32.0273L19.6934 32.0273L19.6934 33.9773L19.0434 33.9773Z" fill="#221F1F"/>
<path fill-rule="evenodd" clip-rule="evenodd" d="M20.9934 33.9773L20.9934 32.0273L21.6434 32.0273L21.6434 33.9773L20.9934 33.9773Z" fill="#221F1F"/>
<path fill-rule="evenodd" clip-rule="evenodd" d="M22.9434 33.9773L22.9434 32.0273L23.5934 32.0273L23.5934 33.9773L22.9434 33.9773Z" fill="#221F1F"/>
<path fill-rule="evenodd" clip-rule="evenodd" d="M24.8934 33.9773L24.8934 32.0273L25.5434 32.0273L25.5434 33.9773L24.8934 33.9773Z" fill="#221F1F"/>
<path fill-rule="evenodd" clip-rule="evenodd" d="M26.8434 33.9773L26.8434 32.0273L27.4934 32.0273L27.4934 33.9773L26.8434 33.9773Z" fill="#221F1F"/>
<path fill-rule="evenodd" clip-rule="evenodd" d="M28.7934 33.9773L28.7934 32.0273L29.4434 32.0273L29.4434 33.9773L28.7934 33.9773Z" fill="#221F1F"/>
<path fill-rule="evenodd" clip-rule="evenodd" d="M45.6935 32.6774H33.9935L33.9935 34.6274H45.6935V32.6774ZM33.9935 31.3774C33.2755 31.3774 32.6935 31.9595 32.6935 32.6774V34.6274C32.6935 35.3454 33.2755 35.9274 33.9935 35.9274H45.6935C46.4115 35.9274 46.9935 35.3454 46.9935 34.6274V32.6774C46.9935 31.9595 46.4115 31.3774 45.6935 31.3774H33.9935Z" fill="#221F1F"/>
<path fill-rule="evenodd" clip-rule="evenodd" d="M34.6436 33.9773L34.6436 32.0273L35.2936 32.0273L35.2936 33.9773L34.6436 33.9773Z" fill="#221F1F"/>
<path fill-rule="evenodd" clip-rule="evenodd" d="M36.5936 33.9773L36.5936 32.0273L37.2436 32.0273L37.2436 33.9773L36.5936 33.9773Z" fill="#221F1F"/>
<path fill-rule="evenodd" clip-rule="evenodd" d="M38.5436 33.9773L38.5436 32.0273L39.1936 32.0273L39.1936 33.9773L38.5436 33.9773Z" fill="#221F1F"/>
<path fill-rule="evenodd" clip-rule="evenodd" d="M40.4936 33.9773L40.4936 32.0273L41.1436 32.0273L41.1436 33.9773L40.4936 33.9773Z" fill="#221F1F"/>
<path fill-rule="evenodd" clip-rule="evenodd" d="M42.4436 33.9773L42.4436 32.0273L43.0936 32.0273L43.0936 33.9773L42.4436 33.9773Z" fill="#221F1F"/>
<path fill-rule="evenodd" clip-rule="evenodd" d="M44.3936 33.9773L44.3936 32.0273L45.0436 32.0273L45.0436 33.9773L44.3936 33.9773Z" fill="#221F1F"/>
<path fill-rule="evenodd" clip-rule="evenodd" d="M30.0934 20.9774H18.3934L18.3934 22.9274H30.0934V20.9774ZM18.3934 19.6774C17.6755 19.6774 17.0934 20.2594 17.0934 20.9774V22.9274C17.0934 23.6453 17.6755 24.2274 18.3934 24.2274H30.0934C30.8114 24.2274 31.3934 23.6453 31.3934 22.9274V20.9774C31.3934 20.2594 30.8114 19.6774 30.0934 19.6774H18.3934Z" fill="#221F1F"/>
<path fill-rule="evenodd" clip-rule="evenodd" d="M19.0434 22.2773L19.0434 20.3273L19.6934 20.3273L19.6934 22.2773L19.0434 22.2773Z" fill="#221F1F"/>
<path fill-rule="evenodd" clip-rule="evenodd" d="M20.9934 22.2773L20.9934 20.3273L21.6434 20.3273L21.6434 22.2773L20.9934 22.2773Z" fill="#221F1F"/>
<path fill-rule="evenodd" clip-rule="evenodd" d="M22.9434 22.2773L22.9434 20.3273L23.5934 20.3273L23.5934 22.2773L22.9434 22.2773Z" fill="#221F1F"/>
<path fill-rule="evenodd" clip-rule="evenodd" d="M24.8934 22.2773L24.8934 20.3273L25.5434 20.3273L25.5434 22.2773L24.8934 22.2773Z" fill="#221F1F"/>
<path fill-rule="evenodd" clip-rule="evenodd" d="M26.8434 22.2773L26.8434 20.3273L27.4934 20.3273L27.4934 22.2773L26.8434 22.2773Z" fill="#221F1F"/>
<path fill-rule="evenodd" clip-rule="evenodd" d="M28.7934 22.2773L28.7934 20.3273L29.4434 20.3273L29.4434 22.2773L28.7934 22.2773Z" fill="#221F1F"/>
<path fill-rule="evenodd" clip-rule="evenodd" d="M45.6935 20.9774H33.9935L33.9935 22.9274H45.6935V20.9774ZM33.9935 19.6774C33.2755 19.6774 32.6935 20.2594 32.6935 20.9774V22.9274C32.6935 23.6453 33.2755 24.2274 33.9935 24.2274H45.6935C46.4115 24.2274 46.9935 23.6453 46.9935 22.9274V20.9774C46.9935 20.2594 46.4115 19.6774 45.6935 19.6774H33.9935Z" fill="#221F1F"/>
<path fill-rule="evenodd" clip-rule="evenodd" d="M34.6436 22.2773L34.6436 20.3273L35.2936 20.3273L35.2936 22.2773L34.6436 22.2773Z" fill="#221F1F"/>
<path fill-rule="evenodd" clip-rule="evenodd" d="M36.5936 22.2773L36.5936 20.3273L37.2436 20.3273L37.2436 22.2773L36.5936 22.2773Z" fill="#221F1F"/>
<path fill-rule="evenodd" clip-rule="evenodd" d="M38.5436 22.2773L38.5436 20.3273L39.1936 20.3273L39.1936 22.2773L38.5436 22.2773Z" fill="#221F1F"/>
<path fill-rule="evenodd" clip-rule="evenodd" d="M40.4936 22.2773L40.4936 20.3273L41.1436 20.3273L41.1436 22.2773L40.4936 22.2773Z" fill="#221F1F"/>
<path fill-rule="evenodd" clip-rule="evenodd" d="M42.4436 22.2773L42.4436 20.3273L43.0936 20.3273L43.0936 22.2773L42.4436 22.2773Z" fill="#221F1F"/>
<path fill-rule="evenodd" clip-rule="evenodd" d="M44.3936 22.2773L44.3936 20.3273L45.0436 20.3273L45.0436 22.2773L44.3936 22.2773Z" fill="#221F1F"/>
<path fill-rule="evenodd" clip-rule="evenodd" d="M14.4935 26.8273H2.79347L2.79347 28.7773H14.4935V26.8273ZM2.79347 25.5273C2.0755 25.5273 1.49347 26.1094 1.49347 26.8273V28.7773C1.49347 29.4953 2.0755 30.0773 2.79347 30.0773H14.4935C15.2114 30.0773 15.7935 29.4953 15.7935 28.7773V26.8273C15.7935 26.1094 15.2114 25.5273 14.4935 25.5273H2.79347Z" fill="#221F1F"/>
<path fill-rule="evenodd" clip-rule="evenodd" d="M3.44351 28.1274L3.44351 26.1774L4.09351 26.1774L4.09351 28.1274L3.44351 28.1274Z" fill="#221F1F"/>
<path fill-rule="evenodd" clip-rule="evenodd" d="M5.39352 28.1274L5.39352 26.1774L6.04352 26.1774L6.04352 28.1274L5.39352 28.1274Z" fill="#221F1F"/>
<path fill-rule="evenodd" clip-rule="evenodd" d="M7.34353 28.1274L7.34353 26.1774L7.99353 26.1774L7.99353 28.1274L7.34353 28.1274Z" fill="#221F1F"/>
<path fill-rule="evenodd" clip-rule="evenodd" d="M9.29354 28.1274L9.29354 26.1774L9.94354 26.1774L9.94354 28.1274L9.29354 28.1274Z" fill="#221F1F"/>
<path fill-rule="evenodd" clip-rule="evenodd" d="M11.2435 28.1274L11.2435 26.1774L11.8935 26.1774L11.8935 28.1274L11.2435 28.1274Z" fill="#221F1F"/>
<path fill-rule="evenodd" clip-rule="evenodd" d="M13.1935 28.1274L13.1935 26.1774L13.8435 26.1774L13.8435 28.1274L13.1935 28.1274Z" fill="#221F1F"/>
<path fill-rule="evenodd" clip-rule="evenodd" d="M30.0934 26.8273H18.3934L18.3934 28.7773H30.0934V26.8273ZM18.3934 25.5273C17.6755 25.5273 17.0934 26.1094 17.0934 26.8273V28.7773C17.0934 29.4953 17.6755 30.0773 18.3934 30.0773H30.0934C30.8114 30.0773 31.3934 29.4953 31.3934 28.7773V26.8273C31.3934 26.1094 30.8114 25.5273 30.0934 25.5273H18.3934Z" fill="#221F1F"/>
<path fill-rule="evenodd" clip-rule="evenodd" d="M19.0434 28.1274L19.0434 26.1774L19.6934 26.1774L19.6934 28.1274L19.0434 28.1274Z" fill="#221F1F"/>
<path fill-rule="evenodd" clip-rule="evenodd" d="M20.9934 28.1274L20.9934 26.1774L21.6434 26.1774L21.6434 28.1274L20.9934 28.1274Z" fill="#221F1F"/>
<path fill-rule="evenodd" clip-rule="evenodd" d="M22.9434 28.1274L22.9434 26.1774L23.5934 26.1774L23.5934 28.1274L22.9434 28.1274Z" fill="#221F1F"/>
<path fill-rule="evenodd" clip-rule="evenodd" d="M24.8934 28.1274L24.8934 26.1774L25.5434 26.1774L25.5434 28.1274L24.8934 28.1274Z" fill="#221F1F"/>
<path fill-rule="evenodd" clip-rule="evenodd" d="M26.8434 28.1274L26.8434 26.1774L27.4934 26.1774L27.4934 28.1274L26.8434 28.1274Z" fill="#221F1F"/>
<path fill-rule="evenodd" clip-rule="evenodd" d="M28.7934 28.1274L28.7934 26.1774L29.4434 26.1774L29.4434 28.1274L28.7934 28.1274Z" fill="#221F1F"/>
<path fill-rule="evenodd" clip-rule="evenodd" d="M45.6935 26.8273H33.9935L33.9935 28.7773H45.6935V26.8273ZM33.9935 25.5273C33.2755 25.5273 32.6935 26.1094 32.6935 26.8273V28.7773C32.6935 29.4953 33.2755 30.0773 33.9935 30.0773H45.6935C46.4115 30.0773 46.9935 29.4953 46.9935 28.7773V26.8273C46.9935 26.1094 46.4115 25.5273 45.6935 25.5273H33.9935Z" fill="#221F1F"/>
<path fill-rule="evenodd" clip-rule="evenodd" d="M34.6436 28.1274L34.6436 26.1774L35.2936 26.1774L35.2936 28.1274L34.6436 28.1274Z" fill="#221F1F"/>
<path fill-rule="evenodd" clip-rule="evenodd" d="M36.5936 28.1274L36.5936 26.1774L37.2436 26.1774L37.2436 28.1274L36.5936 28.1274Z" fill="#221F1F"/>
<path fill-rule="evenodd" clip-rule="evenodd" d="M38.5436 28.1274L38.5436 26.1774L39.1936 26.1774L39.1936 28.1274L38.5436 28.1274Z" fill="#221F1F"/>
<path fill-rule="evenodd" clip-rule="evenodd" d="M40.4936 28.1274L40.4936 26.1774L41.1436 26.1774L41.1436 28.1274L40.4936 28.1274Z" fill="#221F1F"/>
<path fill-rule="evenodd" clip-rule="evenodd" d="M42.4436 28.1274L42.4436 26.1774L43.0936 26.1774L43.0936 28.1274L42.4436 28.1274Z" fill="#221F1F"/>
<path fill-rule="evenodd" clip-rule="evenodd" d="M44.3936 28.1274L44.3936 26.1774L45.0436 26.1774L45.0436 28.1274L44.3936 28.1274Z" fill="#221F1F"/>
<path fill-rule="evenodd" clip-rule="evenodd" d="M45.6935 15.1274H33.9935L33.9935 17.0774H45.6935V15.1274ZM33.9935 13.8274C33.2755 13.8274 32.6935 14.4094 32.6935 15.1274V17.0774C32.6935 17.7954 33.2755 18.3774 33.9935 18.3774H45.6935C46.4115 18.3774 46.9935 17.7954 46.9935 17.0774V15.1274C46.9935 14.4094 46.4115 13.8274 45.6935 13.8274H33.9935Z" fill="#BC1E2C"/>
<path fill-rule="evenodd" clip-rule="evenodd" d="M34.6436 16.4274L34.6436 14.4774L35.2936 14.4774L35.2936 16.4274L34.6436 16.4274Z" fill="#BC1E2C"/>
<path fill-rule="evenodd" clip-rule="evenodd" d="M36.5936 16.4274L36.5936 14.4774L37.2436 14.4774L37.2436 16.4274L36.5936 16.4274Z" fill="#BC1E2C"/>
<path fill-rule="evenodd" clip-rule="evenodd" d="M38.5436 16.4274L38.5436 14.4774L39.1936 14.4774L39.1936 16.4274L38.5436 16.4274Z" fill="#BC1E2C"/>
<path fill-rule="evenodd" clip-rule="evenodd" d="M40.4936 16.4274L40.4936 14.4774L41.1436 14.4774L41.1436 16.4274L40.4936 16.4274Z" fill="#BC1E2C"/>
<path fill-rule="evenodd" clip-rule="evenodd" d="M42.4436 16.4274L42.4436 14.4774L43.0936 14.4774L43.0936 16.4274L42.4436 16.4274Z" fill="#BC1E2C"/>
<path fill-rule="evenodd" clip-rule="evenodd" d="M44.3936 16.4274L44.3936 14.4774L45.0436 14.4774L45.0436 16.4274L44.3936 16.4274Z" fill="#BC1E2C"/>
<path fill-rule="evenodd" clip-rule="evenodd" d="M39.9194 0.506836L46.3379 1.26196L43.6824 6.95226L42.5044 6.40251L43.9427 3.32046L30.8164 10.4802L27.8804 5.26062L1.13411 18.6338L0.552734 17.471L28.4064 3.54415L31.3204 8.72453L43.2648 2.20939L39.7675 1.79793L39.9194 0.506836Z" fill="black"/>
<path fill-rule="evenodd" clip-rule="evenodd" d="M17.0935 7.97739H1.49347V7.32739H17.0935V7.97739Z" fill="#BC1E2C"/>
<path fill-rule="evenodd" clip-rule="evenodd" d="M37.2435 1.47739H1.49347V0.827393H37.2435V1.47739Z" fill="#BC1E2C"/>
</svg>
