<svg width="57" height="52" viewBox="0 0 57 52" fill="none" xmlns="http://www.w3.org/2000/svg">
<path fill-rule="evenodd" clip-rule="evenodd" d="M22.9159 6.52435L10.6935 27.6941L24.0561 35.409L36.2785 14.2393L22.9159 6.52435ZM8.91766 28.1699L24.5319 37.1848L38.0543 13.7634L22.44 4.74852L8.91766 28.1699Z" fill="#221F1F"/>
<path fill-rule="evenodd" clip-rule="evenodd" d="M30.377 27.4066L52.0112 41.0782L55.1656 35.6146L32.5085 23.7147L30.377 27.4066ZM32.0072 21.983L28.6266 27.8383L52.4605 42.9L56.9679 35.0929L32.0072 21.983Z" fill="#221F1F"/>
<path fill-rule="evenodd" clip-rule="evenodd" d="M38.4355 13.8836L22.1452 4.47841C21.9142 4.34508 21.7961 4.09145 21.8241 3.84239L39.1468 13.8436C38.9451 13.9925 38.6664 14.0169 38.4355 13.8836ZM39.734 14.1826C39.7907 14.1185 39.8418 14.0477 39.8863 13.9707L40.0814 13.6327L21.5395 2.92749L21.3443 3.2655C21.2999 3.34252 21.2642 3.4222 21.237 3.50338C21.0444 4.07756 21.2754 4.72681 21.8202 5.04133L38.1105 14.4465C38.6552 14.761 39.333 14.6365 39.734 14.1826Z" fill="#221F1F"/>
<path fill-rule="evenodd" clip-rule="evenodd" d="M8.53603 28.0496L24.8263 37.4548C25.0841 37.6036 25.2014 37.9023 25.1316 38.1773L7.75771 28.1465C7.96094 27.9486 8.27827 27.9008 8.53603 28.0496ZM7.18402 27.8152C7.14827 27.8614 7.11521 27.9105 7.0852 27.9625L6.84868 28.3722L25.3906 39.0774L25.6271 38.6677C25.6572 38.6157 25.6832 38.5626 25.7053 38.5085C25.9477 37.9161 25.7211 37.2209 25.1513 36.8919L8.86103 27.4867C8.29123 27.1577 7.57591 27.3091 7.18402 27.8152Z" fill="#221F1F"/>
<path fill-rule="evenodd" clip-rule="evenodd" d="M23.4677 0.887944L22.1457 3.17773L39.5618 13.2329L40.8839 10.9431L23.4677 0.887944ZM21.2578 3.41565L39.7998 14.1208L41.7718 10.7052L23.2298 2.76988e-05L21.2578 3.41565Z" fill="#221F1F"/>
<path fill-rule="evenodd" clip-rule="evenodd" d="M23.5039 41.0453L24.826 38.7555L7.40984 28.7003L6.08783 30.9901L23.5039 41.0453ZM25.7139 38.5176L7.17192 27.8124L5.19991 31.228L23.7419 41.9332L25.7139 38.5176Z" fill="#BC1E2C"/>
<path fill-rule="evenodd" clip-rule="evenodd" d="M25.35 50.05H0.65V51.35H25.35V50.05ZM0 49.4V52H26V49.4H0Z" fill="#221F1F"/>
<path fill-rule="evenodd" clip-rule="evenodd" d="M20.8 48.1H5.19998C4.35093 48.1 3.62863 48.6426 3.36093 49.4H22.639C22.3713 48.6426 21.649 48.1 20.8 48.1ZM23.3181 49.4C23.0294 48.2786 22.0115 47.45 20.8 47.45H5.19998C3.98848 47.45 2.97051 48.2786 2.68189 49.4C2.62842 49.6077 2.59998 49.8255 2.59998 50.05H23.4C23.4 49.8255 23.3715 49.6077 23.3181 49.4Z" fill="#221F1F"/>
<path fill-rule="evenodd" clip-rule="evenodd" d="M12.35 46.15L12.35 40.95L13 40.95L13 46.15L12.35 46.15Z" fill="#221F1F"/>
<path fill-rule="evenodd" clip-rule="evenodd" d="M14.9499 45.2769L18.6268 41.6L19.0864 42.0596L15.4095 45.7365L14.9499 45.2769Z" fill="#221F1F"/>
<path fill-rule="evenodd" clip-rule="evenodd" d="M10.177 45.2769L6.50002 41.6L6.04041 42.0596L9.71736 45.7365L10.177 45.2769Z" fill="#221F1F"/>
</svg>
