<svg width="55" height="43" viewBox="0 0 55 43" fill="none" xmlns="http://www.w3.org/2000/svg">
<path fill-rule="evenodd" clip-rule="evenodd" d="M31.2481 0.845215L54.3712 14.1954L53.7212 15.3212L31.2481 2.34633L8.775 15.3212L8.125 14.1954L31.2481 0.845215Z" fill="#221F1F"/>
<path fill-rule="evenodd" clip-rule="evenodd" d="M40.597 12.7919L39.3413 13.1283L43.0424 26.9411L44.2981 26.6046L40.597 12.7919ZM39.173 12.5005C38.8263 12.5934 38.6205 12.9498 38.7134 13.2966L42.4145 27.1093C42.5074 27.456 42.8638 27.6618 43.2106 27.5689L44.4663 27.2324C44.8131 27.1395 45.0188 26.7831 44.9259 26.4364L41.2248 12.6236C41.1319 12.2769 40.7755 12.0711 40.4287 12.164L39.173 12.5005Z" fill="#221F1F"/>
<path fill-rule="evenodd" clip-rule="evenodd" d="M2.05179 27.1575L0.796084 27.494L2.47841 33.7725L3.73411 33.436L2.05179 27.1575ZM0.627852 26.8661C0.281099 26.959 0.0753202 27.3155 0.168232 27.6622L1.85056 33.9407C1.94347 34.2875 2.29989 34.4933 2.64664 34.4004L3.90234 34.0639C4.2491 33.971 4.45488 33.6146 4.36196 33.2678L2.67964 26.9893C2.58673 26.6425 2.23031 26.4368 1.88356 26.5297L0.627852 26.8661Z" fill="#221F1F"/>
<path fill-rule="evenodd" clip-rule="evenodd" d="M3.71375 28.3376L4.58337 31.5831L16.5757 28.6224L15.5798 24.9054L3.71375 28.3376ZM2.12817 27.4429L3.65755 33.1507L18.1746 29.5667L16.4923 23.2882L2.12817 27.4429Z" fill="#221F1F"/>
<path fill-rule="evenodd" clip-rule="evenodd" d="M16.4331 23.0672L18.2339 29.7876L27.1189 27.7875L25.1279 20.3568L16.4331 23.0672ZM15.4503 22.0119C15.1173 22.1157 14.9256 22.4638 15.0159 22.8007L17.1397 30.7271C17.23 31.064 17.5701 31.2696 17.9103 31.193L28.725 28.7585L26.0333 18.7129L15.4503 22.0119Z" fill="#221F1F"/>
<path fill-rule="evenodd" clip-rule="evenodd" d="M26.0196 18.6615L28.7388 28.8096L41.436 25.9682L38.4365 14.7737L26.0196 18.6615ZM25.0362 17.6072C24.7036 17.7113 24.5124 18.0592 24.6026 18.3957L27.6445 29.7483C27.7346 30.0849 28.0742 30.2905 28.4143 30.2144L43.0425 26.9408L39.3414 13.1281L25.0362 17.6072Z" fill="#221F1F"/>
<path fill-rule="evenodd" clip-rule="evenodd" d="M50.05 38.6458L50.05 12.6458L50.7 12.6458L50.7 38.6458L50.05 38.6458Z" fill="#221F1F"/>
<path fill-rule="evenodd" clip-rule="evenodd" d="M12.35 21.7458L12.35 11.9958L13 11.9958L13 21.7458L12.35 21.7458Z" fill="#221F1F"/>
<path fill-rule="evenodd" clip-rule="evenodd" d="M12.35 38.6458L12.35 34.7458L13 34.7458L13 38.6458L12.35 38.6458Z" fill="#221F1F"/>
<path fill-rule="evenodd" clip-rule="evenodd" d="M50.7 39.9459H12.35V41.2459H50.7V39.9459ZM11.05 38.6459V42.5459H52V38.6459H11.05Z" fill="#BC1E2C"/>
<path fill-rule="evenodd" clip-rule="evenodd" d="M37.0499 17.1958L28.5999 19.7958L28.4088 19.1746L36.8588 16.5746L37.0499 17.1958Z" fill="#BC1E2C"/>
</svg>
