<svg width="70" height="73" viewBox="0 0 70 73" fill="none" xmlns="http://www.w3.org/2000/svg">
<path fill-rule="evenodd" clip-rule="evenodd" d="M10.992 50L10.636 49.131C10.1248 49.3156 9.86975 49.8543 10.0664 50.3342C10.2629 50.814 10.8364 51.0534 11.3475 50.8692L11.352 50.8676L11.3745 50.8597C11.3956 50.8523 11.4289 50.8408 11.4742 50.8257C11.5647 50.7953 11.7029 50.7502 11.8863 50.6937C12.2531 50.5806 12.8005 50.4221 13.5093 50.2451C14.9272 49.8911 16.9884 49.4639 19.5389 49.1788C24.6418 48.6085 31.686 48.609 39.4563 50.8887C47.5553 53.2647 55.0151 53.2633 60.445 52.6705C63.1614 52.374 65.3756 51.9289 66.9158 51.5562C67.6861 51.3698 68.2885 51.2014 68.7016 51.0784C68.9081 51.0169 69.0675 50.9668 69.1768 50.9314C69.2315 50.9137 69.2737 50.8998 69.3031 50.8899L69.3376 50.8782L69.3475 50.8748L69.3517 50.8734C69.3522 50.8732 69.3525 50.8731 69.0081 50.0001L69.3517 50.8734C69.8654 50.6948 70.1283 50.1588 69.9381 49.6766C69.7479 49.1946 69.1777 48.9485 68.6643 49.1267L68.6591 49.1285L68.6353 49.1365C68.6131 49.144 68.5782 49.1556 68.5309 49.1709C68.4364 49.2014 68.2926 49.2467 68.1021 49.3034C67.721 49.4169 67.1535 49.5758 66.4207 49.7531C64.9547 50.1078 62.8301 50.5355 60.2159 50.8209C54.9848 51.3919 47.8166 51.3905 40.0479 49.1113C31.9506 46.7358 24.6147 46.7363 19.3045 47.3298C16.6484 47.6266 14.4947 48.0723 12.9995 48.4456C12.2516 48.6323 11.6679 48.8011 11.2676 48.9245C11.0675 48.9862 10.9132 49.0365 10.8071 49.0721C10.7541 49.0898 10.7131 49.1039 10.6845 49.1139L10.6508 49.1257L10.6411 49.1292L10.6379 49.1303L10.636 49.131C10.6355 49.1312 10.636 49.131 10.992 50Z" fill="#221F1F"/>
<path fill-rule="evenodd" clip-rule="evenodd" d="M10.992 10L10.636 9.13102C10.1248 9.31561 9.86975 9.8543 10.0664 10.3342C10.2629 10.814 10.8364 11.0534 11.3475 10.8692L11.352 10.8676L11.3745 10.8597C11.3956 10.8523 11.4289 10.8408 11.4742 10.8257C11.5647 10.7953 11.7029 10.7502 11.8863 10.6937C12.2531 10.5806 12.8005 10.4221 13.5093 10.2451C14.9272 9.89109 16.9884 9.46387 19.5389 9.17881C24.6418 8.60851 31.686 8.60904 39.4563 10.8887C47.5553 13.2647 55.0151 13.2633 60.445 12.6705C63.1614 12.374 65.3756 11.9289 66.9158 11.5562C67.6861 11.3698 68.2885 11.2014 68.7016 11.0784C68.9081 11.0169 69.0675 10.9668 69.1768 10.9314C69.2315 10.9137 69.2737 10.8998 69.3031 10.8899L69.3376 10.8782L69.3475 10.8748L69.3517 10.8734C69.3522 10.8732 69.3525 10.8731 69.0081 10.0001L69.3517 10.8734C69.8654 10.6948 70.1283 10.1588 69.9381 9.67664C69.7479 9.19464 69.1777 8.94853 68.6643 9.1267L68.6591 9.12848L68.6353 9.13653C68.6131 9.14399 68.5782 9.15558 68.5309 9.17085C68.4364 9.20141 68.2926 9.24673 68.1021 9.30344C67.721 9.41687 67.1535 9.57576 66.4207 9.75306C64.9547 10.1078 62.8301 10.5355 60.2159 10.8209C54.9848 11.3919 47.8166 11.3905 40.0479 9.11134C31.9506 6.73577 24.6147 6.7363 19.3045 7.32979C16.6484 7.62664 14.4947 8.07226 12.9995 8.4456C12.2516 8.63232 11.6679 8.80112 11.2676 8.92447C11.0675 8.98616 10.9132 9.0365 10.8071 9.07206C10.7541 9.08984 10.7131 9.10393 10.6845 9.1139L10.6508 9.12571L10.6411 9.1292L10.6379 9.13032L10.636 9.13102C10.6355 9.13118 10.636 9.13102 10.992 10Z" fill="#221F1F"/>
<path fill-rule="evenodd" clip-rule="evenodd" d="M68 50L68 10L70 10L70 50L68 50Z" fill="#221F1F"/>
<path fill-rule="evenodd" clip-rule="evenodd" d="M10 65L10 5L12 5L12 65L10 65Z" fill="#221F1F"/>
<path fill-rule="evenodd" clip-rule="evenodd" d="M11 5C12.1046 5 13 4.10457 13 3C13 1.89543 12.1046 1 11 1C9.89543 1 9 1.89543 9 3C9 4.10457 9.89543 5 11 5ZM11 6C12.6569 6 14 4.65685 14 3C14 1.34315 12.6569 0 11 0C9.34315 0 8 1.34315 8 3C8 4.65685 9.34315 6 11 6Z" fill="#BC1E2C"/>
<path fill-rule="evenodd" clip-rule="evenodd" d="M16 65H6C5.44772 65 5 65.4477 5 66V68H17V66C17 65.4477 16.5523 65 16 65ZM6 64C4.89543 64 4 64.8954 4 66V69H18V66C18 64.8954 17.1046 64 16 64H6Z" fill="#221F1F"/>
<path fill-rule="evenodd" clip-rule="evenodd" d="M20 69H2C1.44772 69 1 69.4477 1 70V72H21V70C21 69.4477 20.5523 69 20 69ZM2 68C0.895431 68 0 68.8954 0 70V73H22V70C22 68.8954 21.1046 68 20 68H2Z" fill="#221F1F"/>
<path fill-rule="evenodd" clip-rule="evenodd" d="M57.9652 31.5802L56.9673 31.5157C56.989 31.1801 57 30.8414 57 30.5C57 30.1586 56.989 29.8199 56.9673 29.4843L57.9652 29.4198C57.9883 29.7769 58 30.1371 58 30.5C58 30.8629 57.9883 31.2231 57.9652 31.5802ZM57.6859 27.2798L56.705 27.4739C56.5725 26.8046 56.397 26.1509 56.1815 25.5157L57.1284 25.1943C57.358 25.8708 57.5449 26.5671 57.6859 27.2798ZM56.3017 23.2007L55.4052 23.6436C55.1045 23.0351 54.765 22.449 54.3899 21.8887L55.2208 21.3323C55.6201 21.9288 55.9816 22.5527 56.3017 23.2007ZM53.9056 19.6207L53.154 20.2804C52.7075 19.7717 52.2283 19.2925 51.7196 18.846L52.3793 18.0944C52.9206 18.5695 53.4305 19.0794 53.9056 19.6207ZM50.6677 16.7792L50.1113 17.6101C49.551 17.235 48.9649 16.8955 48.3564 16.5948L48.7993 15.6983C49.4473 16.0184 50.0712 16.3799 50.6677 16.7792ZM46.8057 14.8716L46.4843 15.8185C45.8491 15.603 45.1954 15.4275 44.5261 15.295L44.7202 14.3141C45.4329 14.4551 46.1292 14.642 46.8057 14.8716ZM42.5802 14.0348L42.5157 15.0327C42.1801 15.011 41.8414 15 41.5 15C41.1586 15 40.8199 15.011 40.4843 15.0327L40.4198 14.0348C40.7769 14.0117 41.1371 14 41.5 14C41.8629 14 42.2231 14.0117 42.5802 14.0348ZM38.2798 14.3141L38.4739 15.295C37.8046 15.4275 37.1509 15.603 36.5157 15.8185L36.1943 14.8716C36.8708 14.642 37.5671 14.4551 38.2798 14.3141ZM34.2007 15.6983L34.6436 16.5948C34.0351 16.8955 33.449 17.235 32.8887 17.6101L32.3323 16.7792C32.9288 16.3799 33.5527 16.0184 34.2007 15.6983ZM30.6207 18.0944L31.2804 18.846C30.7717 19.2925 30.2925 19.7717 29.846 20.2804L29.0944 19.6207C29.5695 19.0794 30.0794 18.5695 30.6207 18.0944ZM27.7792 21.3323L28.6101 21.8887C28.235 22.449 27.8955 23.0351 27.5948 23.6436L26.6983 23.2007C27.0184 22.5527 27.3799 21.9288 27.7792 21.3323ZM25.8716 25.1943L26.8185 25.5157C26.603 26.1509 26.4275 26.8046 26.295 27.4739L25.3141 27.2798C25.4551 26.5671 25.642 25.8708 25.8716 25.1943ZM25.0348 29.4198C25.0117 29.7769 25 30.1371 25 30.5C25 30.8629 25.0117 31.2231 25.0348 31.5802L26.0327 31.5157C26.011 31.1801 26 30.8414 26 30.5C26 30.1586 26.011 29.8199 26.0327 29.4843L25.0348 29.4198ZM25.3141 33.7202L26.295 33.5261C26.4275 34.1954 26.603 34.8491 26.8185 35.4843L25.8716 35.8057C25.642 35.1292 25.4551 34.4329 25.3141 33.7202ZM26.6983 37.7993L27.5948 37.3564C27.8955 37.9649 28.235 38.551 28.6101 39.1113L27.7792 39.6677C27.3799 39.0712 27.0184 38.4473 26.6983 37.7993ZM29.0944 41.3793L29.846 40.7196C30.2925 41.2283 30.7717 41.7075 31.2804 42.154L30.6207 42.9056C30.0794 42.4305 29.5695 41.9206 29.0944 41.3793ZM32.3323 44.2208L32.8887 43.3899C33.449 43.765 34.0351 44.1045 34.6436 44.4052L34.2007 45.3017C33.5527 44.9816 32.9288 44.6201 32.3323 44.2208ZM36.1943 46.1284L36.5157 45.1815C37.1509 45.397 37.8046 45.5725 38.4739 45.705L38.2798 46.6859C37.5671 46.5449 36.8708 46.358 36.1943 46.1284ZM40.4198 46.9652L40.4843 45.9673C40.8199 45.989 41.1586 46 41.5 46C41.8414 46 42.1801 45.989 42.5157 45.9673L42.5802 46.9652C42.2231 46.9883 41.8629 47 41.5 47C41.1371 47 40.7769 46.9883 40.4198 46.9652ZM44.7202 46.6859L44.5261 45.705C45.1954 45.5725 45.8491 45.397 46.4843 45.1815L46.8057 46.1284C46.1292 46.358 45.4329 46.5449 44.7202 46.6859ZM48.7993 45.3017L48.3564 44.4052C48.9649 44.1045 49.551 43.765 50.1113 43.3899L50.6677 44.2208C50.0712 44.6201 49.4473 44.9816 48.7993 45.3017ZM52.3793 42.9056L51.7196 42.154C52.2283 41.7075 52.7075 41.2283 53.154 40.7196L53.9056 41.3793C53.4305 41.9206 52.9206 42.4305 52.3793 42.9056ZM55.2208 39.6677L54.3899 39.1113C54.765 38.551 55.1045 37.9649 55.4052 37.3564L56.3017 37.7993C55.9816 38.4473 55.6201 39.0712 55.2208 39.6677ZM57.1284 35.8057L56.1815 35.4843C56.397 34.8491 56.5725 34.1954 56.705 33.5261L57.6859 33.7202C57.5449 34.4329 57.358 35.1292 57.1284 35.8057Z" fill="#BC1E2C"/>
<path fill-rule="evenodd" clip-rule="evenodd" d="M41.5 43C48.4036 43 54 37.4036 54 30.5C54 23.5964 48.4036 18 41.5 18C34.5964 18 29 23.5964 29 30.5C29 37.4036 34.5964 43 41.5 43ZM41.5 44C48.9558 44 55 37.9558 55 30.5C55 23.0442 48.9558 17 41.5 17C34.0442 17 28 23.0442 28 30.5C28 37.9558 34.0442 44 41.5 44Z" fill="#221F1F"/>
<path fill-rule="evenodd" clip-rule="evenodd" d="M45.9291 39.5603C47.1893 37.292 48 34.0907 48 30.5C48 26.9093 47.1893 23.708 45.9291 21.4397C44.6502 19.1376 43.043 18 41.5 18C39.957 18 38.3498 19.1376 37.0709 21.4397C35.8107 23.708 35 26.9093 35 30.5C35 34.0907 35.8107 37.292 37.0709 39.5603C38.3498 41.8624 39.957 43 41.5 43C43.043 43 44.6502 41.8624 45.9291 39.5603ZM41.5 44C45.6421 44 49 37.9558 49 30.5C49 23.0442 45.6421 17 41.5 17C37.3579 17 34 23.0442 34 30.5C34 37.9558 37.3579 44 41.5 44Z" fill="#221F1F"/>
<path fill-rule="evenodd" clip-rule="evenodd" d="M41 44L41 17L42 17L42 44L41 44Z" fill="#221F1F"/>
<path fill-rule="evenodd" clip-rule="evenodd" d="M29 30L55 30L55 31L29 31L29 30Z" fill="#221F1F"/>
<path fill-rule="evenodd" clip-rule="evenodd" d="M30 24L53 24V25L30 25V24Z" fill="#221F1F"/>
<path fill-rule="evenodd" clip-rule="evenodd" d="M30 36H53V37H30V36Z" fill="#221F1F"/>
</svg>
