<svg width="67" height="84" viewBox="0 0 67 84" fill="none" xmlns="http://www.w3.org/2000/svg">
<path fill-rule="evenodd" clip-rule="evenodd" d="M19.1338 61.3416V84.0003L25.9671 79.4447L32.8005 84.0003V62.9092C32.4541 62.9681 32.1139 63.0892 31.8005 63.2727V82.1317L30.0664 80.9757L30.0664 64.3634C29.7462 64.489 29.4119 64.5782 29.0664 64.6311L29.0664 80.309L25.9671 78.2428L22.7773 80.3694L22.7773 61.0144C22.4603 60.8864 22.1211 60.8181 21.7773 60.8129L21.7773 81.036L20.1338 82.1317V61.2011C19.8023 61.288 19.4677 61.3336 19.1338 61.3416ZM34.6221 63.2038V75.8001L41.4554 71.2445L48.2887 75.8001V61.2443C47.9585 61.2944 47.6238 61.3115 47.2887 61.2956V73.9315L45.5557 72.7762V60.9235C45.2259 60.8313 44.8872 60.8065 44.5557 60.8408V72.1095L41.4554 70.0427L38.2666 72.1685V64.6831C37.9317 64.6961 37.5961 64.6708 37.2666 64.6087V72.8352L35.6221 73.9315V63.9458C35.4303 63.8203 35.2466 63.6793 35.0731 63.5233C34.9336 63.3992 34.7822 63.2927 34.6221 63.2038Z" fill="#221F1F"/>
<path fill-rule="evenodd" clip-rule="evenodd" d="M64.5462 43.6108C65.0375 42.2509 64.9392 40.7939 64.1533 39.6283C63.3673 38.4627 63.662 36.9085 64.7427 36.0343C65.8234 35.1601 66.5111 33.8002 66.5111 32.3432C66.5111 30.8862 65.8234 29.6234 64.7427 28.6521C63.662 27.7779 63.3673 26.2237 64.1533 25.0581C64.9392 23.7954 65.0375 22.3384 64.5462 21.0756C64.055 19.7158 62.9743 18.7444 61.5989 18.2587C60.3217 17.7731 59.5358 16.5103 59.7323 15.1504C60.027 13.7906 59.634 12.3336 58.7498 11.2651C57.8656 10.1966 56.4902 9.6138 55.1148 9.6138H55.0166C53.6412 9.6138 52.4622 8.64245 52.2657 7.28258C52.0693 5.9227 51.1851 4.65995 49.9079 3.98001C48.6307 3.30007 47.1571 3.1058 45.7816 3.68861C44.5045 4.17428 43.0308 3.68861 42.3431 2.42586C41.6554 1.16312 40.4765 0.288912 39.0028 0.0946435C37.6274 -0.196759 36.1537 0.288912 35.0731 1.16312C33.9924 2.03733 32.4205 2.03733 31.438 1.16312C30.3574 0.191778 28.8837 -0.196759 27.5083 0.0946435C26.1329 0.386046 24.8557 1.16312 24.168 2.42586C23.4803 3.59148 22.0066 4.17428 20.7295 3.68861C19.354 3.20294 17.8804 3.30007 16.6032 3.98001C15.326 4.65995 14.5401 5.9227 14.2454 7.28258C14.0489 8.64245 12.7717 9.6138 11.4945 9.6138C10.0209 9.6138 8.74371 10.1966 7.76127 11.2651C6.87707 12.3336 6.4841 13.7906 6.77883 15.1504C7.07356 16.5103 6.28761 17.8702 4.91219 18.2587C3.53678 18.7444 2.4561 19.7158 1.96488 21.0756C1.47366 22.4355 1.5719 23.8925 2.35785 25.0581C3.04556 26.2237 2.75083 27.7779 1.76839 28.6521C0.687707 29.5263 0 30.8862 0 32.3432C0 33.8002 0.687707 35.063 1.76839 36.0343C2.84907 36.9085 3.1438 38.4627 2.35785 39.6283C1.5719 40.891 1.47366 42.348 1.96488 43.6108C2.4561 44.9706 3.53678 45.942 4.91219 46.4277C6.18936 46.9133 6.97532 48.1761 6.77883 49.5359C6.4841 50.8958 6.87707 52.3528 7.76127 53.4213C8.64546 54.4898 10.0209 55.0726 11.4945 55.0726C12.8699 55.0726 14.0489 56.0439 14.2454 57.4038C14.4418 58.7637 15.326 60.0264 16.6032 60.7064C17.8804 61.3863 19.354 61.5806 20.7295 60.9978C22.0066 60.5121 23.4803 60.9978 24.168 62.2605C24.8557 63.5233 26.0346 64.3975 27.5083 64.5918C27.6705 64.5918 27.8328 64.6212 27.9787 64.6477C28.0977 64.6693 28.2059 64.6889 28.2942 64.6889C29.4732 64.6889 30.5538 64.3004 31.438 63.5233C32.5187 62.6491 34.0906 62.6491 35.0731 63.5233C36.1537 64.4946 37.6274 64.8832 39.0028 64.5918C40.3782 64.3004 41.6554 63.5233 42.3431 62.2605C43.0308 61.0949 44.5045 60.5121 45.7816 60.9978C47.1571 61.4835 48.6307 61.3863 49.9079 60.7064C51.1851 60.0264 51.971 58.7637 52.2657 57.4038C52.4622 56.0439 53.6412 55.0726 55.0166 55.0726C56.4902 55.0726 57.7674 54.4898 58.7498 53.4213C59.634 52.3528 60.027 50.8958 59.7323 49.5359C59.4375 48.1761 60.2235 46.8162 61.5989 46.4277C62.9743 45.942 64.055 44.9706 64.5462 43.6108ZM60.9792 44.5251C61.8407 44.2083 62.4086 43.6416 62.6652 42.9313C62.9744 42.0753 62.8703 41.303 62.495 40.7464C61.0864 38.6573 61.6586 35.9567 63.4849 34.4794C64.113 33.9712 64.5111 33.1751 64.5111 32.3432C64.5111 31.5781 64.1668 30.8353 63.4357 30.1667C61.6595 28.6902 61.1059 26.0433 62.4693 23.9785C62.9049 23.2636 62.9454 22.4771 62.6823 21.8007L62.6735 21.778L62.6652 21.7551C62.404 21.0321 61.8204 20.458 60.933 20.1446L60.9104 20.1367L60.888 20.1281C58.779 19.3261 57.4159 17.1964 57.7528 14.8644L57.7628 14.7952L57.7777 14.7268C57.9343 14.004 57.727 13.1661 57.209 12.5402C56.7421 11.976 55.9554 11.6138 55.1148 11.6138H55.0166C52.6996 11.6138 50.6323 9.96341 50.2863 7.56858C50.183 6.85389 49.696 6.13296 48.968 5.74542C48.1082 5.28768 47.2719 5.22928 46.5619 5.53011L46.5275 5.54471L46.4925 5.55801C44.3217 6.38351 41.7737 5.56194 40.5867 3.38243C40.1824 2.64009 39.5365 2.18231 38.7414 2.07749L38.6644 2.06733L38.5883 2.05121C37.9246 1.91059 37.0497 2.13659 36.3309 2.71805L35.0812 1.17318L36.3309 2.71805C34.5539 4.15555 31.8828 4.23609 30.1085 2.65724L30.1011 2.6506L30.1011 2.65058C29.492 2.1031 28.668 1.89333 27.9228 2.05121C26.9745 2.25213 26.2687 2.75029 25.9244 3.38243L25.908 3.41259L25.8905 3.44216C24.7523 5.37134 22.2981 6.40858 20.0465 5.56852C19.1894 5.27085 18.3061 5.33919 17.5431 5.74542C16.907 6.08405 16.418 6.76099 16.2116 7.65426C15.8209 10.0424 13.6439 11.6138 11.4945 11.6138C10.6149 11.6138 9.87848 11.9365 9.27036 12.5793C8.77572 13.2007 8.58002 14.0189 8.73345 14.7268C9.24244 17.0753 7.89554 19.4517 5.53187 20.1613C4.67036 20.4781 4.1025 21.0448 3.84592 21.7551C3.5367 22.6111 3.64082 23.3834 4.0161 23.94L4.04978 23.99L4.08039 24.0418C5.27952 26.0743 4.75589 28.6709 3.09791 30.1462L3.06279 30.1775L3.02624 30.207C2.3981 30.7152 2 31.5113 2 32.3432C2 33.1083 2.34427 33.8511 3.0754 34.5197C4.85163 35.9962 5.40521 38.6433 4.0417 40.708C3.60619 41.4229 3.5657 42.2093 3.82881 42.8857L3.83764 42.9084L3.84592 42.9313C4.10707 43.6543 4.69065 44.2284 5.57812 44.5418L5.60069 44.5498L5.62307 44.5583C7.73214 45.3603 9.09522 47.49 8.75827 49.822L8.74827 49.8912L8.73345 49.9596C8.57678 50.6824 8.78415 51.5203 9.3021 52.1462C9.7562 52.695 10.5335 53.0726 11.4945 53.0726C13.8115 53.0726 15.8788 54.723 16.2248 57.1178C16.3281 57.8325 16.8151 58.5534 17.5431 58.941C18.4029 59.3987 19.2392 59.4571 19.9492 59.1563L19.9836 59.1417L20.0186 59.1284C22.1894 58.3029 24.7374 59.1245 25.9244 61.304C26.3144 62.0201 26.9292 62.4714 27.686 62.5965C27.949 62.6102 28.1713 62.6502 28.2852 62.6707L28.2919 62.6719C28.3185 62.6767 28.3393 62.6804 28.3559 62.6834C28.3651 62.6851 28.3731 62.6865 28.3801 62.6878C29.0587 62.6703 29.6357 62.4447 30.1178 62.021L30.1484 61.994L30.1802 61.9683C31.9572 60.5309 34.6283 60.4503 36.4026 62.0292L36.41 62.0358C37.0191 62.5833 37.8431 62.7931 38.5883 62.6352C39.5366 62.4343 40.2424 61.9361 40.5867 61.304L40.6031 61.2738L40.6206 61.2442C41.7588 59.3151 44.2129 58.2778 46.4645 59.1179C47.3217 59.4156 48.205 59.3472 48.968 58.941C49.604 58.6024 50.093 57.9256 50.2994 57.0326C50.6816 54.6839 52.7271 53.0726 55.0166 53.0726C55.8961 53.0726 56.6326 52.7499 57.2407 52.1071C57.7354 51.4857 57.9311 50.6675 57.7777 49.9596C57.2687 47.6111 58.6156 45.2347 60.9792 44.5251ZM28.4307 62.6965C28.4302 62.6964 28.4296 62.6963 28.4291 62.6962L28.4307 62.6965Z" fill="#221F1F"/>
<path fill-rule="evenodd" clip-rule="evenodd" d="M33.2558 55.4888C46.0381 55.4888 56.4002 45.1267 56.4002 32.3444C56.4002 19.5621 46.0381 9.19995 33.2558 9.19995C20.4734 9.19995 10.1113 19.5621 10.1113 32.3444C10.1113 45.1267 20.4734 55.4888 33.2558 55.4888ZM33.2558 56.4888C46.5904 56.4888 57.4002 45.679 57.4002 32.3444C57.4002 19.0098 46.5904 8.19995 33.2558 8.19995C19.9212 8.19995 9.11133 19.0098 9.11133 32.3444C9.11133 45.679 19.9212 56.4888 33.2558 56.4888Z" fill="#BC1E2C"/>
<path fill-rule="evenodd" clip-rule="evenodd" d="M23.2774 37.0405C26.4741 37.0405 29.0655 34.4491 29.0655 31.2524C29.0655 28.0557 26.4741 25.4642 23.2774 25.4642C20.0807 25.4642 17.4893 28.0557 17.4893 31.2524C17.4893 34.4491 20.0807 37.0405 23.2774 37.0405ZM23.2774 39.0405C27.5786 39.0405 31.0655 35.5536 31.0655 31.2524C31.0655 26.9511 27.5786 23.4642 23.2774 23.4642C18.9761 23.4642 15.4893 26.9511 15.4893 31.2524C15.4893 35.5536 18.9761 39.0405 23.2774 39.0405Z" fill="#221F1F"/>
<path fill-rule="evenodd" clip-rule="evenodd" d="M22.1848 27.2105C20.8461 27.7524 19.7764 28.822 19.2346 30.1607L18.3076 29.7855C18.9511 28.1958 20.2198 26.9271 21.8096 26.2836L22.1848 27.2105Z" fill="#BC1E2C"/>
<path fill-rule="evenodd" clip-rule="evenodd" d="M42.2043 27.2105C40.8656 27.7524 39.796 28.822 39.2541 30.1607L38.3271 29.7855C38.9707 28.1958 40.2394 26.9271 41.8291 26.2836L42.2043 27.2105Z" fill="#221F1F"/>
<path fill-rule="evenodd" clip-rule="evenodd" d="M33.2553 29.8054C32.0529 29.8054 31.0781 30.7802 31.0781 31.9826H30.0781C30.0781 30.2279 31.5006 28.8054 33.2553 28.8054C35.01 28.8054 36.4325 30.2279 36.4325 31.9826H35.4325C35.4325 30.7802 34.4577 29.8054 33.2553 29.8054Z" fill="#221F1F"/>
<path fill-rule="evenodd" clip-rule="evenodd" d="M43.2344 37.0405C46.4311 37.0405 49.0225 34.4491 49.0225 31.2524C49.0225 28.0557 46.4311 25.4642 43.2344 25.4642C40.0377 25.4642 37.4463 28.0557 37.4463 31.2524C37.4463 34.4491 40.0377 37.0405 43.2344 37.0405ZM43.2344 39.0405C47.5357 39.0405 51.0225 35.5536 51.0225 31.2524C51.0225 26.9511 47.5357 23.4642 43.2344 23.4642C38.9332 23.4642 35.4463 26.9511 35.4463 31.2524C35.4463 35.5536 38.9332 39.0405 43.2344 39.0405Z" fill="#221F1F"/>
<path fill-rule="evenodd" clip-rule="evenodd" d="M15.4003 30.1555H14.667V31.8L15.4003 31.8V30.1555ZM14.667 29.1555C14.1147 29.1555 13.667 29.6032 13.667 30.1555V31.8C13.667 32.3522 14.1147 32.8 14.667 32.8H16.4003V29.1555H14.667Z" fill="#221F1F"/>
<path fill-rule="evenodd" clip-rule="evenodd" d="M51.1114 31.8L51.8447 31.8L51.8447 30.1556L51.1114 30.1556L51.1114 31.8ZM51.8447 32.8C52.397 32.8 52.8447 32.3523 52.8447 31.8L52.8447 30.1556C52.8447 29.6033 52.397 29.1556 51.8447 29.1556L50.1114 29.1556L50.1114 32.8L51.8447 32.8Z" fill="#221F1F"/>
</svg>
