<svg width="74" height="66" viewBox="0 0 74 66" fill="none" xmlns="http://www.w3.org/2000/svg">
<path fill-rule="evenodd" clip-rule="evenodd" d="M22.2802 2.90715C19.5955 4.82114 17.6702 7.7292 17.0405 11.092L16.0576 10.908C16.7363 7.28361 18.8106 4.15262 21.6997 2.0929L22.2802 2.90715Z" fill="#221F1F"/>
<path fill-rule="evenodd" clip-rule="evenodd" d="M49.0274 2.90715C51.7121 4.82114 53.6374 7.7292 54.2671 11.092L55.25 10.908C54.5714 7.28361 52.497 4.15262 49.6079 2.0929L49.0274 2.90715Z" fill="#221F1F"/>
<path fill-rule="evenodd" clip-rule="evenodd" d="M67.3174 12H6.31738C4.10824 12 2.31738 13.7909 2.31738 16V60C2.31738 62.2091 4.10824 64 6.31738 64H67.3174C69.5265 64 71.3174 62.2091 71.3174 60V16C71.3174 13.7909 69.5265 12 67.3174 12ZM6.31738 10C3.00367 10 0.317383 12.6863 0.317383 16V60C0.317383 63.3137 3.00367 66 6.31738 66H67.3174C70.6311 66 73.3174 63.3137 73.3174 60V16C73.3174 12.6863 70.6311 10 67.3174 10H6.31738Z" fill="#221F1F"/>
<path fill-rule="evenodd" clip-rule="evenodd" d="M6.31738 11H67.3174V37C67.3174 39.7614 65.0788 42 62.3174 42H59.3174V43H62.3174C65.6311 43 68.3174 40.3137 68.3174 37V10H5.31738V37C5.31738 40.3137 8.00367 43 11.3174 43H14.3174V42H11.3174C8.55596 42 6.31738 39.7614 6.31738 37V11ZM23.3174 42V43H50.3174V42H23.3174Z" fill="#221F1F"/>
<path fill-rule="evenodd" clip-rule="evenodd" d="M64.3174 16H54.3174V15H64.3174V16Z" fill="#221F1F"/>
<path fill-rule="evenodd" clip-rule="evenodd" d="M57.3174 38H52.3174L52.3174 47H57.3174V38ZM52.3174 36C51.2128 36 50.3174 36.8954 50.3174 38V47C50.3174 48.1046 51.2128 49 52.3174 49H57.3174C58.422 49 59.3174 48.1046 59.3174 47V38C59.3174 36.8954 58.422 36 57.3174 36H52.3174Z" fill="#221F1F"/>
<path fill-rule="evenodd" clip-rule="evenodd" d="M54.8174 44.5C55.0935 44.5 55.3174 44.2761 55.3174 44C55.3174 43.7239 55.0935 43.5 54.8174 43.5C54.5412 43.5 54.3174 43.7239 54.3174 44C54.3174 44.2761 54.5412 44.5 54.8174 44.5ZM54.8174 45.5C55.6458 45.5 56.3174 44.8284 56.3174 44C56.3174 43.1716 55.6458 42.5 54.8174 42.5C53.989 42.5 53.3174 43.1716 53.3174 44C53.3174 44.8284 53.989 45.5 54.8174 45.5Z" fill="#221F1F"/>
<path fill-rule="evenodd" clip-rule="evenodd" d="M21.3174 38H16.3174L16.3174 47H21.3174V38ZM16.3174 36C15.2128 36 14.3174 36.8954 14.3174 38V47C14.3174 48.1046 15.2128 49 16.3174 49H21.3174C22.422 49 23.3174 48.1046 23.3174 47V38C23.3174 36.8954 22.422 36 21.3174 36H16.3174Z" fill="#221F1F"/>
<path fill-rule="evenodd" clip-rule="evenodd" d="M18.8174 44.5C19.0935 44.5 19.3174 44.2761 19.3174 44C19.3174 43.7239 19.0935 43.5 18.8174 43.5C18.5412 43.5 18.3174 43.7239 18.3174 44C18.3174 44.2761 18.5412 44.5 18.8174 44.5ZM18.8174 45.5C19.6458 45.5 20.3174 44.8284 20.3174 44C20.3174 43.1716 19.6458 42.5 18.8174 42.5C17.989 42.5 17.3174 43.1716 17.3174 44C17.3174 44.8284 17.989 45.5 18.8174 45.5Z" fill="#221F1F"/>
<path fill-rule="evenodd" clip-rule="evenodd" d="M33.3174 62H8.31738V61H33.3174V62Z" fill="#221F1F"/>
<path fill-rule="evenodd" clip-rule="evenodd" d="M58.3174 62H35.3174V61H58.3174V62Z" fill="#221F1F"/>
<path fill-rule="evenodd" clip-rule="evenodd" d="M64.3174 62H60.3174V61H64.3174V62Z" fill="#221F1F"/>
<path fill-rule="evenodd" clip-rule="evenodd" d="M47.8174 2H23.8174C23.5412 2 23.3174 2.22386 23.3174 2.5C23.3174 2.77614 23.5412 3 23.8174 3H47.8174C48.0935 3 48.3174 2.77614 48.3174 2.5C48.3174 2.22386 48.0935 2 47.8174 2ZM23.8174 0C22.4367 0 21.3174 1.11929 21.3174 2.5C21.3174 3.88071 22.4367 5 23.8174 5H47.8174C49.1981 5 50.3174 3.88071 50.3174 2.5C50.3174 1.11929 49.1981 0 47.8174 0H23.8174Z" fill="#221F1F"/>
</svg>
