<svg width="67" height="84" viewBox="0 0 67 84" fill="none" xmlns="http://www.w3.org/2000/svg">
<path fill-rule="evenodd" clip-rule="evenodd" d="M19.4512 61.3416V84.0003L26.2845 79.4447L33.1178 84.0003V62.9092C32.7714 62.9681 32.4312 63.0892 32.1178 63.2727V82.1317L30.3838 80.9757L30.3838 64.3634C30.0635 64.489 29.7293 64.5782 29.3838 64.6311L29.3838 80.309L26.2845 78.2428L23.0947 80.3694L23.0947 61.0144C22.7777 60.8864 22.4385 60.8181 22.0947 60.8129L22.0947 81.036L20.4512 82.1317V61.2011C20.1197 61.288 19.785 61.3336 19.4512 61.3416ZM34.9395 63.2038V75.8001L41.7728 71.2445L48.6061 75.8001V61.2443C48.2759 61.2944 47.9412 61.3115 47.6061 61.2956V73.9315L45.873 72.7762V60.9235C45.5433 60.8313 45.2046 60.8065 44.873 60.8408V72.1095L41.7728 70.0427L38.584 72.1685V64.6831C38.249 64.6961 37.9134 64.6708 37.584 64.6087V72.8352L35.9395 73.9315V63.9458C35.7477 63.8203 35.564 63.6793 35.3904 63.5233C35.251 63.3992 35.0996 63.2927 34.9395 63.2038Z" fill="#221F1F"/>
<path fill-rule="evenodd" clip-rule="evenodd" d="M64.8636 43.6108C65.3548 42.2509 65.2566 40.7939 64.4706 39.6283C63.6847 38.4627 63.9794 36.9085 65.0601 36.0343C66.1408 35.1601 66.8285 33.8002 66.8285 32.3432C66.8285 30.8862 66.1408 29.6234 65.0601 28.6521C63.9794 27.7779 63.6847 26.2237 64.4706 25.0581C65.2566 23.7954 65.3548 22.3384 64.8636 21.0756C64.3724 19.7158 63.2917 18.7444 61.9163 18.2587C60.6391 17.7731 59.8532 16.5103 60.0497 15.1504C60.3444 13.7906 59.9514 12.3336 59.0672 11.2651C58.183 10.1966 56.8076 9.6138 55.4322 9.6138H55.334C53.9585 9.6138 52.7796 8.64245 52.5831 7.28258C52.3866 5.9227 51.5024 4.65995 50.2253 3.98001C48.9481 3.30007 47.4744 3.1058 46.099 3.68861C44.8219 4.17428 43.3482 3.68861 42.6605 2.42586C41.9728 1.16312 40.7939 0.288912 39.3202 0.0946435C37.9448 -0.196759 36.4711 0.288912 35.3904 1.16312C34.3098 2.03733 32.7379 2.03733 31.7554 1.16312C30.6747 0.191778 29.2011 -0.196759 27.8257 0.0946435C26.4503 0.386046 25.1731 1.16312 24.4854 2.42586C23.7977 3.59148 22.324 4.17428 21.0468 3.68861C19.6714 3.20294 18.1978 3.30007 16.9206 3.98001C15.6434 4.65995 14.8575 5.9227 14.5627 7.28258C14.3663 8.64245 13.0891 9.6138 11.8119 9.6138C10.3383 9.6138 9.06109 10.1966 8.07865 11.2651C7.19445 12.3336 6.80148 13.7906 7.09621 15.1504C7.39094 16.5103 6.60499 17.8702 5.22958 18.2587C3.85416 18.7444 2.77348 19.7158 2.28226 21.0756C1.79104 22.4355 1.88928 23.8925 2.67524 25.0581C3.36294 26.2237 3.06821 27.7779 2.08577 28.6521C1.00509 29.5263 0.317383 30.8862 0.317383 32.3432C0.317383 33.8002 1.00509 35.063 2.08577 36.0343C3.16646 36.9085 3.46119 38.4627 2.67524 39.6283C1.88928 40.891 1.79104 42.348 2.28226 43.6108C2.77348 44.9706 3.85416 45.942 5.22958 46.4277C6.50675 46.9133 7.2927 48.1761 7.09621 49.5359C6.80148 50.8958 7.19445 52.3528 8.07865 53.4213C8.96284 54.4898 10.3383 55.0726 11.8119 55.0726C13.1873 55.0726 14.3663 56.0439 14.5627 57.4038C14.7592 58.7637 15.6434 60.0264 16.9206 60.7064C18.1978 61.3863 19.6714 61.5806 21.0468 60.9978C22.324 60.5121 23.7977 60.9978 24.4854 62.2605C25.1731 63.5233 26.352 64.3975 27.8257 64.5918C27.9879 64.5918 28.1502 64.6212 28.296 64.6477C28.4151 64.6693 28.5233 64.6889 28.6116 64.6889C29.7905 64.6889 30.8712 64.3004 31.7554 63.5233C32.8361 62.6491 34.408 62.6491 35.3904 63.5233C36.4711 64.4946 37.9448 64.8832 39.3202 64.5918C40.6956 64.3004 41.9728 63.5233 42.6605 62.2605C43.3482 61.0949 44.8219 60.5121 46.099 60.9978C47.4744 61.4835 48.9481 61.3863 50.2253 60.7064C51.5024 60.0264 52.2884 58.7637 52.5831 57.4038C52.7796 56.0439 53.9585 55.0726 55.334 55.0726C56.8076 55.0726 58.0848 54.4898 59.0672 53.4213C59.9514 52.3528 60.3444 50.8958 60.0497 49.5359C59.7549 48.1761 60.5409 46.8162 61.9163 46.4277C63.2917 45.942 64.3724 44.9706 64.8636 43.6108ZM61.2966 44.5251C62.1581 44.2083 62.726 43.6416 62.9826 42.9313C63.2918 42.0753 63.1877 41.303 62.8124 40.7464C61.4037 38.6573 61.976 35.9567 63.8022 34.4794C64.4304 33.9712 64.8285 33.1751 64.8285 32.3432C64.8285 31.5781 64.4842 30.8353 63.7531 30.1667C61.9769 28.6902 61.4233 26.0433 62.7867 23.9785C63.2223 23.2636 63.2628 22.4771 62.9997 21.8007L62.9909 21.778L62.9826 21.7551C62.7214 21.0321 62.1378 20.458 61.2504 20.1446L61.2278 20.1367L61.2054 20.1281C59.0963 19.3261 57.7333 17.1964 58.0702 14.8644L58.0802 14.7952L58.095 14.7268C58.2517 14.004 58.0443 13.1661 57.5264 12.5402C57.0595 11.976 56.2728 11.6138 55.4322 11.6138H55.334C53.0169 11.6138 50.9497 9.96341 50.6037 7.56858C50.5004 6.85389 50.0134 6.13296 49.2854 5.74542C48.4256 5.28768 47.5893 5.22928 46.8793 5.53011L46.8449 5.54471L46.8099 5.55801C44.6391 6.38351 42.0911 5.56194 40.9041 3.38243C40.4998 2.64009 39.8539 2.18231 39.0588 2.07749L38.9817 2.06733L38.9057 2.05121C38.242 1.91059 37.3671 2.13659 36.6483 2.71805L35.3986 1.17318L36.6483 2.71805C34.8713 4.15555 32.2002 4.23609 30.4259 2.65724L30.4184 2.6506L30.4185 2.65058C29.8094 2.1031 28.9854 1.89333 28.2402 2.05121C27.2919 2.25213 26.5861 2.75029 26.2418 3.38243L26.2254 3.41259L26.2079 3.44216C25.0697 5.37134 22.6155 6.40858 20.3639 5.56852C19.5068 5.27085 18.6235 5.33919 17.8605 5.74542C17.2244 6.08405 16.7354 6.76099 16.529 7.65426C16.1383 10.0424 13.9613 11.6138 11.8119 11.6138C10.9323 11.6138 10.1959 11.9365 9.58774 12.5793C9.09311 13.2007 8.8974 14.0189 9.05083 14.7268C9.55982 17.0753 8.21293 19.4517 5.84926 20.1613C4.98774 20.4781 4.41989 21.0448 4.1633 21.7551C3.85408 22.6111 3.9582 23.3834 4.33348 23.94L4.36716 23.99L4.39778 24.0418C5.5969 26.0743 5.07327 28.6709 3.41529 30.1462L3.38017 30.1775L3.34362 30.207C2.71549 30.7152 2.31738 31.5113 2.31738 32.3432C2.31738 33.1083 2.66166 33.8511 3.39278 34.5197C5.16901 35.9962 5.72259 38.6433 4.35909 40.708C3.92358 41.4229 3.88308 42.2093 4.14619 42.8857L4.15503 42.9084L4.1633 42.9313C4.42445 43.6543 5.00804 44.2284 5.8955 44.5418L5.91807 44.5498L5.94045 44.5583C8.04952 45.3603 9.4126 47.49 9.07565 49.822L9.06565 49.8912L9.05083 49.9596C8.89416 50.6824 9.10153 51.5203 9.61948 52.1462C10.0736 52.695 10.8508 53.0726 11.8119 53.0726C14.1289 53.0726 16.1962 54.723 16.5422 57.1178C16.6455 57.8325 17.1325 58.5534 17.8605 58.941C18.7203 59.3987 19.5566 59.4571 20.2665 59.1563L20.301 59.1417L20.336 59.1284C22.5068 58.3029 25.0548 59.1245 26.2418 61.304C26.6318 62.0201 27.2466 62.4714 28.0034 62.5965C28.2664 62.6102 28.4887 62.6502 28.6026 62.6707L28.6093 62.6719C28.6359 62.6767 28.6567 62.6804 28.6733 62.6834C28.6825 62.6851 28.6905 62.6865 28.6975 62.6878C29.3761 62.6703 29.9531 62.4447 30.4351 62.021L30.4658 61.994L30.4976 61.9683C32.2746 60.5309 34.9456 60.4503 36.72 62.0292L36.7274 62.0358C37.3365 62.5833 38.1604 62.7931 38.9057 62.6352C39.854 62.4343 40.5598 61.9361 40.9041 61.304L40.9205 61.2738L40.938 61.2442C42.0762 59.3151 44.5303 58.2778 46.7819 59.1179C47.6391 59.4156 48.5224 59.3472 49.2854 58.941C49.9214 58.6024 50.4104 57.9256 50.6168 57.0326C50.999 54.6839 53.0445 53.0726 55.334 53.0726C56.2135 53.0726 56.95 52.7499 57.5581 52.1071C58.0528 51.4857 58.2485 50.6675 58.095 49.9596C57.5861 47.6111 58.9329 45.2347 61.2966 44.5251ZM28.7481 62.6965C28.7476 62.6964 28.747 62.6963 28.7465 62.6962L28.7481 62.6965Z" fill="#221F1F"/>
<path fill-rule="evenodd" clip-rule="evenodd" d="M33.5732 55.4888C46.3555 55.4888 56.7176 45.1267 56.7176 32.3444C56.7176 19.5621 46.3555 9.19995 33.5732 9.19995C20.7908 9.19995 10.4287 19.5621 10.4287 32.3444C10.4287 45.1267 20.7908 55.4888 33.5732 55.4888ZM33.5732 56.4888C46.9078 56.4888 57.7176 45.679 57.7176 32.3444C57.7176 19.0098 46.9078 8.19995 33.5732 8.19995C20.2385 8.19995 9.42871 19.0098 9.42871 32.3444C9.42871 45.679 20.2385 56.4888 33.5732 56.4888Z" fill="#221F1F"/>
<path fill-rule="evenodd" clip-rule="evenodd" d="M23.5948 37.0405C26.7915 37.0405 29.3829 34.4491 29.3829 31.2524C29.3829 28.0557 26.7915 25.4642 23.5948 25.4642C20.3981 25.4642 17.8066 28.0557 17.8066 31.2524C17.8066 34.4491 20.3981 37.0405 23.5948 37.0405ZM23.5948 39.0405C27.896 39.0405 31.3829 35.5536 31.3829 31.2524C31.3829 26.9511 27.896 23.4642 23.5948 23.4642C19.2935 23.4642 15.8066 26.9511 15.8066 31.2524C15.8066 35.5536 19.2935 39.0405 23.5948 39.0405Z" fill="#221F1F"/>
<path fill-rule="evenodd" clip-rule="evenodd" d="M22.5022 27.2105C21.1635 27.7524 20.0938 28.822 19.5519 30.1607L18.625 29.7855C19.2685 28.1958 20.5372 26.9271 22.127 26.2836L22.5022 27.2105Z" fill="#BC1E2C"/>
<path fill-rule="evenodd" clip-rule="evenodd" d="M42.5217 27.2105C41.183 27.7524 40.1134 28.822 39.5715 30.1607L38.6445 29.7855C39.288 28.1958 40.5568 26.9271 42.1465 26.2836L42.5217 27.2105Z" fill="#221F1F"/>
<path fill-rule="evenodd" clip-rule="evenodd" d="M33.5727 29.8054C32.3703 29.8054 31.3955 30.7802 31.3955 31.9826H30.3955C30.3955 30.2279 31.818 28.8054 33.5727 28.8054C35.3274 28.8054 36.7498 30.2279 36.7498 31.9826H35.7498C35.7498 30.7802 34.7751 29.8054 33.5727 29.8054Z" fill="#221F1F"/>
<path fill-rule="evenodd" clip-rule="evenodd" d="M43.5518 37.0405C46.7485 37.0405 49.3399 34.4491 49.3399 31.2524C49.3399 28.0557 46.7485 25.4642 43.5518 25.4642C40.3551 25.4642 37.7637 28.0557 37.7637 31.2524C37.7637 34.4491 40.3551 37.0405 43.5518 37.0405ZM43.5518 39.0405C47.8531 39.0405 51.3399 35.5536 51.3399 31.2524C51.3399 26.9511 47.8531 23.4642 43.5518 23.4642C39.2505 23.4642 35.7637 26.9511 35.7637 31.2524C35.7637 35.5536 39.2505 39.0405 43.5518 39.0405Z" fill="#221F1F"/>
<path fill-rule="evenodd" clip-rule="evenodd" d="M15.7177 30.1555H14.9844V31.8L15.7177 31.8V30.1555ZM14.9844 29.1555C14.4321 29.1555 13.9844 29.6032 13.9844 30.1555V31.8C13.9844 32.3522 14.4321 32.8 14.9844 32.8H16.7177V29.1555H14.9844Z" fill="#221F1F"/>
<path fill-rule="evenodd" clip-rule="evenodd" d="M51.4288 31.8L52.1621 31.8L52.1621 30.1556L51.4288 30.1556L51.4288 31.8ZM52.1621 32.8C52.7144 32.8 53.1621 32.3523 53.1621 31.8L53.1621 30.1556C53.1621 29.6033 52.7144 29.1556 52.1621 29.1556L50.4288 29.1556L50.4288 32.8L52.1621 32.8Z" fill="#221F1F"/>
</svg>
