<svg width="100" height="77" viewBox="0 0 100 77" fill="none" xmlns="http://www.w3.org/2000/svg">
<path fill-rule="evenodd" clip-rule="evenodd" d="M75.0316 39.7666C74.9732 40.1325 74.9057 40.4957 74.8294 40.8561L78.2667 39.935C79.7766 39.5285 81.1098 38.6336 82.0595 37.3891C82.7942 36.4263 83.2678 35.2959 83.4432 34.1074C83.4946 33.7595 83.5204 33.4067 83.5197 33.0516L81.404 33.6185C80.9377 33.7434 80.4408 33.6774 80.0224 33.435C79.6041 33.1926 79.2987 32.7937 79.1734 32.3259C79.048 31.8582 79.1131 31.3599 79.3541 30.9408C79.5952 30.5217 79.9926 30.2161 80.4589 30.0912L86.714 28.4151C88.2238 28.0084 89.5568 27.1133 90.5063 25.8686C91.2409 24.9058 91.7143 23.7754 91.8895 22.5868C91.9408 22.239 91.9666 21.8861 91.9659 21.5311L87.1439 22.8231C86.6776 22.9481 86.1807 22.8821 85.7623 22.6397C85.344 22.3972 85.0386 21.9983 84.9132 21.5305C84.7879 21.0628 84.8529 20.5646 85.094 20.1455C85.3351 19.7264 85.7325 19.4207 86.1987 19.2958L94.3877 17.1016C95.8976 16.6949 97.2307 15.8 98.1804 14.5555C98.9151 13.5927 99.3886 12.4624 99.5642 11.2739C99.6156 10.9261 99.6414 10.5732 99.6408 10.2181L76.3567 16.4571C76.0148 16.5478 75.6674 16.6414 75.3174 16.7397V17.7793C75.7498 17.6552 76.1831 17.5377 76.613 17.4237L76.6156 17.423L98.4951 11.5604C98.3037 12.4232 97.927 13.2391 97.3855 13.9488C96.5695 15.018 95.4246 15.7865 94.1283 16.1358L85.9399 18.3299C85.2165 18.5237 84.6005 18.9978 84.2272 19.6468C83.8539 20.2958 83.7536 21.0664 83.9473 21.7893C84.141 22.5123 84.6132 23.1295 85.261 23.5049C85.9088 23.8803 86.6793 23.9829 87.4027 23.789L90.8206 22.8732C90.6293 23.7362 90.2528 24.5523 89.7113 25.2621C88.8955 26.3314 87.7507 27.1 86.4545 27.4494L80.2 29.1252C79.4766 29.3191 78.8607 29.7932 78.4873 30.4422C78.114 31.0911 78.0137 31.8618 78.2074 32.5847C78.4011 33.3077 78.8733 33.9249 79.5211 34.3003C80.1689 34.6757 80.9394 34.7783 81.6628 34.5844L82.3742 34.3938C82.1828 35.2567 81.8062 36.0727 81.2646 36.7824C80.4485 37.8518 79.3033 38.6203 78.0067 38.9694L75.0316 39.7666ZM26.8458 41.1338L22.3722 39.935C20.8623 39.5285 19.5291 38.6336 18.5794 37.3891C17.8446 36.4263 17.3711 35.2959 17.1957 34.1074C17.1443 33.7595 17.1185 33.4067 17.1191 33.0516L19.2349 33.6185C19.7012 33.7434 20.1981 33.6774 20.6164 33.435C21.0348 33.1926 21.3402 32.7937 21.4655 32.3259C21.5909 31.8582 21.5258 31.3599 21.2848 30.9408C21.0437 30.5217 20.6463 30.2161 20.18 30.0912L13.9249 28.4151C12.4151 28.0084 11.0821 27.1133 10.1325 25.8686C9.39797 24.9058 8.92463 23.7754 8.74934 22.5868C8.69804 22.239 8.67227 21.8861 8.67296 21.5311L13.495 22.8231C13.9613 22.9481 14.4582 22.8821 14.8766 22.6397C15.2949 22.3972 15.6003 21.9983 15.7256 21.5305C15.851 21.0628 15.786 20.5645 15.5449 20.1455C15.3038 19.7264 14.9064 19.4207 14.4402 19.2958L6.25114 17.1016C4.74131 16.6949 3.40821 15.8 2.45847 14.5555C1.72377 13.5927 1.25024 12.4624 1.07469 11.2739C1.02331 10.9261 0.997457 10.5732 0.998057 10.2181L24.2821 16.4571C24.9468 16.6333 25.6318 16.8209 26.3174 17.0316V18.0792C25.5585 17.8383 24.7869 17.6255 24.0259 17.4237L24.0233 17.423L2.14379 11.5604C2.33522 12.4232 2.71184 13.2391 3.25342 13.9488C4.06936 15.018 5.21426 15.7865 6.51054 16.1358L14.699 18.3299C15.4224 18.5237 16.0383 18.9978 16.4117 19.6468C16.785 20.2958 16.8853 21.0664 16.6916 21.7893C16.4979 22.5123 16.0257 23.1295 15.3779 23.5049C14.7301 23.8803 13.9596 23.9829 13.2362 23.789L9.81832 22.8732C10.0095 23.7362 10.386 24.5523 10.9276 25.2621C11.7434 26.3314 12.8882 27.1 14.1844 27.4494L20.4389 29.1252C21.1623 29.3191 21.7782 29.7932 22.1516 30.4422C22.5249 31.0911 22.6252 31.8618 22.4314 32.5847C22.2377 33.3077 21.7656 33.9249 21.1178 34.3003C20.47 34.6757 19.6995 34.7783 18.9761 34.5844L18.2647 34.3938C18.4561 35.2567 18.8327 36.0727 19.3743 36.7824C20.1904 37.8517 21.3356 38.6203 22.6322 38.9694L26.6367 40.0425C26.6977 40.4091 26.7674 40.7728 26.8458 41.1338Z" fill="#221F1F"/>
<path fill-rule="evenodd" clip-rule="evenodd" d="M61.664 55.4025C69.5617 50.0841 73.3174 43.6011 73.3174 36.1058V14.714C65.4119 11.3258 57.8756 7.20983 50.8174 2.42481C43.7591 7.20956 36.2228 11.3252 28.3174 14.7131V36.1058C28.3174 43.6439 31.9593 50.1333 39.5635 55.4358C42.883 57.7192 46.5237 59.556 50.3811 60.8926C54.3901 59.5561 58.1861 57.7088 61.664 55.4025ZM50.3691 63C54.783 61.5941 58.961 59.5955 62.775 57.0654C71.0974 51.4632 75.3174 44.4127 75.3174 36.1058V13.3882C66.6626 9.77882 58.4478 5.28974 50.8174 0C43.187 5.28946 34.9721 9.77822 26.3174 13.3872V36.1058C26.3174 44.4221 30.3897 51.4788 38.4247 57.0799C42.0796 59.5947 46.1037 61.5892 50.3691 63Z" fill="#221F1F"/>
<path fill-rule="evenodd" clip-rule="evenodd" d="M60.5042 52.9923C67.4239 48.2471 70.8174 42.3756 70.8174 35.5209V16.3477C63.7744 13.3082 57.0727 9.57997 50.8174 5.22145C44.5621 9.57972 37.8603 13.3076 30.8174 16.3469V35.5209C30.8174 42.4002 34.1008 48.2775 40.7715 53.0145C43.7351 55.0911 46.9902 56.7513 50.4392 57.9454C54.017 56.7532 57.4046 55.0861 60.5042 52.9923ZM61.0668 53.819C68.2003 48.9282 71.8174 42.773 71.8174 35.5209V15.6881C64.399 12.5371 57.3577 8.61803 50.8174 4C44.277 8.61778 37.2357 12.5365 29.8174 15.6873V35.5209C29.8174 42.7812 33.3079 48.9418 40.1951 53.8316C43.3278 56.0271 46.7771 57.7684 50.4331 59C54.2165 57.7726 57.7976 56.0278 61.0668 53.819Z" fill="#221F1F"/>
<path fill-rule="evenodd" clip-rule="evenodd" d="M41.0518 33.5587C40.8691 33.3895 40.606 33.2825 40.3172 33.2826C40.0284 33.2826 39.7654 33.3896 39.5827 33.5588C39.4026 33.7257 39.3174 33.9349 39.3174 34.1353C39.3174 34.3357 39.4026 34.5449 39.5828 34.7117L46.0727 40.7238C46.0727 40.7238 46.0727 40.7238 46.0727 40.7238C46.2553 40.893 46.5184 41 46.8072 41C47.096 41 47.359 40.893 47.5417 40.7238C47.5417 40.7238 47.5416 40.7238 47.5417 40.7238L64.0464 25.4341C64.1375 25.3512 64.2053 25.2566 64.2502 25.158C64.2949 25.0597 64.3169 24.9572 64.3174 24.8558C64.3178 24.7544 64.2967 24.6518 64.2529 24.5534C64.209 24.4546 64.1422 24.3597 64.0521 24.2762C63.9618 24.1926 63.8504 24.1227 63.7226 24.0739C63.5947 24.0251 63.4554 23.9995 63.3132 24C63.1709 24.0005 63.0319 24.0272 62.9046 24.0769C62.7774 24.1266 62.6668 24.1973 62.5775 24.2814L62.5715 24.287L46.8081 38.8898L41.0518 33.5587ZM38.9032 35.4453L45.3931 41.4574C45.7681 41.8048 46.2768 42 46.8072 42C47.3375 42 47.8462 41.8048 48.2212 41.4574L64.7201 26.1733C64.9083 26.0017 65.0579 25.7974 65.1604 25.572C65.263 25.3467 65.3163 25.1047 65.3174 24.8602C65.3184 24.6156 65.2672 24.3733 65.1667 24.1471C65.0662 23.921 64.9183 23.7156 64.7316 23.5426C64.545 23.3697 64.3232 23.2327 64.0791 23.1396C63.835 23.0465 63.5734 22.999 63.3094 23C63.0454 23.001 62.7842 23.0504 62.5409 23.1454C62.2977 23.2404 62.0771 23.379 61.8919 23.5533L46.808 37.5268L41.7314 32.8251C41.3563 32.4777 40.8476 32.2825 40.3172 32.2826C39.7868 32.2826 39.2781 32.4778 38.9031 32.8253C38.528 33.1727 38.3174 33.644 38.3174 34.1353C38.3174 34.6267 38.5281 35.0979 38.9032 35.4453Z" fill="#221F1F"/>
<path fill-rule="evenodd" clip-rule="evenodd" d="M49.8174 73L49.8174 67L50.8174 67L50.8174 73L49.8174 73Z" fill="#221F1F"/>
<path fill-rule="evenodd" clip-rule="evenodd" d="M56.8174 70L56.8174 64L57.8174 64L57.8174 70L56.8174 70Z" fill="#221F1F"/>
<path fill-rule="evenodd" clip-rule="evenodd" d="M56.8174 73L56.8174 71L57.8174 71L57.8174 73L56.8174 73Z" fill="#221F1F"/>
<path fill-rule="evenodd" clip-rule="evenodd" d="M63.8174 69L63.8174 67L64.8174 67L64.8174 69L63.8174 69Z" fill="#221F1F"/>
<path fill-rule="evenodd" clip-rule="evenodd" d="M63.8174 66L63.8174 60L64.8174 60L64.8174 66L63.8174 66Z" fill="#221F1F"/>
<path fill-rule="evenodd" clip-rule="evenodd" d="M49.8174 77L49.8174 75L50.8174 75L50.8174 77L49.8174 77Z" fill="#221F1F"/>
<path fill-rule="evenodd" clip-rule="evenodd" d="M42.8174 70L42.8174 64L43.8174 64L43.8174 70L42.8174 70Z" fill="#221F1F"/>
<path fill-rule="evenodd" clip-rule="evenodd" d="M42.8174 73L42.8174 71L43.8174 71L43.8174 73L42.8174 73Z" fill="#221F1F"/>
<path fill-rule="evenodd" clip-rule="evenodd" d="M35.8174 69L35.8174 67L36.8174 67L36.8174 69L35.8174 69Z" fill="#221F1F"/>
<path fill-rule="evenodd" clip-rule="evenodd" d="M35.8174 66L35.8174 60L36.8174 60L36.8174 66L35.8174 66Z" fill="#221F1F"/>
</svg>
