<svg width="70" height="73" viewBox="0 0 70 73" fill="none" xmlns="http://www.w3.org/2000/svg">
<path d="M11 10C11 10 22 5.5 40 10C58 14.5 69 10 69 10" stroke="#221F1F" stroke-width="2" stroke-linecap="round"/>
<path d="M11 50C11 50 22 45.5 40 50C58 54.5 69 50 69 50" stroke="#221F1F" stroke-width="2" stroke-linecap="round"/>
<line x1="69" y1="10" x2="69" y2="50" stroke="#221F1F" stroke-width="2"/>
<line x1="11" y1="5" x2="11" y2="65" stroke="#221F1F" stroke-width="2"/>
<circle cx="11" cy="3" r="2.5" stroke="#221F1F"/>
<path d="M4.5 66C4.5 65.1716 5.17157 64.5 6 64.5H16C16.8284 64.5 17.5 65.1716 17.5 66V68.5H4.5V66Z" stroke="#221F1F"/>
<path d="M0.5 70C0.5 69.1716 1.17157 68.5 2 68.5H20C20.8284 68.5 21.5 69.1716 21.5 70V72.5H0.5V70Z" stroke="#221F1F"/>
<circle cx="41.5" cy="30.5" r="16" stroke="#221F1F" stroke-dasharray="2 2"/>
<circle cx="41.5" cy="30.5" r="13" stroke="#221F1F"/>
<path d="M48.5 30.5C48.5 34.1593 47.6749 37.4475 46.3662 39.8031C45.0481 42.1757 43.307 43.5 41.5 43.5C39.693 43.5 37.9519 42.1757 36.6338 39.8031C35.3251 37.4475 34.5 34.1593 34.5 30.5C34.5 26.8407 35.3251 23.5525 36.6338 21.1969C37.9519 18.8243 39.693 17.5 41.5 17.5C43.307 17.5 45.0481 18.8243 46.3662 21.1969C47.6749 23.5525 48.5 26.8407 48.5 30.5Z" stroke="#221F1F"/>
<line x1="41.5" y1="17" x2="41.5" y2="44" stroke="#221F1F"/>
<line x1="55" y1="30.5" x2="29" y2="30.5" stroke="#221F1F"/>
<line x1="53" y1="24.5" x2="30" y2="24.5" stroke="#221F1F"/>
<line x1="53" y1="36.5" x2="30" y2="36.5" stroke="#221F1F"/>
</svg>
